SplineFontDB: 3.2
FontName: notosansbengali
FullName: notosansbengali
FamilyName: notosansbengali
Weight: Regular
Copyright: Copyright 2022 The Noto Project Authors (https://github.com/notofonts/bengali)
Version: 2.003
ItalicAngle: 0
UnderlinePosition: -125
UnderlineWidth: 50
Ascent: 800
Descent: 200
InvalidEm: 0
sfntRevision: 0x000200c5
LayerCount: 2
Layer: 0 1 "Back" 1
Layer: 1 1 "Fore" 0
XUID: [1021 238 -758118090 6205127]
StyleMap: 0x0040
FSType: 0
OS2Version: 4
OS2_WeightWidthSlopeOnly: 0
OS2_UseTypoMetrics: 1
CreationTime: 1499331109
ModificationTime: 1738533658
PfmFamily: 81
TTFWeight: 400
TTFWidth: 5
LineGap: 0
VLineGap: 0
Panose: 0 0 0 0 0 0 0 0 0 0
OS2TypoAscent: 917
OS2TypoAOffset: 0
OS2TypoDescent: -408
OS2TypoDOffset: 0
OS2TypoLinegap: 0
OS2WinAscent: 917
OS2WinAOffset: 0
OS2WinDescent: 408
OS2WinDOffset: 0
HheadAscent: 917
HheadAOffset: 0
HheadDescent: -408
HheadDOffset: 0
OS2SubXSize: 650
OS2SubYSize: 600
OS2SubXOff: 0
OS2SubYOff: 75
OS2SupXSize: 650
OS2SupYSize: 600
OS2SupXOff: 0
OS2SupYOff: 350
OS2StrikeYSize: 50
OS2StrikeYPos: 322
OS2CapHeight: 622
OS2XHeight: 536
OS2Vendor: 'GOOG'
OS2CodePages: 00000093.00000000
OS2UnicodeRanges: 80018023.00002042.00000000.00000000
Lookup: 1 0 0 "'aalt' Access All Alternates in Bengali2 lookup 0" { "'aalt' Access All Alternates in Bengali2 lookup 0 subtable"  } ['aalt' ('bng2' <'dflt' > 'latn' <'MOL ' 'ROM ' > ) ]
Lookup: 3 0 0 "'aalt' Access All Alternates in Bengali2 lookup 1" { "'aalt' Access All Alternates in Bengali2 lookup 1 subtable"  } ['aalt' ('bng2' <'dflt' > 'latn' <'MOL ' 'ROM ' > ) ]
Lookup: 4 0 0 "'vatu' Vattu Variants in Bengali2 lookup 2" { "'vatu' Vattu Variants in Bengali2 lookup 2 subtable"  } ['cjct' ('bng2' <'dflt' > ) 'vatu' ('bng2' <'dflt' > ) ]
Lookup: 4 0 0 "'pres' Pre Base Substitutions in Bengali2 lookup 3" { "'pres' Pre Base Substitutions in Bengali2 lookup 3 subtable"  } ['cjct' ('bng2' <'dflt' > ) 'pres' ('bng2' <'dflt' > ) ]

StartChar: .notdef
Encoding: 65536 -1 0
Width: 600
Flags: W
LayerCount: 2
Fore
SplineSet
94 0 m 1,0,-1
 94 714 l 1,1,-1
 505 714 l 1,2,-1
 505 0 l 1,3,-1
 94 0 l 1,0,-1
145 51 m 1,4,-1
 454 51 l 1,5,-1
 454 663 l 1,6,-1
 145 663 l 1,7,-1
 145 51 l 1,4,-1
EndSplineSet
EndChar

StartChar: uni0980
Encoding: 2432 2432 4
Width: 540
GlyphClass: 2
Flags: W
AnchorPoint: "Anchor-0" 229 622 basechar 0
LayerCount: 2
Fore
SplineSet
349 290 m 1,0,1
 323 283 323 283 297 279 c 128,-1,2
 271 275 271 275 246 275 c 0,3,4
 148 275 148 275 98.5 320 c 128,-1,5
 49 365 49 365 49 444 c 0,6,7
 49 490 49 490 68 529 c 128,-1,8
 87 568 87 568 120 597.5 c 128,-1,9
 153 627 153 627 194.5 643.5 c 128,-1,10
 236 660 236 660 281 660 c 0,11,12
 317 660 317 660 347 651.5 c 128,-1,13
 377 643 377 643 399 623 c 0,14,15
 420 604 420 604 432 576.5 c 128,-1,16
 444 549 444 549 444 493 c 2,17,-1
 444 108 l 2,18,19
 444 72 444 72 450.5 55.5 c 128,-1,20
 457 39 457 39 474.5 34.5 c 128,-1,21
 492 30 492 30 526 29 c 1,22,-1
 519 -49 l 1,23,24
 469 -48 469 -48 438.5 -39 c 128,-1,25
 408 -30 408 -30 392 -12 c 128,-1,26
 376 6 376 6 370.5 33.5 c 128,-1,27
 365 61 365 61 365 98 c 2,28,-1
 365 476 l 2,29,30
 365 513 365 513 361.5 533.5 c 128,-1,31
 358 554 358 554 344 567 c 0,32,33
 325 588 325 588 280 588 c 0,34,35
 243 588 243 588 208.5 567.5 c 128,-1,36
 174 547 174 547 152.5 513 c 128,-1,37
 131 479 131 479 131 438 c 0,38,39
 131 405 131 405 146.5 386 c 128,-1,40
 162 367 162 367 187.5 358.5 c 128,-1,41
 213 350 213 350 244 350 c 0,42,43
 270 350 270 350 291 353 c 128,-1,44
 312 356 312 356 331 363 c 1,45,-1
 349 290 l 1,0,1
EndSplineSet
EndChar

StartChar: candrabindubeng
Encoding: 2433 2433 5
Width: 0
GlyphClass: 4
Flags: W
AnchorPoint: "Anchor-3" -172 622 mark 0
AnchorPoint: "Anchor-0" -172 622 mark 0
LayerCount: 2
Fore
SplineSet
42 861 m 1,0,1
 38 811 38 811 18.5 771 c 128,-1,2
 -1 731 -1 731 -37.5 708 c 128,-1,3
 -74 685 -74 685 -131 685 c 0,4,5
 -189 685 -189 685 -227 708 c 128,-1,6
 -265 731 -265 731 -285 770.5 c 128,-1,7
 -305 810 -305 810 -310 860 c 1,8,-1
 -241 869 l 1,9,10
 -236 814 -236 814 -212 782.5 c 128,-1,11
 -188 751 -188 751 -135 751 c 0,12,13
 -85 751 -85 751 -59 781.5 c 128,-1,14
 -33 812 -33 812 -28 870 c 1,15,-1
 42 861 l 1,0,1
-90 830 m 0,16,17
 -90 810 -90 810 -102.5 799 c 128,-1,18
 -115 788 -115 788 -134 788 c 0,19,20
 -156 788 -156 788 -167 800.5 c 128,-1,21
 -178 813 -178 813 -178 833 c 0,22,23
 -178 849 -178 849 -167.5 861 c 128,-1,24
 -157 873 -157 873 -135 873 c 0,25,26
 -112 873 -112 873 -101 862 c 128,-1,27
 -90 851 -90 851 -90 830 c 0,16,17
EndSplineSet
Substitution2: "Single Substitution lookup 41 subtable" candrabindualtbeng
Substitution2: "Single Substitution lookup 40 subtable" candrabindualtbeng
Substitution2: "Single Substitution lookup 39 subtable" candrabindualtbeng
Substitution2: "Single Substitution lookup 38 subtable" candrabindualtbeng
Substitution2: "Single Substitution lookup 7 subtable" yapostformbeng
Substitution2: "Single Substitution lookup 6 subtable" aavowelsignbeng
AlternateSubs2: "'aalt' Access All Alternates in Bengali2 lookup 1 subtable" aavowelsignbeng yapostformbeng candrabindualtbeng
EndChar

StartChar: anusvarabeng
Encoding: 2434 2434 6
Width: 438
GlyphClass: 2
Flags: W
AnchorPoint: "Anchor-2" -203 622 basechar 0
LayerCount: 2
Fore
SplineSet
123 314 m 1,0,1
 186 276 186 276 242.5 223.5 c 128,-1,2
 299 171 299 171 345.5 111 c 128,-1,3
 392 51 392 51 424 -8 c 1,4,-1
 359 -41 l 1,5,6
 318 22 318 22 277.5 72.5 c 128,-1,7
 237 123 237 123 188.5 166 c 128,-1,8
 140 209 140 209 73 250 c 1,9,-1
 123 314 l 1,0,1
78 486 m 0,10,11
 78 527 78 527 96.5 557.5 c 128,-1,12
 115 588 115 588 147 605 c 128,-1,13
 179 622 179 622 219 622 c 256,14,15
 259 622 259 622 291 605 c 128,-1,16
 323 588 323 588 341.5 557.5 c 128,-1,17
 360 527 360 527 360 486 c 256,18,19
 360 445 360 445 341.5 414 c 128,-1,20
 323 383 323 383 291 366 c 128,-1,21
 259 349 259 349 219 349 c 256,22,23
 179 349 179 349 147 366 c 128,-1,24
 115 383 115 383 96.5 413.5 c 128,-1,25
 78 444 78 444 78 486 c 0,10,11
147 486 m 0,26,27
 147 452 147 452 167.5 433 c 128,-1,28
 188 414 188 414 219 414 c 0,29,30
 251 414 251 414 271 433.5 c 128,-1,31
 291 453 291 453 291 486 c 0,32,33
 291 520 291 520 271 538.5 c 128,-1,34
 251 557 251 557 219 557 c 0,35,36
 188 557 188 557 167.5 537.5 c 128,-1,37
 147 518 147 518 147 486 c 0,26,27
EndSplineSet
EndChar

StartChar: visargabeng
Encoding: 2435 2435 7
Width: 438
GlyphClass: 2
Flags: W
AnchorPoint: "Anchor-2" -203 622 basechar 0
LayerCount: 2
Fore
SplineSet
78 486 m 0,0,1
 78 527 78 527 96.5 557.5 c 128,-1,2
 115 588 115 588 147 605 c 128,-1,3
 179 622 179 622 219 622 c 256,4,5
 259 622 259 622 291 605 c 128,-1,6
 323 588 323 588 341.5 557.5 c 128,-1,7
 360 527 360 527 360 486 c 256,8,9
 360 445 360 445 341.5 414 c 128,-1,10
 323 383 323 383 291 366 c 128,-1,11
 259 349 259 349 219 349 c 256,12,13
 179 349 179 349 147 366 c 128,-1,14
 115 383 115 383 96.5 413.5 c 128,-1,15
 78 444 78 444 78 486 c 0,0,1
147 486 m 0,16,17
 147 452 147 452 167.5 433 c 128,-1,18
 188 414 188 414 219 414 c 0,19,20
 251 414 251 414 271 433.5 c 128,-1,21
 291 453 291 453 291 486 c 0,22,23
 291 518 291 518 271 537.5 c 128,-1,24
 251 557 251 557 219 557 c 0,25,26
 188 557 188 557 167.5 537.5 c 128,-1,27
 147 518 147 518 147 486 c 0,16,17
78 137 m 256,28,29
 78 178 78 178 96.5 208.5 c 128,-1,30
 115 239 115 239 147 256 c 128,-1,31
 179 273 179 273 219 273 c 256,32,33
 259 273 259 273 291 256.5 c 128,-1,34
 323 240 323 240 341.5 209.5 c 128,-1,35
 360 179 360 179 360 137 c 0,36,37
 360 96 360 96 341.5 65 c 128,-1,38
 323 34 323 34 291 17 c 128,-1,39
 259 0 259 0 219 0 c 256,40,41
 179 0 179 0 147 17 c 128,-1,42
 115 34 115 34 96.5 65 c 128,-1,43
 78 96 78 96 78 137 c 256,28,29
147 137 m 0,44,45
 147 104 147 104 167.5 84.5 c 128,-1,46
 188 65 188 65 219 65 c 0,47,48
 251 65 251 65 271 84.5 c 128,-1,49
 291 104 291 104 291 137 c 256,50,51
 291 170 291 170 271 189 c 128,-1,52
 251 208 251 208 219 208 c 0,53,54
 188 208 188 208 167.5 188.5 c 128,-1,55
 147 169 147 169 147 137 c 0,44,45
EndSplineSet
EndChar

StartChar: abeng
Encoding: 2437 2437 8
Width: 893
GlyphClass: 2
Flags: W
AnchorPoint: "Anchor-2" 446 622 basechar 0
LayerCount: 2
Fore
SplineSet
903 622 m 1,0,-1
 903 551 l 1,1,-1
 798 551 l 1,2,-1
 798 0 l 1,3,-1
 721 0 l 1,4,5
 692 59 692 59 649 103.5 c 128,-1,6
 606 148 606 148 557 180 c 1,7,-1
 582 246 l 1,8,9
 620 224 620 224 661 186 c 128,-1,10
 702 148 702 148 724 109 c 1,11,12
 723 124 723 124 722.5 137 c 128,-1,13
 722 150 722 150 721.5 164 c 128,-1,14
 721 178 721 178 721 194 c 2,15,-1
 721 551 l 1,16,-1
 -10 551 l 1,17,-1
 -10 622 l 1,18,-1
 903 622 l 1,0,-1
376 91 m 0,19,20
 308 91 308 91 246 123 c 128,-1,21
 184 155 184 155 129.5 231.5 c 128,-1,22
 75 308 75 308 29 442 c 1,23,-1
 102 466 l 1,24,25
 138 362 138 362 177.5 295.5 c 128,-1,26
 217 229 217 229 266 198 c 128,-1,27
 315 167 315 167 378 167 c 0,28,29
 433 167 433 167 466.5 184.5 c 128,-1,30
 500 202 500 202 515 232.5 c 128,-1,31
 530 263 530 263 530 300 c 0,32,33
 530 358 530 358 498.5 394 c 128,-1,34
 467 430 467 430 420 430 c 0,35,36
 387 430 387 430 370 415.5 c 128,-1,37
 353 401 353 401 353 372 c 0,38,39
 353 365 353 365 355 353 c 128,-1,40
 357 341 357 341 361 331 c 1,41,-1
 285 316 l 1,42,43
 278 337 278 337 274.5 354.5 c 128,-1,44
 271 372 271 372 271 388 c 0,45,46
 271 425 271 425 291.5 450 c 128,-1,47
 312 475 312 475 344.5 487.5 c 128,-1,48
 377 500 377 500 413 500 c 0,49,50
 472 500 472 500 515 473.5 c 128,-1,51
 558 447 558 447 582 401 c 128,-1,52
 606 355 606 355 606 294 c 0,53,54
 606 240 606 240 581 193.5 c 128,-1,55
 556 147 556 147 505 119 c 128,-1,56
 454 91 454 91 376 91 c 0,19,20
344 465 m 1,57,58
 339 497 339 497 314.5 521.5 c 128,-1,59
 290 546 290 546 243 556 c 1,60,-1
 267 601 l 1,61,-1
 312 589 l 1,62,63
 369 567 369 567 394 539 c 128,-1,64
 419 511 419 511 423 468 c 1,65,-1
 344 465 l 1,57,58
EndSplineSet
EndChar

StartChar: aabeng
Encoding: 2438 2438 9
Width: 1158
GlyphClass: 2
Flags: W
AnchorPoint: "Anchor-2" 579 622 basechar 0
AnchorPoint: "Anchor-0" 925 622 basechar 0
LayerCount: 2
Fore
SplineSet
898 622 m 1,0,-1
 898 551 l 1,1,-1
 798 551 l 1,2,-1
 798 0 l 1,3,-1
 721 0 l 1,4,5
 692 59 692 59 649 103.5 c 128,-1,6
 606 148 606 148 557 180 c 1,7,-1
 582 246 l 1,8,9
 620 224 620 224 661 186 c 128,-1,10
 702 148 702 148 724 109 c 1,11,12
 723 124 723 124 722.5 137 c 128,-1,13
 722 150 722 150 721.5 164 c 128,-1,14
 721 178 721 178 721 194 c 2,15,-1
 721 551 l 1,16,-1
 -10 551 l 1,17,-1
 -10 622 l 1,18,-1
 898 622 l 1,0,-1
376 91 m 0,19,20
 308 91 308 91 246 123 c 128,-1,21
 184 155 184 155 129.5 231.5 c 128,-1,22
 75 308 75 308 29 442 c 1,23,-1
 102 466 l 1,24,25
 138 362 138 362 177.5 295.5 c 128,-1,26
 217 229 217 229 266 198 c 128,-1,27
 315 167 315 167 378 167 c 0,28,29
 433 167 433 167 466.5 184.5 c 128,-1,30
 500 202 500 202 515 232 c 128,-1,31
 530 262 530 262 530 300 c 0,32,33
 530 358 530 358 498.5 394 c 128,-1,34
 467 430 467 430 420 430 c 0,35,36
 387 430 387 430 370 415.5 c 128,-1,37
 353 401 353 401 353 372 c 0,38,39
 353 365 353 365 355 353 c 128,-1,40
 357 341 357 341 361 331 c 1,41,-1
 285 316 l 1,42,43
 278 337 278 337 274.5 354.5 c 128,-1,44
 271 372 271 372 271 388 c 0,45,46
 271 425 271 425 291.5 450 c 128,-1,47
 312 475 312 475 344.5 487.5 c 128,-1,48
 377 500 377 500 413 500 c 0,49,50
 472 500 472 500 515 473.5 c 128,-1,51
 558 447 558 447 582 401 c 128,-1,52
 606 355 606 355 606 294 c 0,53,54
 606 240 606 240 581 193.5 c 128,-1,55
 556 147 556 147 505 119 c 128,-1,56
 454 91 454 91 376 91 c 0,19,20
344 465 m 1,57,58
 339 497 339 497 314.5 521.5 c 128,-1,59
 290 546 290 546 243 556 c 1,60,-1
 267 601 l 1,61,-1
 312 589 l 1,62,63
 369 567 369 567 394 539 c 128,-1,64
 419 511 419 511 423 468 c 1,65,-1
 344 465 l 1,57,58
1168 622 m 1,66,-1
 1168 551 l 1,67,-1
 1063 551 l 1,68,-1
 1063 0 l 1,69,-1
 986 0 l 1,70,-1
 986 479 l 1,71,72
 969 518 969 518 947.5 534.5 c 128,-1,73
 926 551 926 551 897 551 c 2,74,-1
 887 551 l 1,75,-1
 887 622 l 1,76,-1
 897 622 l 2,77,78
 925 622 925 622 949.5 606.5 c 128,-1,79
 974 591 974 591 990 559 c 1,80,81
 989 564 989 564 987.5 582 c 128,-1,82
 986 600 986 600 986 613 c 2,83,-1
 986 688 l 1,84,-1
 1039 688 l 1,85,-1
 1062 622 l 1,86,-1
 1168 622 l 1,66,-1
EndSplineSet
EndChar

StartChar: ibeng
Encoding: 2439 2439 10
Width: 530
GlyphClass: 2
Flags: W
AnchorPoint: "Anchor-2" 265 622 basechar 0
LayerCount: 2
Fore
SplineSet
358 622 m 1,0,1
 357 663 357 663 338.5 681 c 128,-1,2
 320 699 320 699 278 699 c 2,3,-1
 206 699 l 2,4,5
 140 699 140 699 104.5 708 c 128,-1,6
 69 717 69 717 44 736 c 0,7,8
 17 756 17 756 3.5 787.5 c 128,-1,9
 -10 819 -10 819 -10 859 c 0,10,11
 -10 872 -10 872 -8.5 885 c 128,-1,12
 -7 898 -7 898 -5 912 c 1,13,-1
 69 907 l 1,14,15
 67 895 67 895 66 886 c 128,-1,16
 65 877 65 877 65 869 c 0,17,18
 65 847 65 847 69.5 830 c 128,-1,19
 74 813 74 813 84 802 c 0,20,21
 98 786 98 786 124.5 778.5 c 128,-1,22
 151 771 151 771 200 771 c 2,23,-1
 257 771 l 2,24,25
 310 771 310 771 341 763 c 128,-1,26
 372 755 372 755 394 734 c 0,27,28
 411 718 411 718 420 690.5 c 128,-1,29
 429 663 429 663 430 622 c 1,30,-1
 358 622 l 1,0,1
242 500 m 0,31,32
 321 500 321 500 369.5 473.5 c 128,-1,33
 418 447 418 447 441 406.5 c 128,-1,34
 464 366 464 366 464 325 c 0,35,36
 464 243 464 243 406.5 195 c 128,-1,37
 349 147 349 147 236 141 c 1,38,-1
 246 152 l 1,39,40
 291 139 291 139 341 115 c 128,-1,41
 391 91 391 91 442 59.5 c 128,-1,42
 493 28 493 28 540 -10 c 1,43,-1
 494 -63 l 1,44,45
 432 -17 432 -17 380.5 16.5 c 128,-1,46
 329 50 329 50 279 75 c 128,-1,47
 229 100 229 100 173 119 c 128,-1,48
 117 138 117 138 46 154 c 1,49,-1
 61 223 l 1,50,51
 96 213 96 213 128.5 208.5 c 128,-1,52
 161 204 161 204 207 204 c 0,53,54
 278 204 278 204 316.5 221 c 128,-1,55
 355 238 355 238 370 265 c 128,-1,56
 385 292 385 292 385 320 c 0,57,58
 385 373 385 373 346 401.5 c 128,-1,59
 307 430 307 430 247 430 c 0,60,61
 211 430 211 430 189 423 c 128,-1,62
 167 416 167 416 157.5 402.5 c 128,-1,63
 148 389 148 389 148 370 c 0,64,65
 148 362 148 362 150 353.5 c 128,-1,66
 152 345 152 345 154 338 c 1,67,-1
 81 323 l 1,68,69
 76 338 76 338 73 354.5 c 128,-1,70
 70 371 70 371 70 384 c 0,71,72
 70 421 70 421 92 447 c 128,-1,73
 114 473 114 473 152.5 486.5 c 128,-1,74
 191 500 191 500 242 500 c 0,31,32
175 465 m 1,75,76
 170 497 170 497 145 521.5 c 128,-1,77
 120 546 120 546 73 556 c 1,78,-1
 97 601 l 1,79,-1
 143 589 l 1,80,81
 199 567 199 567 224.5 539 c 128,-1,82
 250 511 250 511 254 468 c 1,83,-1
 175 465 l 1,75,76
540 622 m 1,84,-1
 540 551 l 1,85,-1
 -10 551 l 1,86,-1
 -10 622 l 1,87,-1
 540 622 l 1,84,-1
EndSplineSet
EndChar

StartChar: iibeng
Encoding: 2440 2440 11
Width: 689
GlyphClass: 2
Flags: W
AnchorPoint: "Anchor-2" 344 622 basechar 0
LayerCount: 2
Fore
SplineSet
212 91 m 0,0,1
 176 91 176 91 144 114 c 128,-1,2
 112 137 112 137 82 185 c 1,3,-1
 140 222 l 1,4,5
 160 191 160 191 174.5 179 c 128,-1,6
 189 167 189 167 208 167 c 0,7,8
 225 167 225 167 241.5 178.5 c 128,-1,9
 258 190 258 190 283 223 c 0,10,11
 301 247 301 247 309.5 267.5 c 128,-1,12
 318 288 318 288 318 310 c 0,13,14
 318 341 318 341 305 368.5 c 128,-1,15
 292 396 292 396 266.5 413.5 c 128,-1,16
 241 431 241 431 204 431 c 0,17,18
 172 431 172 431 157 417 c 128,-1,19
 142 403 142 403 142 381 c 0,20,21
 142 369 142 369 145 358.5 c 128,-1,22
 148 348 148 348 152 337 c 1,23,-1
 80 320 l 1,24,25
 70 341 70 341 66.5 360 c 128,-1,26
 63 379 63 379 63 393 c 0,27,28
 63 431 63 431 83 454.5 c 128,-1,29
 103 478 103 478 135 489 c 128,-1,30
 167 500 167 500 202 500 c 0,31,32
 261 500 261 500 301.5 476 c 128,-1,33
 342 452 342 452 363.5 409.5 c 128,-1,34
 385 367 385 367 385 311 c 0,35,36
 385 305 385 305 384.5 297.5 c 128,-1,37
 384 290 384 290 383 285 c 1,38,-1
 330 271 l 1,39,40
 353 308 353 308 381 344 c 128,-1,41
 409 380 409 380 450.5 414 c 128,-1,42
 492 448 492 448 554 477 c 1,43,-1
 625 413 l 1,44,45
 597 361 597 361 585 313 c 128,-1,46
 573 265 573 265 573 201 c 0,47,48
 573 153 573 153 581.5 109 c 128,-1,49
 590 65 590 65 608 10 c 1,50,-1
 533 -7 l 1,51,52
 516 49 516 49 505.5 104 c 128,-1,53
 495 159 495 159 495 217 c 0,54,55
 495 270 495 270 504.5 315.5 c 128,-1,56
 514 361 514 361 537 401 c 1,57,-1
 575 413 l 1,58,59
 549 399 549 399 525.5 384.5 c 128,-1,60
 502 370 502 370 477.5 349.5 c 128,-1,61
 453 329 453 329 425 296.5 c 128,-1,62
 397 264 397 264 362 213 c 0,63,64
 332 169 332 169 309.5 142 c 128,-1,65
 287 115 287 115 265 103 c 128,-1,66
 243 91 243 91 212 91 c 0,0,1
699 622 m 1,67,-1
 699 551 l 1,68,-1
 -10 551 l 1,69,-1
 -10 622 l 1,70,-1
 699 622 l 1,67,-1
148 465 m 1,71,72
 143 497 143 497 118 521.5 c 128,-1,73
 93 546 93 546 46 556 c 1,74,-1
 70 601 l 1,75,-1
 116 589 l 1,76,77
 172 567 172 567 197.5 539 c 128,-1,78
 223 511 223 511 227 468 c 1,79,-1
 148 465 l 1,71,72
478 622 m 1,80,81
 477 663 477 663 458.5 681 c 128,-1,82
 440 699 440 699 398 699 c 2,83,-1
 262 699 l 2,84,85
 196 699 196 699 160.5 708 c 128,-1,86
 125 717 125 717 100 736 c 0,87,88
 73 756 73 756 59.5 787.5 c 128,-1,89
 46 819 46 819 46 859 c 0,90,91
 46 872 46 872 47.5 885 c 128,-1,92
 49 898 49 898 51 912 c 1,93,-1
 125 907 l 1,94,95
 123 895 123 895 122 886 c 128,-1,96
 121 877 121 877 121 869 c 0,97,98
 121 847 121 847 125.5 830 c 128,-1,99
 130 813 130 813 140 802 c 0,100,101
 154 786 154 786 180.5 778.5 c 128,-1,102
 207 771 207 771 256 771 c 2,103,-1
 376 771 l 2,104,105
 429 771 429 771 461 763 c 128,-1,106
 493 755 493 755 514 734 c 0,107,108
 531 718 531 718 540 690.5 c 128,-1,109
 549 663 549 663 550 622 c 1,110,-1
 478 622 l 1,80,81
EndSplineSet
EndChar

StartChar: ubeng
Encoding: 2441 2441 12
Width: 712
GlyphClass: 2
Flags: W
AnchorPoint: "Anchor-2" 356 622 basechar 0
LayerCount: 2
Fore
SplineSet
508 622 m 1,0,1
 507 663 507 663 488.5 681 c 128,-1,2
 470 699 470 699 428 699 c 2,3,-1
 288 699 l 2,4,5
 223 699 223 699 187.5 708 c 128,-1,6
 152 717 152 717 127 736 c 0,7,8
 100 756 100 756 86.5 787.5 c 128,-1,9
 73 819 73 819 73 859 c 0,10,11
 73 872 73 872 74.5 885 c 128,-1,12
 76 898 76 898 78 912 c 1,13,-1
 152 907 l 1,14,15
 150 895 150 895 149 886 c 128,-1,16
 148 877 148 877 148 869 c 0,17,18
 148 847 148 847 152.5 830 c 128,-1,19
 157 813 157 813 167 802 c 0,20,21
 181 786 181 786 207 778.5 c 128,-1,22
 233 771 233 771 283 771 c 2,23,-1
 407 771 l 2,24,25
 460 771 460 771 491 763 c 128,-1,26
 522 755 522 755 544 734 c 0,27,28
 561 718 561 718 570 690.5 c 128,-1,29
 579 663 579 663 580 622 c 1,30,-1
 508 622 l 1,0,1
722 622 m 1,31,-1
 722 551 l 1,32,-1
 356 551 l 1,33,-1
 356 372 l 2,34,35
 356 343 356 343 365 329.5 c 128,-1,36
 374 316 374 316 393 316 c 256,37,38
 412 316 412 316 432.5 328 c 128,-1,39
 453 340 453 340 477 366 c 128,-1,40
 501 392 501 392 529 433 c 1,41,-1
 589 442 l 1,42,43
 621 395 621 395 638.5 345 c 128,-1,44
 656 295 656 295 656 245 c 0,45,46
 656 182 656 182 628.5 132 c 128,-1,47
 601 82 601 82 547.5 53 c 128,-1,48
 494 24 494 24 417 24 c 0,49,50
 351 24 351 24 294 47 c 128,-1,51
 237 70 237 70 189 121.5 c 128,-1,52
 141 173 141 173 101 257.5 c 128,-1,53
 61 342 61 342 29 465 c 1,54,-1
 105 485 l 1,55,56
 141 346 141 346 184.5 261.5 c 128,-1,57
 228 177 228 177 284 138.5 c 128,-1,58
 340 100 340 100 413 100 c 0,59,60
 493 100 493 100 536.5 140 c 128,-1,61
 580 180 580 180 580 243 c 0,62,63
 580 288 580 288 567.5 320 c 128,-1,64
 555 352 555 352 535 373 c 1,65,-1
 581 392 l 1,66,67
 551 341 551 341 519.5 308 c 128,-1,68
 488 275 488 275 456.5 258.5 c 128,-1,69
 425 242 425 242 394 242 c 0,70,71
 371 242 371 242 351 248.5 c 128,-1,72
 331 255 331 255 317 268 c 0,73,74
 301 282 301 282 290 307.5 c 128,-1,75
 279 333 279 333 279 393 c 2,76,-1
 279 551 l 1,77,-1
 -10 551 l 1,78,-1
 -10 622 l 1,79,-1
 722 622 l 1,31,-1
EndSplineSet
EndChar

StartChar: uubeng
Encoding: 2442 2442 13
Width: 853
GlyphClass: 2
Flags: W
AnchorPoint: "Anchor-2" 426 622 basechar 0
LayerCount: 2
Fore
SplineSet
863 622 m 1,0,-1
 863 551 l 1,1,-1
 496 551 l 1,2,-1
 496 372 l 2,3,4
 496 343 496 343 505 329.5 c 128,-1,5
 514 316 514 316 533 316 c 256,6,7
 552 316 552 316 572.5 328 c 128,-1,8
 593 340 593 340 617 366 c 128,-1,9
 641 392 641 392 669 433 c 1,10,-1
 729 442 l 1,11,12
 761 395 761 395 778.5 345 c 128,-1,13
 796 295 796 295 796 245 c 0,14,15
 796 184 796 184 770 134 c 128,-1,16
 744 84 744 84 689 54 c 128,-1,17
 634 24 634 24 548 24 c 0,18,19
 439 24 439 24 343.5 61 c 128,-1,20
 248 98 248 98 169 188 c 128,-1,21
 90 278 90 278 29 435 c 1,22,-1
 104 458 l 1,23,24
 130 385 130 385 163.5 321 c 128,-1,25
 197 257 197 257 246.5 203 c 128,-1,26
 296 149 296 149 369 106 c 1,27,-1
 372 109 l 1,28,29
 331 147 331 147 298 200.5 c 128,-1,30
 265 254 265 254 240.5 316.5 c 128,-1,31
 216 379 216 379 199 440 c 1,32,-1
 274 461 l 1,33,34
 299 367 299 367 326 298.5 c 128,-1,35
 353 230 353 230 385.5 186 c 128,-1,36
 418 142 418 142 459.5 121 c 128,-1,37
 501 100 501 100 555 100 c 0,38,39
 612 100 612 100 648.5 120 c 128,-1,40
 685 140 685 140 702.5 172.5 c 128,-1,41
 720 205 720 205 720 244 c 0,42,43
 720 290 720 290 707 320.5 c 128,-1,44
 694 351 694 351 680 368 c 1,45,-1
 707 370 l 1,46,47
 685 336 685 336 657.5 306.5 c 128,-1,48
 630 277 630 277 599 259.5 c 128,-1,49
 568 242 568 242 534 242 c 0,50,51
 511 242 511 242 491 248.5 c 128,-1,52
 471 255 471 255 457 268 c 0,53,54
 441 282 441 282 430 307.5 c 128,-1,55
 419 333 419 333 419 393 c 2,56,-1
 419 551 l 1,57,-1
 -10 551 l 1,58,-1
 -10 622 l 1,59,-1
 863 622 l 1,0,-1
649 622 m 1,60,61
 648 663 648 663 629.5 681 c 128,-1,62
 611 699 611 699 569 699 c 2,63,-1
 384 699 l 2,64,65
 318 699 318 699 282.5 708 c 128,-1,66
 247 717 247 717 222 736 c 0,67,68
 195 756 195 756 181.5 787.5 c 128,-1,69
 168 819 168 819 168 859 c 0,70,71
 168 872 168 872 169.5 885 c 128,-1,72
 171 898 171 898 173 912 c 1,73,-1
 247 907 l 1,74,75
 245 896 245 896 244 886.5 c 128,-1,76
 243 877 243 877 243 869 c 0,77,78
 243 847 243 847 247.5 830 c 128,-1,79
 252 813 252 813 262 802 c 0,80,81
 276 786 276 786 302.5 778.5 c 128,-1,82
 329 771 329 771 378 771 c 2,83,-1
 548 771 l 2,84,85
 601 771 601 771 632 763 c 128,-1,86
 663 755 663 755 685 734 c 0,87,88
 702 718 702 718 711 690.5 c 128,-1,89
 720 663 720 663 721 622 c 1,90,-1
 649 622 l 1,60,61
EndSplineSet
EndChar

StartChar: rvocalicbeng
Encoding: 2443 2443 14
Width: 853
GlyphClass: 2
Flags: W
AnchorPoint: "Anchor-2" 426 622 basechar 0
LayerCount: 2
Fore
SplineSet
530 688 m 1,0,-1
 554 622 l 1,1,-1
 554 0 l 1,2,-1
 477 0 l 1,3,4
 449 53 449 53 400.5 100 c 128,-1,5
 352 147 352 147 289.5 180 c 128,-1,6
 227 213 227 213 155 224 c 1,7,-1
 116 316 l 1,8,9
 202 365 202 365 293 407 c 128,-1,10
 384 449 384 449 477 477 c 1,11,-1
 477 688 l 1,12,-1
 530 688 l 1,0,-1
477 402 m 1,13,14
 434 388 434 388 388 369.5 c 128,-1,15
 342 351 342 351 296.5 329.5 c 128,-1,16
 251 308 251 308 209 284 c 1,17,18
 255 274 255 274 307.5 249 c 128,-1,19
 360 224 360 224 406.5 188.5 c 128,-1,20
 453 153 453 153 480 108 c 1,21,22
 479 125 479 125 478 143.5 c 128,-1,23
 477 162 477 162 477 187 c 2,24,-1
 477 402 l 1,13,14
417 455 m 1,25,26
 407 476 407 476 391.5 497.5 c 128,-1,27
 376 519 376 519 358 539 c 128,-1,28
 340 559 340 559 320 573 c 1,29,-1
 374 625 l 1,30,31
 402 598 402 598 431 557 c 128,-1,32
 460 516 460 516 479 474 c 1,33,-1
 417 455 l 1,25,26
183 430 m 0,34,35
 122 430 122 430 85.5 461.5 c 128,-1,36
 49 493 49 493 49 548 c 0,37,38
 49 571 49 571 55.5 592 c 128,-1,39
 62 613 62 613 71 628 c 1,40,-1
 147 607 l 1,41,42
 140 597 140 597 135 582.5 c 128,-1,43
 130 568 130 568 130 552 c 0,44,45
 130 526 130 526 144.5 513.5 c 128,-1,46
 159 501 159 501 182 501 c 0,47,48
 202 501 202 501 224 509 c 128,-1,49
 246 517 246 517 269.5 541 c 128,-1,50
 293 565 293 565 316 612 c 1,51,-1
 374 625 l 1,52,-1
 378 574 l 1,53,54
 357 534 357 534 328 501 c 128,-1,55
 299 468 299 468 263 449 c 128,-1,56
 227 430 227 430 183 430 c 0,34,35
738 688 m 1,57,-1
 762 622 l 1,58,-1
 762 73 l 1,59,-1
 685 73 l 1,60,61
 666 113 666 113 639.5 146 c 128,-1,62
 613 179 613 179 583 206.5 c 128,-1,63
 553 234 553 234 521 255 c 1,64,-1
 546 318 l 1,65,66
 575 302 575 302 605 275.5 c 128,-1,67
 635 249 635 249 660 218.5 c 128,-1,68
 685 188 685 188 697 160 c 1,69,-1
 690 157 l 1,70,71
 688 180 688 180 686.5 202.5 c 128,-1,72
 685 225 685 225 685 257 c 2,73,-1
 685 688 l 1,74,-1
 738 688 l 1,57,-1
EndSplineSet
EndChar

StartChar: lvocalicbeng
Encoding: 2444 2444 15
Width: 639
GlyphClass: 2
Flags: W
AnchorPoint: "Anchor-2" 319 622 basechar 0
AnchorPoint: "Anchor-0" 329 622 basechar 0
LayerCount: 2
Fore
SplineSet
204 315 m 0,0,1
 252 315 252 315 289 298 c 128,-1,2
 326 281 326 281 347.5 250.5 c 128,-1,3
 369 220 369 220 369 181 c 256,4,5
 369 142 369 142 356 114.5 c 128,-1,6
 343 87 343 87 314 62 c 1,7,-1
 312 72 l 1,8,9
 406 82 406 82 459 119.5 c 128,-1,10
 512 157 512 157 512 221 c 0,11,12
 512 257 512 257 494.5 284.5 c 128,-1,13
 477 312 477 312 431 338 c 128,-1,14
 385 364 385 364 298 394 c 0,15,16
 206 426 206 426 155 452 c 128,-1,17
 104 478 104 478 83.5 507 c 128,-1,18
 63 536 63 536 63 576 c 0,19,20
 63 611 63 611 84 642.5 c 128,-1,21
 105 674 105 674 141 706 c 1,22,-1
 195 665 l 1,23,24
 168 640 168 640 156 622 c 128,-1,25
 144 604 144 604 144 588 c 0,26,27
 144 573 144 573 150 560 c 128,-1,28
 156 547 156 547 175.5 533 c 128,-1,29
 195 519 195 519 234.5 502.5 c 128,-1,30
 274 486 274 486 341 464 c 0,31,32
 420 438 420 438 469.5 411 c 128,-1,33
 519 384 519 384 546 355 c 128,-1,34
 573 326 573 326 583.5 293 c 128,-1,35
 594 260 594 260 594 222 c 0,36,37
 594 161 594 161 565 118.5 c 128,-1,38
 536 76 536 76 486.5 50 c 128,-1,39
 437 24 437 24 373 12 c 128,-1,40
 309 0 309 0 238 0 c 2,41,-1
 219 0 l 1,42,-1
 196 68 l 1,43,44
 242 84 242 84 267 108 c 128,-1,45
 292 132 292 132 292 169 c 0,46,47
 292 203 292 203 271 224 c 128,-1,48
 250 245 250 245 207 245 c 0,49,50
 170 245 170 245 153.5 231 c 128,-1,51
 137 217 137 217 137 196 c 0,52,53
 137 186 137 186 140 174 c 128,-1,54
 143 162 143 162 148 152 c 1,55,-1
 73 135 l 1,56,57
 65 153 65 153 60.5 170.5 c 128,-1,58
 56 188 56 188 56 207 c 0,59,60
 56 255 56 255 93.5 285 c 128,-1,61
 131 315 131 315 204 315 c 0,0,1
EndSplineSet
EndChar

StartChar: ebeng
Encoding: 2447 2447 16
Width: 758
GlyphClass: 2
Flags: W
AnchorPoint: "Anchor-2" 379 622 basechar 0
AnchorPoint: "Anchor-0" 475 622 basechar 0
LayerCount: 2
Fore
SplineSet
511 628 m 0,0,1
 552 628 552 628 579.5 619.5 c 128,-1,2
 607 611 607 611 626 594 c 0,3,4
 645 578 645 578 656 554.5 c 128,-1,5
 667 531 667 531 667 490 c 2,6,-1
 667 0 l 1,7,-1
 592 0 l 1,8,9
 584 30 584 30 569 49 c 128,-1,10
 554 68 554 68 532.5 77.5 c 128,-1,11
 511 87 511 87 481 87 c 0,12,13
 445 87 445 87 414 83 c 128,-1,14
 383 79 383 79 349.5 74.5 c 128,-1,15
 316 70 316 70 272 70 c 0,16,17
 238 70 238 70 199 77.5 c 128,-1,18
 160 85 160 85 125 106 c 128,-1,19
 90 127 90 127 68 168.5 c 128,-1,20
 46 210 46 210 46 278 c 0,21,22
 46 302 46 302 50 328.5 c 128,-1,23
 54 355 54 355 58 377 c 1,24,-1
 135 366 l 1,25,26
 131 351 131 351 127.5 330 c 128,-1,27
 124 309 124 309 124 280 c 0,28,29
 124 236 124 236 137 209 c 128,-1,30
 150 182 150 182 172 168 c 128,-1,31
 194 154 194 154 221 149 c 128,-1,32
 248 144 248 144 276 144 c 0,33,34
 326 144 326 144 367.5 152.5 c 128,-1,35
 409 161 409 161 461 161 c 0,36,37
 504 161 504 161 536 148.5 c 128,-1,38
 568 136 568 136 590 106 c 1,39,-1
 590 463 l 2,40,41
 590 500 590 500 585 516 c 128,-1,42
 580 532 580 532 569 542 c 0,43,44
 551 557 551 557 514 557 c 0,45,46
 478 557 478 557 445.5 541 c 128,-1,47
 413 525 413 525 387.5 500 c 128,-1,48
 362 475 362 475 347.5 446.5 c 128,-1,49
 333 418 333 418 333 393 c 0,50,51
 333 383 333 383 337 372 c 128,-1,52
 341 361 341 361 354 353 c 128,-1,53
 367 345 367 345 392 345 c 0,54,55
 403 345 403 345 413 346 c 128,-1,56
 423 347 423 347 434 348 c 1,57,-1
 441 278 l 1,58,59
 431 274 431 274 414.5 272 c 128,-1,60
 398 270 398 270 376 270 c 0,61,62
 327 270 327 270 290.5 300 c 128,-1,63
 254 330 254 330 254 392 c 0,64,65
 254 432 254 432 274.5 473.5 c 128,-1,66
 295 515 295 515 331 550 c 128,-1,67
 367 585 367 585 413.5 606.5 c 128,-1,68
 460 628 460 628 511 628 c 0,0,1
EndSplineSet
EndChar

StartChar: aibeng
Encoding: 2448 2448 17
Width: 873
GlyphClass: 2
Flags: W
AnchorPoint: "Anchor-2" 436 622 basechar 0
LayerCount: 2
Fore
SplineSet
511 628 m 0,0,1
 552 628 552 628 579.5 619.5 c 128,-1,2
 607 611 607 611 626 594 c 0,3,4
 645 578 645 578 656 554.5 c 128,-1,5
 667 531 667 531 667 490 c 2,6,-1
 667 0 l 1,7,-1
 592 0 l 1,8,9
 584 30 584 30 569 49 c 128,-1,10
 554 68 554 68 532.5 77.5 c 128,-1,11
 511 87 511 87 481 87 c 0,12,13
 445 87 445 87 414 83 c 128,-1,14
 383 79 383 79 349.5 74.5 c 128,-1,15
 316 70 316 70 272 70 c 0,16,17
 238 70 238 70 199 77.5 c 128,-1,18
 160 85 160 85 125 106 c 128,-1,19
 90 127 90 127 68 168.5 c 128,-1,20
 46 210 46 210 46 278 c 0,21,22
 46 302 46 302 50 328.5 c 128,-1,23
 54 355 54 355 58 377 c 1,24,-1
 135 366 l 1,25,26
 131 351 131 351 127.5 330 c 128,-1,27
 124 309 124 309 124 280 c 0,28,29
 124 236 124 236 137 209 c 128,-1,30
 150 182 150 182 172 168 c 128,-1,31
 194 154 194 154 221 149 c 128,-1,32
 248 144 248 144 276 144 c 0,33,34
 326 144 326 144 367.5 152.5 c 128,-1,35
 409 161 409 161 461 161 c 0,36,37
 504 161 504 161 536 148.5 c 128,-1,38
 568 136 568 136 590 106 c 1,39,-1
 590 463 l 2,40,41
 590 500 590 500 585 516 c 128,-1,42
 580 532 580 532 569 542 c 0,43,44
 551 557 551 557 514 557 c 0,45,46
 478 557 478 557 445.5 541 c 128,-1,47
 413 525 413 525 387.5 500 c 128,-1,48
 362 475 362 475 347.5 446.5 c 128,-1,49
 333 418 333 418 333 393 c 0,50,51
 333 383 333 383 337 372 c 128,-1,52
 341 361 341 361 354 353 c 128,-1,53
 367 345 367 345 392 345 c 0,54,55
 403 345 403 345 413 346 c 128,-1,56
 423 347 423 347 434 348 c 1,57,-1
 441 278 l 1,58,59
 431 274 431 274 414.5 272 c 128,-1,60
 398 270 398 270 376 270 c 0,61,62
 327 270 327 270 290.5 300 c 128,-1,63
 254 330 254 330 254 392 c 0,64,65
 254 432 254 432 274.5 473.5 c 128,-1,66
 295 515 295 515 331 550 c 128,-1,67
 367 585 367 585 413.5 606.5 c 128,-1,68
 460 628 460 628 511 628 c 0,0,1
831 575 m 0,69,70
 831 521 831 521 807 482.5 c 128,-1,71
 783 444 783 444 743.5 417 c 128,-1,72
 704 390 704 390 657 370 c 1,73,-1
 657 449 l 1,74,75
 681 460 681 460 703 476 c 128,-1,76
 725 492 725 492 739 516 c 128,-1,77
 753 540 753 540 753 573 c 0,78,79
 753 598 753 598 744.5 616.5 c 128,-1,80
 736 635 736 635 720 649 c 0,81,82
 701 665 701 665 670.5 675.5 c 128,-1,83
 640 686 640 686 586 693 c 2,84,-1
 482 707 l 2,85,86
 420 716 420 716 381 736 c 128,-1,87
 342 756 342 756 323.5 790 c 128,-1,88
 305 824 305 824 305 875 c 0,89,90
 305 884 305 884 306.5 896 c 128,-1,91
 308 908 308 908 309 917 c 1,92,-1
 383 913 l 1,93,94
 382 906 382 906 381 896 c 128,-1,95
 380 886 380 886 380 878 c 0,96,97
 380 858 380 858 385 842.5 c 128,-1,98
 390 827 390 827 400 814 c 0,99,100
 411 802 411 802 428.5 794.5 c 128,-1,101
 446 787 446 787 474 783 c 2,102,-1
 605 765 l 2,103,104
 649 759 649 759 681.5 750.5 c 128,-1,105
 714 742 714 742 738 730 c 128,-1,106
 762 718 762 718 779 702 c 0,107,108
 804 679 804 679 817.5 646.5 c 128,-1,109
 831 614 831 614 831 575 c 0,69,70
EndSplineSet
EndChar

StartChar: obeng
Encoding: 2451 2451 18
Width: 738
GlyphClass: 2
Flags: W
AnchorPoint: "Anchor-2" 369 622 basechar 0
AnchorPoint: "Anchor-0" 425 622 basechar 0
LayerCount: 2
Fore
SplineSet
509 629 m 0,0,1
 586 629 586 629 628.5 590 c 128,-1,2
 671 551 671 551 671 483 c 0,3,4
 671 435 671 435 646.5 397 c 128,-1,5
 622 359 622 359 579 331 c 128,-1,6
 536 303 536 303 480 282 c 1,7,-1
 449 354 l 1,8,9
 516 376 516 376 553.5 405.5 c 128,-1,10
 591 435 591 435 591 482 c 0,11,12
 591 519 591 519 570 538.5 c 128,-1,13
 549 558 549 558 509 558 c 0,14,15
 473 558 473 558 441 546 c 128,-1,16
 409 534 409 534 384 515.5 c 128,-1,17
 359 497 359 497 345 476.5 c 128,-1,18
 331 456 331 456 331 439 c 0,19,20
 331 423 331 423 341 411.5 c 128,-1,21
 351 400 351 400 386 395 c 1,22,-1
 365 321 l 1,23,24
 308 332 308 332 279.5 360 c 128,-1,25
 251 388 251 388 251 431 c 0,26,27
 251 465 251 465 271.5 499.5 c 128,-1,28
 292 534 292 534 328 563.5 c 128,-1,29
 364 593 364 593 410.5 611 c 128,-1,30
 457 629 457 629 509 629 c 0,0,1
681 225 m 0,31,32
 681 142 681 142 619.5 92 c 128,-1,33
 558 42 558 42 453 42 c 0,34,35
 383 42 383 42 320 67 c 128,-1,36
 257 92 257 92 203.5 147 c 128,-1,37
 150 202 150 202 105.5 291 c 128,-1,38
 61 380 61 380 28 507 c 1,39,-1
 103 529 l 1,40,41
 143 386 143 386 192.5 295 c 128,-1,42
 242 204 242 204 306.5 161 c 128,-1,43
 371 118 371 118 455 118 c 0,44,45
 518 118 518 118 559 144.5 c 128,-1,46
 600 171 600 171 600 228 c 0,47,48
 600 267 600 267 574.5 294 c 128,-1,49
 549 321 549 321 509 338 c 1,50,-1
 589 373 l 1,51,52
 633 349 633 349 657 311 c 128,-1,53
 681 273 681 273 681 225 c 0,31,32
EndSplineSet
EndChar

StartChar: aubeng
Encoding: 2452 2452 19
Width: 874
GlyphClass: 2
Flags: W
AnchorPoint: "Anchor-2" 437 622 basechar 0
LayerCount: 2
Fore
SplineSet
509 629 m 0,0,1
 586 629 586 629 628 590.5 c 128,-1,2
 670 552 670 552 670 488 c 0,3,4
 670 465 670 465 659.5 443.5 c 128,-1,5
 649 422 649 422 632 402 c 1,6,-1
 635 381 l 1,7,8
 610 349 610 349 570 325 c 128,-1,9
 530 301 530 301 480 282 c 1,10,-1
 449 354 l 1,11,12
 516 376 516 376 553.5 405.5 c 128,-1,13
 591 435 591 435 591 482 c 0,14,15
 591 519 591 519 570 538.5 c 128,-1,16
 549 558 549 558 509 558 c 0,17,18
 473 558 473 558 441 546 c 128,-1,19
 409 534 409 534 384 515.5 c 128,-1,20
 359 497 359 497 345 476.5 c 128,-1,21
 331 456 331 456 331 439 c 0,22,23
 331 423 331 423 341 411.5 c 128,-1,24
 351 400 351 400 386 395 c 1,25,-1
 365 321 l 1,26,27
 308 332 308 332 279.5 360 c 128,-1,28
 251 388 251 388 251 431 c 0,29,30
 251 465 251 465 271.5 499.5 c 128,-1,31
 292 534 292 534 328 563.5 c 128,-1,32
 364 593 364 593 410.5 611 c 128,-1,33
 457 629 457 629 509 629 c 0,0,1
681 225 m 0,34,35
 681 142 681 142 619.5 92 c 128,-1,36
 558 42 558 42 453 42 c 0,37,38
 383 42 383 42 320 67 c 128,-1,39
 257 92 257 92 203.5 147 c 128,-1,40
 150 202 150 202 105.5 291 c 128,-1,41
 61 380 61 380 28 507 c 1,42,-1
 103 529 l 1,43,44
 143 386 143 386 192.5 295 c 128,-1,45
 242 204 242 204 306.5 161 c 128,-1,46
 371 118 371 118 455 118 c 0,47,48
 518 118 518 118 559 144.5 c 128,-1,49
 600 171 600 171 600 228 c 0,50,51
 600 267 600 267 574.5 294 c 128,-1,52
 549 321 549 321 509 338 c 1,53,-1
 589 373 l 1,54,55
 633 349 633 349 657 311 c 128,-1,56
 681 273 681 273 681 225 c 0,34,35
832 577 m 0,57,58
 832 519 832 519 802.5 476.5 c 128,-1,59
 773 434 773 434 720.5 402.5 c 128,-1,60
 668 371 668 371 597 343 c 1,61,-1
 651 439 l 1,62,63
 678 453 678 453 701.5 471.5 c 128,-1,64
 725 490 725 490 739.5 514.5 c 128,-1,65
 754 539 754 539 754 570 c 0,66,67
 754 596 754 596 746 614 c 128,-1,68
 738 632 738 632 724 646 c 0,69,70
 706 664 706 664 675 674.5 c 128,-1,71
 644 685 644 685 600 691 c 2,72,-1
 482 707 l 2,73,74
 419 716 419 716 380 736 c 128,-1,75
 341 756 341 756 323 790 c 128,-1,76
 305 824 305 824 305 875 c 0,77,78
 305 883 305 883 306.5 895 c 128,-1,79
 308 907 308 907 309 917 c 1,80,-1
 383 913 l 1,81,82
 382 904 382 904 381 895 c 128,-1,83
 380 886 380 886 380 878 c 0,84,85
 380 858 380 858 385 842.5 c 128,-1,86
 390 827 390 827 400 814 c 0,87,88
 411 802 411 802 429.5 794 c 128,-1,89
 448 786 448 786 484 781 c 2,90,-1
 625 762 l 2,91,92
 660 758 660 758 686.5 751 c 128,-1,93
 713 744 713 744 733.5 734 c 128,-1,94
 754 724 754 724 771 710 c 0,95,96
 801 687 801 687 816.5 653 c 128,-1,97
 832 619 832 619 832 577 c 0,57,58
EndSplineSet
EndChar

StartChar: kabeng
Encoding: 2453 2453 20
Width: 807
GlyphClass: 2
Flags: W
AnchorPoint: "Anchor-2" 453 622 basechar 0
AnchorPoint: "Anchor-1" 415 0 basechar 0
AnchorPoint: "Anchor-0" 415 622 basechar 0
LayerCount: 2
Fore
SplineSet
817 622 m 1,0,-1
 817 551 l 1,1,-1
 492 551 l 1,2,-1
 492 489 l 1,3,-1
 492 473 l 1,4,-1
 492 0 l 1,5,-1
 415 0 l 1,6,7
 386 59 386 59 334 111 c 128,-1,8
 282 163 282 163 215.5 198.5 c 128,-1,9
 149 234 149 234 76 243 c 1,10,-1
 37 339 l 1,11,12
 134 395 134 395 231 439 c 128,-1,13
 328 483 328 483 437 517 c 1,14,-1
 415 475 l 1,15,-1
 415 551 l 1,16,-1
 -10 551 l 1,17,-1
 -10 622 l 1,18,-1
 817 622 l 1,0,-1
415 467 m 1,19,-1
 436 438 l 1,20,21
 385 424 385 424 330.5 401 c 128,-1,22
 276 378 276 378 224.5 353 c 128,-1,23
 173 328 173 328 130 304 c 1,24,25
 186 293 186 293 245.5 262 c 128,-1,26
 305 231 305 231 354.5 186.5 c 128,-1,27
 404 142 404 142 428 90 c 1,28,-1
 420 88 l 1,29,30
 418 111 418 111 416.5 134 c 128,-1,31
 415 157 415 157 415 189 c 2,32,-1
 415 467 l 1,19,-1
761 288 m 0,33,34
 761 255 761 255 748 225.5 c 128,-1,35
 735 196 735 196 705 177 c 128,-1,36
 675 158 675 158 625 158 c 0,37,38
 609 158 609 158 594.5 159 c 128,-1,39
 580 160 580 160 566 163 c 1,40,-1
 572 235 l 1,41,42
 578 234 578 234 586.5 233.5 c 128,-1,43
 595 233 595 233 606 233 c 0,44,45
 654 233 654 233 668.5 251.5 c 128,-1,46
 683 270 683 270 683 296 c 0,47,48
 683 349 683 349 631.5 386.5 c 128,-1,49
 580 424 580 424 479 438 c 1,50,-1
 482 513 l 1,51,52
 559 505 559 505 622 474.5 c 128,-1,53
 685 444 685 444 723 396.5 c 128,-1,54
 761 349 761 349 761 288 c 0,33,34
EndSplineSet
MultipleSubs2: "Multiple Substitution lookup 9 subtable" kabeng crossbeng
EndChar

StartChar: khabeng
Encoding: 2454 2454 21
Width: 696
GlyphClass: 2
Flags: W
AnchorPoint: "Anchor-2" 348 622 basechar 0
AnchorPoint: "Anchor-1" 524 0 basechar 0
AnchorPoint: "Anchor-0" 463 622 basechar 0
LayerCount: 2
Fore
SplineSet
706 622 m 1,0,-1
 706 551 l 1,1,-1
 601 551 l 1,2,-1
 601 0 l 1,3,-1
 524 0 l 1,4,5
 496 41 496 41 460 79 c 128,-1,6
 424 117 424 117 380 149 c 128,-1,7
 336 181 336 181 283 204 c 128,-1,8
 230 227 230 227 166 238 c 1,9,-1
 142 331 l 1,10,-1
 190 296 l 1,11,12
 283 280 283 280 347.5 247.5 c 128,-1,13
 412 215 412 215 455.5 175 c 128,-1,14
 499 135 499 135 526 97 c 1,15,16
 525 120 525 120 524.5 143 c 128,-1,17
 524 166 524 166 524 193 c 2,18,-1
 524 688 l 1,19,-1
 577 688 l 1,20,-1
 600 622 l 1,21,-1
 706 622 l 1,0,-1
450 470 m 0,22,23
 450 412 450 412 418.5 371.5 c 128,-1,24
 387 331 387 331 332.5 307.5 c 128,-1,25
 278 284 278 284 209 276 c 1,26,-1
 162 285 l 1,27,-1
 142 331 l 1,28,29
 223 337 223 337 274.5 354.5 c 128,-1,30
 326 372 326 372 350.5 400.5 c 128,-1,31
 375 429 375 429 375 466 c 0,32,33
 375 497 375 497 361 522 c 128,-1,34
 347 547 347 547 316 571 c 1,35,-1
 371 625 l 1,36,37
 405 594 405 594 427.5 554.5 c 128,-1,38
 450 515 450 515 450 470 c 0,22,23
182 430 m 0,39,40
 121 430 121 430 85 461.5 c 128,-1,41
 49 493 49 493 49 548 c 0,42,43
 49 571 49 571 55.5 592 c 128,-1,44
 62 613 62 613 71 628 c 1,45,-1
 147 607 l 1,46,47
 140 597 140 597 135 582.5 c 128,-1,48
 130 568 130 568 130 552 c 0,49,50
 130 526 130 526 144.5 513.5 c 128,-1,51
 159 501 159 501 182 501 c 0,52,53
 202 501 202 501 224 509 c 128,-1,54
 246 517 246 517 269.5 541 c 128,-1,55
 293 565 293 565 316 612 c 1,56,-1
 371 625 l 1,57,-1
 373 575 l 1,58,59
 353 531 353 531 325 498.5 c 128,-1,60
 297 466 297 466 261.5 448 c 128,-1,61
 226 430 226 430 182 430 c 0,39,40
EndSplineSet
MultipleSubs2: "Multiple Substitution lookup 9 subtable" khabeng crossbeng
EndChar

StartChar: gabeng
Encoding: 2455 2455 22
Width: 656
GlyphClass: 2
Flags: W
AnchorPoint: "Anchor-2" 328 622 basechar 0
AnchorPoint: "Anchor-1" 484 0 basechar 0
AnchorPoint: "Anchor-0" 423 622 basechar 0
LayerCount: 2
Fore
SplineSet
484 0 m 1,0,-1
 484 425 l 1,1,-1
 505 362 l 1,2,3
 470 412 470 412 439.5 448.5 c 128,-1,4
 409 485 409 485 381 509 c 128,-1,5
 353 533 353 533 324 544.5 c 128,-1,6
 295 556 295 556 263 556 c 0,7,8
 210 556 210 556 177.5 528.5 c 128,-1,9
 145 501 145 501 120 465 c 1,10,-1
 106 457 l 1,11,12
 120 470 120 470 149 478.5 c 128,-1,13
 178 487 178 487 216 487 c 0,14,15
 262 487 262 487 290.5 469 c 128,-1,16
 319 451 319 451 332.5 423.5 c 128,-1,17
 346 396 346 396 346 369 c 0,18,19
 346 310 346 310 306 263.5 c 128,-1,20
 266 217 266 217 182 172 c 1,21,-1
 131 245 l 1,22,23
 186 268 186 268 226 296.5 c 128,-1,24
 266 325 266 325 266 365 c 0,25,26
 266 387 266 387 249 402 c 128,-1,27
 232 417 232 417 200 417 c 0,28,29
 174 417 174 417 151.5 411 c 128,-1,30
 129 405 129 405 103 392 c 1,31,-1
 22 458 l 1,32,33
 53 510 53 510 88 548.5 c 128,-1,34
 123 587 123 587 164.5 608 c 128,-1,35
 206 629 206 629 255 629 c 0,36,37
 305 629 305 629 346.5 611.5 c 128,-1,38
 388 594 388 594 427.5 559 c 128,-1,39
 467 524 467 524 507 472 c 1,40,-1
 489 483 l 1,41,42
 487 497 487 497 485.5 526 c 128,-1,43
 484 555 484 555 484 585 c 2,44,-1
 484 688 l 1,45,-1
 537 688 l 1,46,-1
 560 622 l 1,47,-1
 666 622 l 1,48,-1
 666 551 l 1,49,-1
 561 551 l 1,50,-1
 561 0 l 1,51,-1
 484 0 l 1,0,-1
EndSplineSet
EndChar

StartChar: ghabeng
Encoding: 2456 2456 23
Width: 631
GlyphClass: 2
Flags: W
AnchorPoint: "Anchor-2" 315 622 basechar 0
AnchorPoint: "Anchor-1" 459 0 basechar 0
LayerCount: 2
Fore
SplineSet
641 622 m 1,0,-1
 641 551 l 1,1,-1
 536 551 l 1,2,-1
 536 0 l 1,3,-1
 459 0 l 1,4,5
 428 43 428 43 377 82 c 128,-1,6
 326 121 326 121 260 147.5 c 128,-1,7
 194 174 194 174 118 179 c 1,8,-1
 83 266 l 1,9,10
 105 283 105 283 127 298.5 c 128,-1,11
 149 314 149 314 172 328.5 c 128,-1,12
 195 343 195 343 219 358 c 1,13,-1
 276 350 l 1,14,15
 263 346 263 346 253 344.5 c 128,-1,16
 243 343 243 343 234 343 c 0,17,18
 177 343 177 343 137 358 c 128,-1,19
 97 373 97 373 76.5 401.5 c 128,-1,20
 56 430 56 430 56 469 c 0,21,22
 56 514 56 514 85 547 c 128,-1,23
 114 580 114 580 171 616 c 1,24,-1
 240 581 l 1,25,26
 185 559 185 559 161 531 c 128,-1,27
 137 503 137 503 137 472 c 0,28,29
 137 435 137 435 163 419.5 c 128,-1,30
 189 404 189 404 224 404 c 0,31,32
 246 404 246 404 272.5 411.5 c 128,-1,33
 299 419 299 419 331 441 c 1,34,-1
 374 381 l 1,35,36
 338 360 338 360 299 334 c 128,-1,37
 260 308 260 308 223 282.5 c 128,-1,38
 186 257 186 257 157 234 c 1,39,-1
 144 251 l 1,40,41
 259 234 259 234 332.5 192.5 c 128,-1,42
 406 151 406 151 461 92 c 1,43,44
 460 109 460 109 459.5 127.5 c 128,-1,45
 459 146 459 146 459 165 c 2,46,-1
 459 551 l 1,47,-1
 -10 551 l 1,48,-1
 -10 622 l 1,49,-1
 641 622 l 1,0,-1
EndSplineSet
EndChar

StartChar: ngabeng
Encoding: 2457 2457 24
Width: 723
GlyphClass: 2
Flags: W
AnchorPoint: "Anchor-2" 361 622 basechar 0
AnchorPoint: "Anchor-1" 444 0 basechar 0
AnchorPoint: "Anchor-0" 390 622 basechar 0
LayerCount: 2
Fore
SplineSet
419 9 m 0,0,1
 353 9 353 9 296 30.5 c 128,-1,2
 239 52 239 52 190.5 101 c 128,-1,3
 142 150 142 150 102 233 c 128,-1,4
 62 316 62 316 29 440 c 1,5,-1
 105 461 l 1,6,7
 133 355 133 355 164.5 282.5 c 128,-1,8
 196 210 196 210 233.5 166.5 c 128,-1,9
 271 123 271 123 316.5 104 c 128,-1,10
 362 85 362 85 418 85 c 0,11,12
 498 85 498 85 545 120.5 c 128,-1,13
 592 156 592 156 592 217 c 0,14,15
 592 245 592 245 584 274.5 c 128,-1,16
 576 304 576 304 548 347 c 1,17,-1
 594 333 l 1,18,19
 557 286 557 286 523 259 c 128,-1,20
 489 232 489 232 459 220.5 c 128,-1,21
 429 209 429 209 402 209 c 0,22,23
 379 209 379 209 358.5 215 c 128,-1,24
 338 221 338 221 324 233 c 0,25,26
 307 247 307 247 295.5 272 c 128,-1,27
 284 297 284 297 284 352 c 2,28,-1
 284 443 l 2,29,30
 284 505 284 505 308 546.5 c 128,-1,31
 332 588 332 588 371 608.5 c 128,-1,32
 410 629 410 629 456 629 c 0,33,34
 511 629 511 629 547.5 601.5 c 128,-1,35
 584 574 584 574 584 519 c 0,36,37
 584 479 584 479 562.5 452 c 128,-1,38
 541 425 541 425 506 411.5 c 128,-1,39
 471 398 471 398 431 398 c 0,40,41
 362 398 362 398 303.5 424 c 128,-1,42
 245 450 245 450 198.5 492.5 c 128,-1,43
 152 535 152 535 118 582 c 1,44,-1
 179 623 l 1,45,46
 211 582 211 582 247 545.5 c 128,-1,47
 283 509 283 509 328 486.5 c 128,-1,48
 373 464 373 464 432 464 c 0,49,50
 473 464 473 464 491 480.5 c 128,-1,51
 509 497 509 497 509 520 c 0,52,53
 509 540 509 540 494.5 551.5 c 128,-1,54
 480 563 480 563 455 563 c 0,55,56
 424 563 424 563 402 546.5 c 128,-1,57
 380 530 380 530 368.5 501.5 c 128,-1,58
 357 473 357 473 357 438 c 2,59,-1
 357 337 l 2,60,61
 357 312 357 312 366 297 c 128,-1,62
 375 282 375 282 399 282 c 0,63,64
 422 282 422 282 443.5 291.5 c 128,-1,65
 465 301 465 301 489.5 322.5 c 128,-1,66
 514 344 514 344 546 380 c 1,67,-1
 616 383 l 1,68,69
 639 346 639 346 653 303 c 128,-1,70
 667 260 667 260 667 215 c 0,71,72
 667 157 667 157 639 110.5 c 128,-1,73
 611 64 611 64 556 36.5 c 128,-1,74
 501 9 501 9 419 9 c 0,0,1
EndSplineSet
EndChar

StartChar: cabeng
Encoding: 2458 2458 25
Width: 567
GlyphClass: 2
Flags: W
AnchorPoint: "Anchor-2" 283 622 basechar 0
AnchorPoint: "Anchor-1" 312 0 basechar 0
AnchorPoint: "Anchor-0" 255 622 basechar 0
LayerCount: 2
Fore
SplineSet
577 622 m 1,0,-1
 577 551 l 1,1,-1
 172 551 l 1,2,-1
 172 521 l 1,3,-1
 168 458 l 2,4,5
 170 445 170 445 171 422 c 128,-1,6
 172 399 172 399 172 378 c 2,7,-1
 172 205 l 2,8,9
 172 161 172 161 177 143 c 128,-1,10
 182 125 182 125 189 117 c 0,11,12
 207 96 207 96 244 96 c 0,13,14
 284 96 284 96 318 115 c 128,-1,15
 352 134 352 134 379 162 c 0,16,17
 407 192 407 192 422.5 225.5 c 128,-1,18
 438 259 438 259 438 296 c 0,19,20
 438 329 438 329 419.5 339 c 128,-1,21
 401 349 401 349 368 349 c 2,22,-1
 363 349 l 2,23,24
 317 349 317 349 289 356.5 c 128,-1,25
 261 364 261 364 235 377 c 0,26,27
 212 390 212 390 192.5 407.5 c 128,-1,28
 173 425 173 425 161 447 c 1,29,-1
 171 534 l 1,30,31
 192 498 192 498 215 473.5 c 128,-1,32
 238 449 238 449 272.5 436 c 128,-1,33
 307 423 307 423 361 423 c 2,34,-1
 377 423 l 2,35,36
 415 423 415 423 435.5 418 c 128,-1,37
 456 413 456 413 472 403 c 0,38,39
 495 389 495 389 506 364.5 c 128,-1,40
 517 340 517 340 517 306 c 0,41,42
 517 245 517 245 488 189 c 128,-1,43
 459 133 459 133 415 95 c 0,44,45
 377 62 377 62 334 43 c 128,-1,46
 291 24 291 24 238 24 c 0,47,48
 201 24 201 24 175 35 c 128,-1,49
 149 46 149 46 132 63 c 0,50,51
 116 82 116 82 105.5 109 c 128,-1,52
 95 136 95 136 95 191 c 2,53,-1
 95 551 l 1,54,-1
 -10 551 l 1,55,-1
 -10 622 l 1,56,-1
 577 622 l 1,0,-1
EndSplineSet
EndChar

StartChar: chabeng
Encoding: 2459 2459 26
Width: 687
GlyphClass: 2
Flags: W
AnchorPoint: "Anchor-2" 343 622 basechar 0
AnchorPoint: "Anchor-1" 419 0 basechar 0
AnchorPoint: "Anchor-0" 342 622 basechar 0
LayerCount: 2
Fore
SplineSet
615 310 m 0,0,1
 615 255 615 255 594 216.5 c 128,-1,2
 573 178 573 178 539 153 c 128,-1,3
 505 128 505 128 463.5 114.5 c 128,-1,4
 422 101 422 101 380 97 c 1,5,-1
 359 120 l 1,6,7
 414 112 414 112 465.5 98.5 c 128,-1,8
 517 85 517 85 571 63.5 c 128,-1,9
 625 42 625 42 684 11 c 1,10,-1
 649 -49 l 1,11,12
 571 -7 571 -7 489.5 21.5 c 128,-1,13
 408 50 408 50 321.5 67.5 c 128,-1,14
 235 85 235 85 143 94 c 1,15,-1
 152 166 l 1,16,17
 181 160 181 160 213.5 156 c 128,-1,18
 246 152 246 152 290 152 c 0,19,20
 379 152 379 152 433.5 175 c 128,-1,21
 488 198 488 198 513 234.5 c 128,-1,22
 538 271 538 271 538 310 c 0,23,24
 538 363 538 363 504.5 391 c 128,-1,25
 471 419 471 419 412 419 c 0,26,27
 405 419 405 419 397.5 418.5 c 128,-1,28
 390 418 390 418 382 416 c 1,29,-1
 372 481 l 1,30,31
 382 482 382 482 397.5 482.5 c 128,-1,32
 413 483 413 483 423 483 c 0,33,34
 481 483 481 483 518.5 465.5 c 128,-1,35
 556 448 556 448 577 421 c 128,-1,36
 598 394 598 394 606.5 364 c 128,-1,37
 615 334 615 334 615 310 c 0,0,1
227 217 m 0,38,39
 193 217 193 217 167 225 c 128,-1,40
 141 233 141 233 125 249 c 0,41,42
 110 264 110 264 100.5 288 c 128,-1,43
 91 312 91 312 91 359 c 2,44,-1
 91 559 l 1,45,-1
 168 559 l 1,46,-1
 168 521 l 1,47,-1
 166 476 l 2,48,49
 167 464 167 464 167.5 450.5 c 128,-1,50
 168 437 168 437 168 420 c 2,51,-1
 168 359 l 2,52,53
 168 333 168 333 172.5 321 c 128,-1,54
 177 309 177 309 184 301 c 0,55,56
 199 286 199 286 233 286 c 0,57,58
 276 286 276 286 307.5 302 c 128,-1,59
 339 318 339 318 356.5 340.5 c 128,-1,60
 374 363 374 363 374 384 c 0,61,62
 374 403 374 403 360 408 c 128,-1,63
 346 413 346 413 322 413 c 2,64,-1
 316 413 l 2,65,66
 264 413 264 413 223 431 c 128,-1,67
 182 449 182 449 155 480 c 1,68,-1
 168 544 l 1,69,70
 185 525 185 525 204 510.5 c 128,-1,71
 223 496 223 496 251 488.5 c 128,-1,72
 279 481 279 481 323 481 c 2,73,-1
 372 481 l 2,74,75
 383 481 383 481 386.5 475 c 128,-1,76
 390 469 390 469 402 463 c 0,77,78
 422 453 422 453 436 435 c 128,-1,79
 450 417 450 417 450 388 c 0,80,81
 450 339 450 339 420.5 300.5 c 128,-1,82
 391 262 391 262 340.5 239.5 c 128,-1,83
 290 217 290 217 227 217 c 0,38,39
-10 551 m 1,84,-1
 -10 622 l 1,85,-1
 697 622 l 1,86,-1
 697 551 l 1,87,-1
 -10 551 l 1,84,-1
EndSplineSet
EndChar

StartChar: jabeng
Encoding: 2460 2460 27
Width: 917
GlyphClass: 2
Flags: W
AnchorPoint: "Anchor-2" 458 622 basechar 0
AnchorPoint: "Anchor-1" 757 0 basechar 0
AnchorPoint: "Anchor-0" 672 622 basechar 0
LayerCount: 2
Fore
SplineSet
401 63 m 0,0,1
 342 63 342 63 288 84 c 128,-1,2
 234 105 234 105 186.5 151.5 c 128,-1,3
 139 198 139 198 99.5 275.5 c 128,-1,4
 60 353 60 353 29 465 c 1,5,-1
 105 485 l 1,6,7
 139 362 139 362 181 285.5 c 128,-1,8
 223 209 223 209 278 174 c 128,-1,9
 333 139 333 139 404 139 c 0,10,11
 478 139 478 139 516 171 c 128,-1,12
 554 203 554 203 554 268 c 0,13,14
 554 299 554 299 546 321 c 128,-1,15
 538 343 538 343 530 358 c 1,16,-1
 590 358 l 1,17,18
 562 329 562 329 531.5 306 c 128,-1,19
 501 283 501 283 466.5 270 c 128,-1,20
 432 257 432 257 391 257 c 0,21,22
 352 257 352 257 322 272 c 128,-1,23
 292 287 292 287 275 315.5 c 128,-1,24
 258 344 258 344 258 384 c 0,25,26
 258 428 258 428 289 473.5 c 128,-1,27
 320 519 320 519 394 553 c 1,28,29
 374 552 374 552 348.5 551.5 c 128,-1,30
 323 551 323 551 298 551 c 2,31,-1
 -10 551 l 1,32,-1
 -10 622 l 1,33,-1
 927 622 l 1,34,-1
 927 551 l 1,35,-1
 614 551 l 2,36,37
 590 551 590 551 571 552 c 128,-1,38
 552 553 552 553 535 554 c 1,39,40
 451 516 451 516 408 485 c 128,-1,41
 365 454 365 454 350 428.5 c 128,-1,42
 335 403 335 403 335 380 c 0,43,44
 335 352 335 352 351 340 c 128,-1,45
 367 328 367 328 387 328 c 0,46,47
 425 328 425 328 455 345.5 c 128,-1,48
 485 363 485 363 523 396 c 1,49,-1
 609 365 l 1,50,51
 618 345 618 345 624 315.5 c 128,-1,52
 630 286 630 286 630 254 c 0,53,54
 630 204 630 204 607.5 160.5 c 128,-1,55
 585 117 585 117 534.5 90 c 128,-1,56
 484 63 484 63 401 63 c 0,0,1
801 205 m 0,57,58
 801 156 801 156 809 111 c 128,-1,59
 817 66 817 66 836 10 c 1,60,-1
 761 -7 l 1,61,62
 743 51 743 51 733 106.5 c 128,-1,63
 723 162 723 162 723 222 c 0,64,65
 723 275 723 275 732.5 317 c 128,-1,66
 742 359 742 359 755 388 c 1,67,68
 679 389 679 389 625.5 407.5 c 128,-1,69
 572 426 572 426 536 460.5 c 128,-1,70
 500 495 500 495 475 543 c 1,71,-1
 551 559 l 1,72,73
 567 530 567 530 591.5 507.5 c 128,-1,74
 616 485 616 485 655 472 c 128,-1,75
 694 459 694 459 751 459 c 0,76,77
 765 459 765 459 778 460 c 128,-1,78
 791 461 791 461 806 462 c 1,79,-1
 845 392 l 1,80,81
 821 347 821 347 811 304 c 128,-1,82
 801 261 801 261 801 205 c 0,57,58
EndSplineSet
EndChar

StartChar: jhabeng
Encoding: 2461 2461 28
Width: 794
GlyphClass: 2
Flags: W
AnchorPoint: "Anchor-2" 453 622 basechar 0
AnchorPoint: "Anchor-1" 415 0 basechar 0
AnchorPoint: "Anchor-0" 561 622 basechar 0
LayerCount: 2
Fore
SplineSet
492 622 m 1,0,-1
 492 0 l 1,1,-1
 415 0 l 1,2,3
 386 59 386 59 334 111 c 128,-1,4
 282 163 282 163 215.5 198.5 c 128,-1,5
 149 234 149 234 76 243 c 1,6,-1
 37 339 l 1,7,8
 132 396 132 396 232.5 444 c 128,-1,9
 333 492 333 492 436 524 c 1,10,-1
 415 482 l 1,11,-1
 415 551 l 1,12,-1
 -10 551 l 1,13,-1
 -10 622 l 1,14,-1
 492 622 l 1,0,-1
415 474 m 1,15,-1
 435 446 l 1,16,17
 386 430 386 430 333.5 408 c 128,-1,18
 281 386 281 386 229.5 359.5 c 128,-1,19
 178 333 178 333 130 304 c 1,20,21
 186 293 186 293 245.5 262 c 128,-1,22
 305 231 305 231 354.5 186.5 c 128,-1,23
 404 142 404 142 428 90 c 1,24,-1
 420 88 l 1,25,26
 418 111 418 111 416.5 134 c 128,-1,27
 415 157 415 157 415 189 c 2,28,-1
 415 474 l 1,15,-1
804 622 m 1,29,-1
 804 551 l 1,30,-1
 699 551 l 1,31,-1
 699 73 l 1,32,-1
 622 73 l 1,33,34
 602 113 602 113 576 146 c 128,-1,35
 550 179 550 179 520.5 206.5 c 128,-1,36
 491 234 491 234 458 255 c 1,37,-1
 483 318 l 1,38,39
 512 302 512 302 542 275.5 c 128,-1,40
 572 249 572 249 597 218.5 c 128,-1,41
 622 188 622 188 634 160 c 1,42,-1
 626 157 l 1,43,44
 624 180 624 180 623 202.5 c 128,-1,45
 622 225 622 225 622 257 c 2,46,-1
 622 688 l 1,47,-1
 675 688 l 1,48,-1
 698 622 l 1,49,-1
 804 622 l 1,29,-1
EndSplineSet
EndChar

StartChar: nyabeng
Encoding: 2462 2462 29
Width: 1019
GlyphClass: 2
Flags: W
AnchorPoint: "Anchor-2" 509 622 basechar 0
AnchorPoint: "Anchor-1" 592 0 basechar 0
AnchorPoint: "Anchor-0" 590 622 basechar 0
LayerCount: 2
Fore
SplineSet
511 628 m 0,0,1
 551 628 551 628 578 619.5 c 128,-1,2
 605 611 605 611 625 594 c 0,3,4
 643 578 643 578 653.5 555.5 c 128,-1,5
 664 533 664 533 664 495 c 1,6,-1
 667 475 l 1,7,-1
 667 290 l 1,8,-1
 661 274 l 1,9,10
 666 254 666 254 666.5 232 c 128,-1,11
 667 210 667 210 667 190 c 2,12,-1
 667 0 l 1,13,-1
 592 0 l 1,14,15
 584 30 584 30 569 49 c 128,-1,16
 554 68 554 68 532.5 77.5 c 128,-1,17
 511 87 511 87 481 87 c 0,18,19
 445 87 445 87 414 83 c 128,-1,20
 383 79 383 79 349.5 74.5 c 128,-1,21
 316 70 316 70 272 70 c 0,22,23
 238 70 238 70 199 77.5 c 128,-1,24
 160 85 160 85 125 106 c 128,-1,25
 90 127 90 127 68 168.5 c 128,-1,26
 46 210 46 210 46 278 c 0,27,28
 46 302 46 302 50 328.5 c 128,-1,29
 54 355 54 355 58 377 c 1,30,-1
 135 366 l 1,31,32
 131 351 131 351 127.5 330 c 128,-1,33
 124 309 124 309 124 280 c 0,34,35
 124 236 124 236 137 209 c 128,-1,36
 150 182 150 182 172 168 c 128,-1,37
 194 154 194 154 221 149 c 128,-1,38
 248 144 248 144 276 144 c 0,39,40
 326 144 326 144 367.5 152.5 c 128,-1,41
 409 161 409 161 461 161 c 0,42,43
 504 161 504 161 536 148.5 c 128,-1,44
 568 136 568 136 590 106 c 1,45,-1
 590 463 l 2,46,47
 590 500 590 500 585 516 c 128,-1,48
 580 532 580 532 569 542 c 0,49,50
 551 557 551 557 514 557 c 0,51,52
 478 557 478 557 445.5 541 c 128,-1,53
 413 525 413 525 387.5 500 c 128,-1,54
 362 475 362 475 347.5 446.5 c 128,-1,55
 333 418 333 418 333 393 c 0,56,57
 333 383 333 383 337 372 c 128,-1,58
 341 361 341 361 354 353 c 128,-1,59
 367 345 367 345 392 345 c 0,60,61
 403 345 403 345 413 346 c 128,-1,62
 423 347 423 347 434 348 c 1,63,-1
 441 278 l 1,64,65
 431 274 431 274 414.5 272 c 128,-1,66
 398 270 398 270 376 270 c 0,67,68
 327 270 327 270 290.5 300 c 128,-1,69
 254 330 254 330 254 392 c 0,70,71
 254 432 254 432 274.5 473.5 c 128,-1,72
 295 515 295 515 331 550 c 128,-1,73
 367 585 367 585 413.5 606.5 c 128,-1,74
 460 628 460 628 511 628 c 0,0,1
824 607 m 0,75,76
 886 607 886 607 922.5 575 c 128,-1,77
 959 543 959 543 959 493 c 0,78,79
 959 468 959 468 948 438.5 c 128,-1,80
 937 409 937 409 903.5 383.5 c 128,-1,81
 870 358 870 358 802 344 c 1,82,-1
 785 412 l 1,83,84
 838 420 838 420 860.5 440 c 128,-1,85
 883 460 883 460 883 485 c 0,86,87
 883 512 883 512 864 525 c 128,-1,88
 845 538 845 538 819 538 c 0,89,90
 773 538 773 538 733.5 504 c 128,-1,91
 694 470 694 470 662 415 c 1,92,-1
 657 522 l 1,93,94
 694 563 694 563 733 585 c 128,-1,95
 772 607 772 607 824 607 c 0,75,76
823 167 m 0,96,97
 762 167 762 167 724 193.5 c 128,-1,98
 686 220 686 220 660 260 c 1,99,-1
 619 348 l 1,100,-1
 662 400 l 1,101,102
 676 347 676 347 699 310.5 c 128,-1,103
 722 274 722 274 753 255 c 128,-1,104
 784 236 784 236 820 236 c 0,105,106
 847 236 847 236 868 250.5 c 128,-1,107
 889 265 889 265 889 294 c 0,108,109
 889 320 889 320 872.5 340 c 128,-1,110
 856 360 856 360 818 373 c 1,111,-1
 874 413 l 1,112,113
 895 405 895 405 916 389 c 128,-1,114
 937 373 937 373 951 349 c 128,-1,115
 965 325 965 325 965 291 c 0,116,117
 965 258 965 258 949 229.5 c 128,-1,118
 933 201 933 201 901.5 184 c 128,-1,119
 870 167 870 167 823 167 c 0,96,97
EndSplineSet
EndChar

StartChar: ttabeng
Encoding: 2463 2463 30
Width: 567
GlyphClass: 2
Flags: W
AnchorPoint: "Anchor-2" 283 622 basechar 0
AnchorPoint: "Anchor-1" 312 0 basechar 0
LayerCount: 2
Fore
SplineSet
577 622 m 1,0,-1
 577 551 l 1,1,-1
 172 551 l 1,2,-1
 172 205 l 2,3,4
 172 161 172 161 177 143 c 128,-1,5
 182 125 182 125 189 117 c 0,6,7
 207 96 207 96 244 96 c 0,8,9
 283 96 283 96 318 115 c 128,-1,10
 353 134 353 134 379 162 c 0,11,12
 408 193 408 193 423.5 228 c 128,-1,13
 439 263 439 263 439 299 c 0,14,15
 439 331 439 331 423 347.5 c 128,-1,16
 407 364 407 364 370 364 c 0,17,18
 358 364 358 364 344 362 c 128,-1,19
 330 360 330 360 317 357 c 1,20,-1
 306 428 l 1,21,22
 325 433 325 433 345.5 436 c 128,-1,23
 366 439 366 439 389 439 c 0,24,25
 426 439 426 439 455 425 c 128,-1,26
 484 411 484 411 500.5 381 c 128,-1,27
 517 351 517 351 517 303 c 0,28,29
 517 244 517 244 488 188.5 c 128,-1,30
 459 133 459 133 415 95 c 0,31,32
 378 63 378 63 334.5 43.5 c 128,-1,33
 291 24 291 24 239 24 c 0,34,35
 202 24 202 24 175.5 35 c 128,-1,36
 149 46 149 46 132 63 c 0,37,38
 116 82 116 82 105.5 109 c 128,-1,39
 95 136 95 136 95 191 c 2,40,-1
 95 551 l 1,41,-1
 -10 551 l 1,42,-1
 -10 622 l 1,43,-1
 577 622 l 1,0,-1
395 622 m 1,44,45
 394 663 394 663 375.5 681 c 128,-1,46
 357 699 357 699 315 699 c 2,47,-1
 221 699 l 2,48,49
 156 699 156 699 120.5 708 c 128,-1,50
 85 717 85 717 60 736 c 0,51,52
 33 756 33 756 19.5 787.5 c 128,-1,53
 6 819 6 819 6 859 c 0,54,55
 6 872 6 872 7.5 884.5 c 128,-1,56
 9 897 9 897 11 912 c 1,57,-1
 85 907 l 1,58,59
 83 896 83 896 82 887.5 c 128,-1,60
 81 879 81 879 81 869 c 0,61,62
 81 847 81 847 85.5 830 c 128,-1,63
 90 813 90 813 100 802 c 0,64,65
 114 786 114 786 140.5 778.5 c 128,-1,66
 167 771 167 771 216 771 c 2,67,-1
 294 771 l 2,68,69
 347 771 347 771 378 763 c 128,-1,70
 409 755 409 755 431 734 c 0,71,72
 448 718 448 718 457 690.5 c 128,-1,73
 466 663 466 663 467 622 c 1,74,-1
 395 622 l 1,44,45
EndSplineSet
EndChar

StartChar: tthabeng
Encoding: 2464 2464 31
Width: 591
GlyphClass: 2
Flags: W
AnchorPoint: "Anchor-2" 295 622 basechar 0
AnchorPoint: "Anchor-1" 341 0 basechar 0
LayerCount: 2
Fore
SplineSet
282 0 m 0,0,1
 222 0 222 0 173 21.5 c 128,-1,2
 124 43 124 43 89.5 81 c 128,-1,3
 55 119 55 119 36 168 c 1,4,-1
 58 247 l 1,5,6
 140 255 140 255 184 283 c 128,-1,7
 228 311 228 311 245.5 353.5 c 128,-1,8
 263 396 263 396 263 448 c 0,9,10
 263 471 263 471 258 498 c 128,-1,11
 253 525 253 525 242 551 c 1,12,-1
 -10 551 l 1,13,-1
 -10 622 l 1,14,-1
 200 622 l 1,15,16
 168 666 168 666 148.5 702.5 c 128,-1,17
 129 739 129 739 129 776 c 0,18,19
 129 818 129 818 152 852 c 128,-1,20
 175 886 175 886 218 917 c 1,21,-1
 269 861 l 1,22,23
 237 836 237 836 222.5 814.5 c 128,-1,24
 208 793 208 793 208 764 c 0,25,26
 208 733 208 733 230.5 699.5 c 128,-1,27
 253 666 253 666 291 622 c 1,28,-1
 601 622 l 1,29,-1
 601 551 l 1,30,-1
 427 551 l 2,31,32
 408 551 408 551 394 551.5 c 128,-1,33
 380 552 380 552 365 553 c 1,34,35
 438 480 438 480 483.5 406 c 128,-1,36
 529 332 529 332 529 240 c 0,37,38
 529 169 529 169 500 115 c 128,-1,39
 471 61 471 61 416 30.5 c 128,-1,40
 361 0 361 0 282 0 c 0,0,1
280 74 m 0,41,42
 338 74 338 74 375 98 c 128,-1,43
 412 122 412 122 430 161 c 128,-1,44
 448 200 448 200 448 244 c 0,45,46
 448 290 448 290 433.5 334 c 128,-1,47
 419 378 419 378 385 427 c 128,-1,48
 351 476 351 476 293 536 c 1,49,-1
 309 532 l 1,50,51
 319 504 319 504 326 474.5 c 128,-1,52
 333 445 333 445 333 406 c 0,53,54
 333 369 333 369 322 332.5 c 128,-1,55
 311 296 311 296 284 264 c 128,-1,56
 257 232 257 232 208.5 207 c 128,-1,57
 160 182 160 182 86 168 c 1,58,-1
 100 229 l 1,59,60
 110 176 110 176 137 141.5 c 128,-1,61
 164 107 164 107 202 90.5 c 128,-1,62
 240 74 240 74 280 74 c 0,41,42
EndSplineSet
EndChar

StartChar: ddabeng
Encoding: 2465 2465 32
Width: 712
GlyphClass: 2
Flags: W
AnchorPoint: "Anchor-2" 356 622 basechar 0
AnchorPoint: "Anchor-1" 434 0 basechar 0
AnchorPoint: "Anchor-0" 366 622 basechar 0
LayerCount: 2
Fore
SplineSet
722 622 m 1,0,-1
 722 551 l 1,1,-1
 356 551 l 1,2,-1
 356 372 l 2,3,4
 356 343 356 343 365 329.5 c 128,-1,5
 374 316 374 316 393 316 c 256,6,7
 412 316 412 316 432.5 328 c 128,-1,8
 453 340 453 340 477 366 c 128,-1,9
 501 392 501 392 529 433 c 1,10,-1
 589 442 l 1,11,12
 621 395 621 395 638.5 345 c 128,-1,13
 656 295 656 295 656 245 c 0,14,15
 656 182 656 182 628.5 132 c 128,-1,16
 601 82 601 82 547.5 53 c 128,-1,17
 494 24 494 24 417 24 c 0,18,19
 351 24 351 24 294 47 c 128,-1,20
 237 70 237 70 189 121.5 c 128,-1,21
 141 173 141 173 101 257.5 c 128,-1,22
 61 342 61 342 29 465 c 1,23,-1
 105 485 l 1,24,25
 141 346 141 346 184.5 261.5 c 128,-1,26
 228 177 228 177 284 138.5 c 128,-1,27
 340 100 340 100 413 100 c 0,28,29
 493 100 493 100 536.5 140 c 128,-1,30
 580 180 580 180 580 243 c 0,31,32
 580 288 580 288 567.5 320 c 128,-1,33
 555 352 555 352 535 373 c 1,34,-1
 581 392 l 1,35,36
 551 341 551 341 519.5 308 c 128,-1,37
 488 275 488 275 456.5 258.5 c 128,-1,38
 425 242 425 242 394 242 c 0,39,40
 371 242 371 242 351 248.5 c 128,-1,41
 331 255 331 255 317 268 c 0,42,43
 301 282 301 282 290 307.5 c 128,-1,44
 279 333 279 333 279 393 c 2,45,-1
 279 551 l 1,46,-1
 -10 551 l 1,47,-1
 -10 622 l 1,48,-1
 722 622 l 1,0,-1
EndSplineSet
EndChar

StartChar: ddhabeng
Encoding: 2466 2466 33
Width: 567
GlyphClass: 2
Flags: W
AnchorPoint: "Anchor-2" 283 622 basechar 0
AnchorPoint: "Anchor-1" 312 0 basechar 0
AnchorPoint: "Anchor-0" 255 622 basechar 0
LayerCount: 2
Fore
SplineSet
577 622 m 1,0,-1
 577 551 l 1,1,-1
 172 551 l 1,2,-1
 172 205 l 2,3,4
 172 161 172 161 177 143 c 128,-1,5
 182 125 182 125 189 117 c 0,6,7
 207 96 207 96 244 96 c 0,8,9
 283 96 283 96 318 115 c 128,-1,10
 353 134 353 134 379 162 c 0,11,12
 408 193 408 193 423.5 228 c 128,-1,13
 439 263 439 263 439 299 c 0,14,15
 439 331 439 331 423 347.5 c 128,-1,16
 407 364 407 364 370 364 c 0,17,18
 358 364 358 364 344 362 c 128,-1,19
 330 360 330 360 317 357 c 1,20,-1
 306 428 l 1,21,22
 325 433 325 433 345.5 436 c 128,-1,23
 366 439 366 439 389 439 c 0,24,25
 426 439 426 439 455 425 c 128,-1,26
 484 411 484 411 500.5 381 c 128,-1,27
 517 351 517 351 517 303 c 0,28,29
 517 244 517 244 488 188.5 c 128,-1,30
 459 133 459 133 415 95 c 0,31,32
 378 63 378 63 334.5 43.5 c 128,-1,33
 291 24 291 24 239 24 c 0,34,35
 202 24 202 24 175.5 35 c 128,-1,36
 149 46 149 46 132 63 c 0,37,38
 116 82 116 82 105.5 109 c 128,-1,39
 95 136 95 136 95 191 c 2,40,-1
 95 551 l 1,41,-1
 -10 551 l 1,42,-1
 -10 622 l 1,43,-1
 577 622 l 1,0,-1
EndSplineSet
EndChar

StartChar: nnabeng
Encoding: 2467 2467 34
Width: 620
GlyphClass: 2
Flags: W
AnchorPoint: "Anchor-2" 310 622 basechar 0
AnchorPoint: "Anchor-1" 448 0 basechar 0
AnchorPoint: "Anchor-0" 387 622 basechar 0
LayerCount: 2
Fore
SplineSet
630 622 m 1,0,-1
 630 551 l 1,1,-1
 525 551 l 1,2,-1
 525 0 l 1,3,-1
 448 0 l 1,4,-1
 448 425 l 1,5,-1
 468 363 l 1,6,7
 422 430 422 430 381 472.5 c 128,-1,8
 340 515 340 515 301 535.5 c 128,-1,9
 262 556 262 556 222 556 c 0,10,11
 191 556 191 556 168.5 544 c 128,-1,12
 146 532 146 532 134 511.5 c 128,-1,13
 122 491 122 491 122 463 c 0,14,15
 122 431 122 431 137.5 409 c 128,-1,16
 153 387 153 387 186.5 374 c 128,-1,17
 220 361 220 361 275 355 c 1,18,-1
 269 272 l 1,19,20
 203 278 203 278 151.5 300.5 c 128,-1,21
 100 323 100 323 70 363.5 c 128,-1,22
 40 404 40 404 40 462 c 0,23,24
 40 516 40 516 64 553.5 c 128,-1,25
 88 591 88 591 127 610 c 128,-1,26
 166 629 166 629 211 629 c 0,27,28
 263 629 263 629 305.5 611 c 128,-1,29
 348 593 348 593 388 558.5 c 128,-1,30
 428 524 428 524 470 473 c 1,31,-1
 454 477 l 1,32,33
 451 494 451 494 449.5 522.5 c 128,-1,34
 448 551 448 551 448 576 c 2,35,-1
 448 688 l 1,36,-1
 501 688 l 1,37,-1
 524 622 l 1,38,-1
 630 622 l 1,0,-1
EndSplineSet
EndChar

StartChar: tabeng
Encoding: 2468 2468 35
Width: 707
GlyphClass: 2
Flags: W
AnchorPoint: "Anchor-2" 353 622 basechar 0
AnchorPoint: "Anchor-1" 427 0 basechar 0
AnchorPoint: "Anchor-0" 378 622 basechar 0
LayerCount: 2
Fore
SplineSet
407 50 m 256,0,1
 325 50 325 50 254 90.5 c 128,-1,2
 183 131 183 131 126.5 222 c 128,-1,3
 70 313 70 313 29 466 c 1,4,-1
 105 486 l 1,5,6
 140 362 140 362 181.5 282 c 128,-1,7
 223 202 223 202 277.5 164 c 128,-1,8
 332 126 332 126 405 126 c 0,9,10
 452 126 452 126 484 137.5 c 128,-1,11
 516 149 516 149 535.5 170 c 128,-1,12
 555 191 555 191 564 218.5 c 128,-1,13
 573 246 573 246 573 278 c 0,14,15
 573 320 573 320 557 354.5 c 128,-1,16
 541 389 541 389 512 409 c 128,-1,17
 483 429 483 429 444 429 c 0,18,19
 404 429 404 429 386.5 412 c 128,-1,20
 369 395 369 395 369 367 c 0,21,22
 369 357 369 357 371 346 c 128,-1,23
 373 335 373 335 378 321 c 1,24,-1
 301 306 l 1,25,26
 295 325 295 325 291.5 343 c 128,-1,27
 288 361 288 361 288 380 c 0,28,29
 288 419 288 419 307.5 445.5 c 128,-1,30
 327 472 327 472 361.5 486 c 128,-1,31
 396 500 396 500 440 500 c 0,32,33
 502 500 502 500 549 471.5 c 128,-1,34
 596 443 596 443 623 392 c 128,-1,35
 650 341 650 341 650 274 c 0,36,37
 650 211 650 211 623.5 160.5 c 128,-1,38
 597 110 597 110 543 80 c 128,-1,39
 489 50 489 50 407 50 c 256,0,1
717 622 m 1,40,-1
 717 551 l 1,41,-1
 -10 551 l 1,42,-1
 -10 622 l 1,43,-1
 717 622 l 1,40,-1
EndSplineSet
EndChar

StartChar: thabeng
Encoding: 2469 2469 36
Width: 645
GlyphClass: 2
Flags: W
AnchorPoint: "Anchor-2" 322 622 basechar 0
AnchorPoint: "Anchor-1" 473 0 basechar 0
AnchorPoint: "Anchor-0" 412 622 basechar 0
LayerCount: 2
Fore
SplineSet
655 622 m 1,0,-1
 655 551 l 1,1,-1
 550 551 l 1,2,-1
 550 0 l 1,3,-1
 473 0 l 1,4,5
 435 55 435 55 383 103.5 c 128,-1,6
 331 152 331 152 264.5 187.5 c 128,-1,7
 198 223 198 223 115 238 c 1,8,-1
 92 331 l 1,9,-1
 144 296 l 1,10,11
 228 280 228 280 291.5 248.5 c 128,-1,12
 355 217 355 217 401 177.5 c 128,-1,13
 447 138 447 138 475 97 c 1,14,15
 474 120 474 120 473.5 143 c 128,-1,16
 473 166 473 166 473 193 c 2,17,-1
 473 688 l 1,18,-1
 526 688 l 1,19,-1
 549 622 l 1,20,-1
 655 622 l 1,0,-1
211 625 m 0,21,22
 274 625 274 625 316 603.5 c 128,-1,23
 358 582 358 582 379 545.5 c 128,-1,24
 400 509 400 509 400 464 c 0,25,26
 400 386 400 386 335.5 337 c 128,-1,27
 271 288 271 288 158 275 c 1,28,-1
 110 285 l 1,29,-1
 92 331 l 1,30,31
 176 337 176 337 226 355.5 c 128,-1,32
 276 374 276 374 297.5 402.5 c 128,-1,33
 319 431 319 431 319 466 c 0,34,35
 319 509 319 509 291 532 c 128,-1,36
 263 555 263 555 209 555 c 0,37,38
 159 555 159 555 137.5 535.5 c 128,-1,39
 116 516 116 516 116 494 c 0,40,41
 116 480 116 480 123.5 468 c 128,-1,42
 131 456 131 456 150 446 c 1,43,-1
 106 384 l 1,44,45
 87 397 87 397 71.5 412.5 c 128,-1,46
 56 428 56 428 47 449 c 128,-1,47
 38 470 38 470 38 497 c 0,48,49
 38 532 38 532 58 561 c 128,-1,50
 78 590 78 590 117 607.5 c 128,-1,51
 156 625 156 625 211 625 c 0,21,22
EndSplineSet
EndChar

StartChar: dabeng
Encoding: 2470 2470 37
Width: 603
GlyphClass: 2
Flags: W
AnchorPoint: "Anchor-2" 301 622 basechar 0
AnchorPoint: "Anchor-1" 443 0 basechar 0
AnchorPoint: "Anchor-0" 307 622 basechar 0
LayerCount: 2
Fore
SplineSet
613 622 m 1,0,-1
 613 551 l 1,1,-1
 159 551 l 1,2,-1
 159 253 l 1,3,-1
 145 273 l 1,4,5
 185 318 185 318 236 357 c 128,-1,6
 287 396 287 396 347 428.5 c 128,-1,7
 407 461 407 461 475 486 c 1,8,-1
 540 422 l 1,9,10
 521 387 521 387 509.5 354 c 128,-1,11
 498 321 498 321 492.5 285 c 128,-1,12
 487 249 487 249 487 205 c 0,13,14
 487 156 487 156 495 111 c 128,-1,15
 503 66 503 66 522 10 c 1,16,-1
 447 -7 l 1,17,18
 429 51 429 51 419 106.5 c 128,-1,19
 409 162 409 162 409 222 c 0,20,21
 409 263 409 263 415 299 c 128,-1,22
 421 335 421 335 431.5 363.5 c 128,-1,23
 442 392 442 392 453 410 c 1,24,-1
 465 405 l 1,25,26
 408 382 408 382 354 349 c 128,-1,27
 300 316 300 316 248 273 c 128,-1,28
 196 230 196 230 141 175 c 1,29,-1
 82 215 l 1,30,-1
 82 551 l 1,31,-1
 -10 551 l 1,32,-1
 -10 622 l 1,33,-1
 613 622 l 1,0,-1
EndSplineSet
EndChar

StartChar: dhabeng
Encoding: 2471 2471 38
Width: 596
GlyphClass: 2
Flags: W
AnchorPoint: "Anchor-2" 298 622 basechar 0
AnchorPoint: "Anchor-1" 424 0 basechar 0
LayerCount: 2
Fore
SplineSet
606 622 m 1,0,-1
 606 551 l 1,1,-1
 501 551 l 1,2,-1
 501 0 l 1,3,-1
 424 0 l 1,4,5
 394 60 394 60 341.5 110.5 c 128,-1,6
 289 161 289 161 221 196 c 128,-1,7
 153 231 153 231 76 243 c 1,8,-1
 37 339 l 1,9,10
 133 397 133 397 235.5 444 c 128,-1,11
 338 491 338 491 447 524 c 1,12,-1
 424 482 l 1,13,-1
 424 622 l 1,14,-1
 606 622 l 1,0,-1
424 474 m 1,15,-1
 445 446 l 1,16,17
 369 421 369 421 285 384.5 c 128,-1,18
 201 348 201 348 130 304 c 1,19,20
 184 292 184 292 245 263 c 128,-1,21
 306 234 306 234 358 190 c 128,-1,22
 410 146 410 146 438 88 c 1,23,-1
 429 88 l 1,24,25
 427 111 427 111 425.5 134 c 128,-1,26
 424 157 424 157 424 189 c 2,27,-1
 424 474 l 1,15,-1
240 629 m 0,28,29
 252 629 252 629 266 627.5 c 128,-1,30
 280 626 280 626 293 624 c 1,31,-1
 287 552 l 1,32,33
 281 553 281 553 272.5 553.5 c 128,-1,34
 264 554 264 554 251 554 c 0,35,36
 221 554 221 554 204.5 541.5 c 128,-1,37
 188 529 188 529 188 509 c 0,38,39
 188 483 188 483 211 464.5 c 128,-1,40
 234 446 234 446 293 423 c 1,41,-1
 233 378 l 1,42,43
 195 397 195 397 167 418.5 c 128,-1,44
 139 440 139 440 124 466 c 128,-1,45
 109 492 109 492 109 524 c 0,46,47
 109 551 109 551 123 575 c 128,-1,48
 137 599 137 599 166 614 c 128,-1,49
 195 629 195 629 240 629 c 0,28,29
EndSplineSet
EndChar

StartChar: nabeng
Encoding: 2472 2472 39
Width: 604
GlyphClass: 2
Flags: W
AnchorPoint: "Anchor-2" 302 622 basechar 0
AnchorPoint: "Anchor-1" 432 0 basechar 0
LayerCount: 2
Fore
SplineSet
614 622 m 1,0,-1
 614 551 l 1,1,-1
 509 551 l 1,2,-1
 509 0 l 1,3,-1
 432 0 l 1,4,-1
 432 243 l 1,5,-1
 448 187 l 1,6,7
 415 233 415 233 376 270 c 128,-1,8
 337 307 337 307 296 329 c 128,-1,9
 255 351 255 351 216 351 c 0,10,11
 179 351 179 351 153.5 331.5 c 128,-1,12
 128 312 128 312 128 274 c 0,13,14
 128 244 128 244 149 222.5 c 128,-1,15
 170 201 170 201 214 184 c 1,16,-1
 176 113 l 1,17,18
 115 138 115 138 80.5 180.5 c 128,-1,19
 46 223 46 223 46 277 c 0,20,21
 46 326 46 326 69.5 358.5 c 128,-1,22
 93 391 93 391 129.5 407 c 128,-1,23
 166 423 166 423 204 423 c 0,24,25
 256 423 256 423 299 405 c 128,-1,26
 342 387 342 387 379.5 356 c 128,-1,27
 417 325 417 325 451 284 c 1,28,-1
 437 280 l 1,29,30
 434 303 434 303 433 325.5 c 128,-1,31
 432 348 432 348 432 371 c 2,32,-1
 432 551 l 1,33,-1
 -10 551 l 1,34,-1
 -10 622 l 1,35,-1
 614 622 l 1,0,-1
EndSplineSet
EndChar

StartChar: pabeng
Encoding: 2474 2474 40
Width: 716
GlyphClass: 2
Flags: W
AnchorPoint: "Anchor-2" 358 622 basechar 0
AnchorPoint: "Anchor-1" 544 0 basechar 0
AnchorPoint: "Anchor-0" 483 622 basechar 0
LayerCount: 2
Fore
SplineSet
726 622 m 1,0,-1
 726 551 l 1,1,-1
 621 551 l 1,2,-1
 621 0 l 1,3,-1
 544 0 l 1,4,-1
 544 396 l 1,5,-1
 566 332 l 1,6,7
 525 392 525 392 491 434.5 c 128,-1,8
 457 477 457 477 426.5 504 c 128,-1,9
 396 531 396 531 365 543.5 c 128,-1,10
 334 556 334 556 298 556 c 0,11,12
 258 556 258 556 225.5 541 c 128,-1,13
 193 526 193 526 166 501 c 128,-1,14
 139 476 139 476 116 447 c 1,15,-1
 108 445 l 1,16,17
 124 455 124 455 139.5 460 c 128,-1,18
 155 465 155 465 174 465 c 0,19,20
 232 465 232 465 259 433.5 c 128,-1,21
 286 402 286 402 286 356 c 0,22,23
 286 345 286 345 285 335 c 128,-1,24
 284 325 284 325 282 320 c 1,25,-1
 265 326 l 1,26,27
 277 339 277 339 288 351 c 128,-1,28
 299 363 299 363 311.5 375 c 128,-1,29
 324 387 324 387 337 400 c 2,30,-1
 461 516 l 1,31,-1
 510 463 l 1,32,-1
 226 195 l 1,33,-1
 167 250 l 1,34,-1
 249 328 l 1,35,-1
 213 285 l 1,36,-1
 183 262 l 1,37,38
 198 279 198 279 208.5 298.5 c 128,-1,39
 219 318 219 318 219 343 c 256,40,41
 219 368 219 368 204 383 c 128,-1,42
 189 398 189 398 160 398 c 0,43,44
 144 398 144 398 129 394 c 128,-1,45
 114 390 114 390 98 380 c 1,46,-1
 22 452 l 1,47,48
 62 505 62 505 104 544.5 c 128,-1,49
 146 584 146 584 192 606.5 c 128,-1,50
 238 629 238 629 291 629 c 0,51,52
 347 629 347 629 392 608 c 128,-1,53
 437 587 437 587 479 545.5 c 128,-1,54
 521 504 521 504 567 441 c 1,55,-1
 549 446 l 1,56,57
 546 470 546 470 545 498 c 128,-1,58
 544 526 544 526 544 558 c 2,59,-1
 544 688 l 1,60,-1
 597 688 l 1,61,-1
 620 622 l 1,62,-1
 726 622 l 1,0,-1
EndSplineSet
MultipleSubs2: "Multiple Substitution lookup 9 subtable" pabeng wavebeng
EndChar

StartChar: phabeng
Encoding: 2475 2475 41
Width: 838
GlyphClass: 2
Flags: W
AnchorPoint: "Anchor-2" 419 622 basechar 0
AnchorPoint: "Anchor-1" 445 0 basechar 0
AnchorPoint: "Anchor-0" 445 622 basechar 0
LayerCount: 2
Fore
SplineSet
848 622 m 1,0,-1
 848 551 l 1,1,-1
 130 551 l 1,2,-1
 114 560 l 1,3,4
 156 550 156 550 198.5 528 c 128,-1,5
 241 506 241 506 277.5 480.5 c 128,-1,6
 314 455 314 455 336 432 c 1,7,-1
 341 376 l 1,8,9
 305 360 305 360 265.5 341 c 128,-1,10
 226 322 226 322 189.5 303 c 128,-1,11
 153 284 153 284 125 265 c 1,12,-1
 114 282 l 1,13,14
 192 266 192 266 251 241 c 128,-1,15
 310 216 310 216 357 181 c 128,-1,16
 404 146 404 146 447 99 c 1,17,18
 446 116 446 116 445.5 134 c 128,-1,19
 445 152 445 152 445 171 c 2,20,-1
 445 510 l 1,21,-1
 458 510 l 2,22,23
 513 510 513 510 564.5 501 c 128,-1,24
 616 492 616 492 660.5 471 c 128,-1,25
 705 450 705 450 739 414 c 0,26,27
 763 389 763 389 777.5 357.5 c 128,-1,28
 792 326 792 326 792 288 c 0,29,30
 792 255 792 255 778.5 225.5 c 128,-1,31
 765 196 765 196 735 177 c 128,-1,32
 705 158 705 158 655 158 c 0,33,34
 640 158 640 158 625.5 159 c 128,-1,35
 611 160 611 160 597 163 c 1,36,-1
 602 234 l 1,37,38
 608 233 608 233 617 232.5 c 128,-1,39
 626 232 626 232 636 232 c 0,40,41
 685 232 685 232 699.5 251 c 128,-1,42
 714 270 714 270 714 296 c 0,43,44
 714 347 714 347 662.5 386 c 128,-1,45
 611 425 611 425 522 434 c 1,46,-1
 522 0 l 1,47,-1
 445 0 l 1,48,49
 404 56 404 56 354.5 98 c 128,-1,50
 305 140 305 140 239.5 168.5 c 128,-1,51
 174 197 174 197 84 212 c 1,52,-1
 48 303 l 1,53,54
 79 324 79 324 113 343 c 128,-1,55
 147 362 147 362 182.5 380 c 128,-1,56
 218 398 218 398 252 414 c 1,57,58
 214 443 214 443 164.5 465.5 c 128,-1,59
 115 488 115 488 48 502 c 1,60,-1
 79 570 l 1,61,-1
 81 551 l 1,62,-1
 -10 551 l 1,63,-1
 -10 622 l 1,64,-1
 848 622 l 1,0,-1
EndSplineSet
MultipleSubs2: "Multiple Substitution lookup 9 subtable" phabeng wavebeng
EndChar

StartChar: babeng
Encoding: 2476 2476 42
Width: 596
GlyphClass: 2
Flags: W
AnchorPoint: "Anchor-2" 298 622 basechar 0
AnchorPoint: "Anchor-1" 424 0 basechar 0
LayerCount: 2
Fore
SplineSet
606 622 m 1,0,-1
 606 551 l 1,1,-1
 501 551 l 1,2,-1
 501 0 l 1,3,-1
 424 0 l 1,4,5
 394 60 394 60 341.5 110.5 c 128,-1,6
 289 161 289 161 221 196 c 128,-1,7
 153 231 153 231 76 243 c 1,8,-1
 37 339 l 1,9,10
 133 397 133 397 235.5 444 c 128,-1,11
 338 491 338 491 447 524 c 1,12,-1
 424 482 l 1,13,-1
 424 551 l 1,14,-1
 -10 551 l 1,15,-1
 -10 622 l 1,16,-1
 606 622 l 1,0,-1
424 474 m 1,17,-1
 445 446 l 1,18,19
 369 421 369 421 285 384.5 c 128,-1,20
 201 348 201 348 130 304 c 1,21,22
 184 292 184 292 245 263 c 128,-1,23
 306 234 306 234 358 190 c 128,-1,24
 410 146 410 146 438 88 c 1,25,-1
 429 88 l 1,26,27
 427 111 427 111 425.5 134 c 128,-1,28
 424 157 424 157 424 189 c 2,29,-1
 424 474 l 1,17,-1
EndSplineSet
EndChar

StartChar: bhabeng
Encoding: 2477 2477 43
Width: 721
GlyphClass: 2
Flags: W
AnchorPoint: "Anchor-2" 360 622 basechar 0
AnchorPoint: "Anchor-1" 434 0 basechar 0
AnchorPoint: "Anchor-0" 384 622 basechar 0
LayerCount: 2
Fore
SplineSet
422 43 m 0,0,1
 357 43 357 43 300 64 c 128,-1,2
 243 85 243 85 193.5 134 c 128,-1,3
 144 183 144 183 103 264 c 128,-1,4
 62 345 62 345 29 465 c 1,5,-1
 105 485 l 1,6,7
 141 353 141 353 186.5 272.5 c 128,-1,8
 232 192 232 192 289.5 155.5 c 128,-1,9
 347 119 347 119 420 119 c 0,10,11
 473 119 473 119 510.5 138 c 128,-1,12
 548 157 548 157 568 190.5 c 128,-1,13
 588 224 588 224 588 267 c 0,14,15
 588 297 588 297 582 321 c 128,-1,16
 576 345 576 345 565.5 364.5 c 128,-1,17
 555 384 555 384 542 398 c 1,18,-1
 590 476 l 1,19,20
 628 421 628 421 646 369 c 128,-1,21
 664 317 664 317 664 266 c 0,22,23
 664 203 664 203 636 152.5 c 128,-1,24
 608 102 608 102 554.5 72.5 c 128,-1,25
 501 43 501 43 422 43 c 0,0,1
384 284 m 0,26,27
 321 284 321 284 285 315.5 c 128,-1,28
 249 347 249 347 249 402 c 0,29,30
 249 425 249 425 256 447.5 c 128,-1,31
 263 470 263 470 271 486 c 1,32,-1
 351 462 l 1,33,34
 344 452 344 452 338 437 c 128,-1,35
 332 422 332 422 332 406 c 0,36,37
 332 379 332 379 347 367 c 128,-1,38
 362 355 362 355 386 355 c 0,39,40
 407 355 407 355 428 363 c 128,-1,41
 449 371 449 371 473.5 394.5 c 128,-1,42
 498 418 498 418 527 466 c 1,43,-1
 590 476 l 1,44,-1
 582 422 l 1,45,46
 555 377 555 377 525.5 346.5 c 128,-1,47
 496 316 496 316 461.5 300 c 128,-1,48
 427 284 427 284 384 284 c 0,26,27
731 622 m 1,49,-1
 731 551 l 1,50,-1
 -10 551 l 1,51,-1
 -10 622 l 1,52,-1
 731 622 l 1,49,-1
EndSplineSet
EndChar

StartChar: mabeng
Encoding: 2478 2478 44
Width: 622
GlyphClass: 2
Flags: W
AnchorPoint: "Anchor-2" 311 622 basechar 0
AnchorPoint: "Anchor-1" 450 0 basechar 0
LayerCount: 2
Fore
SplineSet
632 622 m 1,0,-1
 632 551 l 1,1,-1
 527 551 l 1,2,-1
 527 0 l 1,3,-1
 450 0 l 1,4,-1
 450 135 l 1,5,-1
 468 82 l 1,6,7
 433 135 433 135 397.5 180 c 128,-1,8
 362 225 362 225 322.5 253 c 128,-1,9
 283 281 283 281 236 281 c 0,10,11
 199 281 199 281 173.5 262 c 128,-1,12
 148 243 148 243 148 205 c 0,13,14
 148 172 148 172 172 149.5 c 128,-1,15
 196 127 196 127 243 111 c 1,16,-1
 218 34 l 1,17,18
 164 53 164 53 130.5 80 c 128,-1,19
 97 107 97 107 81.5 139.5 c 128,-1,20
 66 172 66 172 66 208 c 0,21,22
 66 256 66 256 89.5 288 c 128,-1,23
 113 320 113 320 149.5 336.5 c 128,-1,24
 186 353 186 353 223 353 c 0,25,26
 283 353 283 353 328.5 331 c 128,-1,27
 374 309 374 309 408.5 272 c 128,-1,28
 443 235 443 235 471 189 c 1,29,-1
 454 186 l 1,30,31
 452 209 452 209 451 232.5 c 128,-1,32
 450 256 450 256 450 281 c 2,33,-1
 450 551 l 1,34,-1
 -10 551 l 1,35,-1
 -10 622 l 1,36,-1
 632 622 l 1,0,-1
299 323 m 0,37,38
 299 317 299 317 298.5 311 c 128,-1,39
 298 305 298 305 297 299 c 1,40,-1
 221 322 l 1,41,42
 219 380 219 380 201 415 c 128,-1,43
 183 450 183 450 144 468.5 c 128,-1,44
 105 487 105 487 38 494 c 1,45,-1
 51 566 l 1,46,-1
 97 553 l 1,47,48
 145 549 145 549 182.5 533.5 c 128,-1,49
 220 518 220 518 246 490 c 128,-1,50
 272 462 272 462 285.5 420.5 c 128,-1,51
 299 379 299 379 299 323 c 0,37,38
EndSplineSet
EndChar

StartChar: yabeng
Encoding: 2479 2479 45
Width: 626
GlyphClass: 2
Flags: W
AnchorPoint: "Anchor-2" 313 622 basechar 0
AnchorPoint: "Anchor-1" 454 0 basechar 0
LayerCount: 2
Fore
SplineSet
636 622 m 1,0,-1
 636 551 l 1,1,-1
 531 551 l 1,2,-1
 531 0 l 1,3,-1
 454 0 l 1,4,5
 412 56 412 56 361 98.5 c 128,-1,6
 310 141 310 141 243 170 c 128,-1,7
 176 199 176 199 84 212 c 1,8,-1
 48 303 l 1,9,10
 79 324 79 324 113 343 c 128,-1,11
 147 362 147 362 182.5 380 c 128,-1,12
 218 398 218 398 252 414 c 1,13,14
 214 443 214 443 164.5 465.5 c 128,-1,15
 115 488 115 488 48 502 c 1,16,-1
 79 570 l 1,17,-1
 81 551 l 1,18,-1
 -10 551 l 1,19,-1
 -10 622 l 1,20,-1
 636 622 l 1,0,-1
454 551 m 1,21,-1
 135 551 l 1,22,-1
 114 560 l 1,23,24
 156 550 156 550 198.5 528 c 128,-1,25
 241 506 241 506 277.5 480.5 c 128,-1,26
 314 455 314 455 336 432 c 1,27,-1
 341 376 l 1,28,29
 305 360 305 360 265.5 341 c 128,-1,30
 226 322 226 322 189.5 303 c 128,-1,31
 153 284 153 284 125 265 c 1,32,-1
 113 280 l 1,33,34
 199 268 199 268 263.5 240 c 128,-1,35
 328 212 328 212 378 172 c 128,-1,36
 428 132 428 132 470 83 c 1,37,-1
 457 79 l 1,38,39
 456 100 456 100 455 124.5 c 128,-1,40
 454 149 454 149 454 171 c 2,41,-1
 454 551 l 1,21,-1
EndSplineSet
EndChar

StartChar: labeng
Encoding: 2482 2482 47
Width: 731
GlyphClass: 2
Flags: W
AnchorPoint: "Anchor-2" 365 622 basechar 0
AnchorPoint: "Anchor-1" 559 0 basechar 0
LayerCount: 2
Fore
SplineSet
741 622 m 1,0,-1
 741 551 l 1,1,-1
 636 551 l 1,2,-1
 636 0 l 1,3,-1
 559 0 l 1,4,-1
 559 335 l 1,5,-1
 565 309 l 1,6,7
 543 341 543 341 518.5 360 c 128,-1,8
 494 379 494 379 465 379 c 0,9,10
 450 379 450 379 434.5 373.5 c 128,-1,11
 419 368 419 368 408.5 353 c 128,-1,12
 398 338 398 338 398 307 c 0,13,14
 398 296 398 296 398.5 287.5 c 128,-1,15
 399 279 399 279 400 271 c 1,16,-1
 335 266 l 1,17,18
 331 307 331 307 313 335.5 c 128,-1,19
 295 364 295 364 269 379 c 128,-1,20
 243 394 243 394 213 394 c 0,21,22
 186 394 186 394 167 383.5 c 128,-1,23
 148 373 148 373 138 355.5 c 128,-1,24
 128 338 128 338 128 316 c 0,25,26
 128 276 128 276 157.5 248 c 128,-1,27
 187 220 187 220 241 201 c 1,28,-1
 214 127 l 1,29,30
 166 142 166 142 128 168 c 128,-1,31
 90 194 90 194 68 232 c 128,-1,32
 46 270 46 270 46 320 c 0,33,34
 46 365 46 365 68 397.5 c 128,-1,35
 90 430 90 430 127 448 c 128,-1,36
 164 466 164 466 208 466 c 0,37,38
 261 466 261 466 299 446.5 c 128,-1,39
 337 427 337 427 369 384 c 1,40,-1
 354 383 l 1,41,42
 364 416 364 416 392.5 433.5 c 128,-1,43
 421 451 421 451 452 451 c 0,44,45
 488 451 488 451 514 437 c 128,-1,46
 540 423 540 423 571 397 c 1,47,-1
 562 382 l 1,48,49
 561 403 561 403 560 424 c 128,-1,50
 559 445 559 445 559 467 c 2,51,-1
 559 551 l 1,52,-1
 -10 551 l 1,53,-1
 -10 622 l 1,54,-1
 741 622 l 1,0,-1
EndSplineSet
EndChar

StartChar: shabeng
Encoding: 2486 2486 48
Width: 677
GlyphClass: 2
Flags: W
AnchorPoint: "Anchor-2" 338 622 basechar 0
AnchorPoint: "Anchor-1" 505 0 basechar 0
AnchorPoint: "Anchor-0" 444 622 basechar 0
LayerCount: 2
Fore
SplineSet
687 622 m 1,0,-1
 687 551 l 1,1,-1
 582 551 l 1,2,-1
 582 0 l 1,3,-1
 505 0 l 1,4,-1
 505 512 l 1,5,-1
 510 532 l 1,6,7
 507 549 507 549 506 567 c 128,-1,8
 505 585 505 585 505 607 c 2,9,-1
 505 688 l 1,10,-1
 558 688 l 1,11,-1
 582 622 l 1,12,-1
 687 622 l 1,0,-1
361 629 m 0,13,14
 400 629 400 629 433 614 c 128,-1,15
 466 599 466 599 492 572 c 128,-1,16
 518 545 518 545 534 509 c 1,17,-1
 530 404 l 1,18,19
 499 476 499 476 457 516 c 128,-1,20
 415 556 415 556 363 556 c 0,21,22
 324 556 324 556 300 534.5 c 128,-1,23
 276 513 276 513 276 471 c 0,24,25
 276 431 276 431 308.5 405.5 c 128,-1,26
 341 380 341 380 413 377 c 1,27,-1
 406 300 l 1,28,29
 340 304 340 304 297.5 327 c 128,-1,30
 255 350 255 350 235 387.5 c 128,-1,31
 215 425 215 425 215 474 c 0,32,33
 215 527 215 527 236 561.5 c 128,-1,34
 257 596 257 596 290.5 612.5 c 128,-1,35
 324 629 324 629 361 629 c 0,13,14
77 629 m 0,36,37
 119 629 119 629 156.5 612 c 128,-1,38
 194 595 194 595 218 558 c 128,-1,39
 242 521 242 521 242 461 c 0,40,41
 242 420 242 420 222 383 c 128,-1,42
 202 346 202 346 160.5 323 c 128,-1,43
 119 300 119 300 54 300 c 1,44,-1
 48 377 l 1,45,46
 99 378 99 378 128 391.5 c 128,-1,47
 157 405 157 405 169 426 c 128,-1,48
 181 447 181 447 181 468 c 0,49,50
 181 509 181 509 155 532.5 c 128,-1,51
 129 556 129 556 76 556 c 0,52,53
 58 556 58 556 40.5 553.5 c 128,-1,54
 23 551 23 551 -1 545 c 1,55,-1
 -9 620 l 1,56,57
 16 625 16 625 35.5 627 c 128,-1,58
 55 629 55 629 77 629 c 0,36,37
EndSplineSet
EndChar

StartChar: ssabeng
Encoding: 2487 2487 49
Width: 633
GlyphClass: 2
Flags: W
AnchorPoint: "Anchor-2" 316 622 basechar 0
AnchorPoint: "Anchor-1" 461 0 basechar 0
LayerCount: 2
Fore
SplineSet
643 622 m 1,0,-1
 643 551 l 1,1,-1
 538 551 l 1,2,-1
 538 0 l 1,3,-1
 461 0 l 1,4,5
 412 58 412 58 360 100.5 c 128,-1,6
 308 143 308 143 242 171 c 128,-1,7
 176 199 176 199 84 212 c 1,8,-1
 48 303 l 1,9,10
 98 335 98 335 157 366.5 c 128,-1,11
 216 398 216 398 280 425 c 1,12,-1
 339 432 l 1,13,-1
 341 376 l 1,14,15
 291 354 291 354 237 327.5 c 128,-1,16
 183 301 183 301 142 275 c 1,17,18
 215 261 215 261 272.5 235.5 c 128,-1,19
 330 210 330 210 376.5 175 c 128,-1,20
 423 140 423 140 463 99 c 1,21,22
 463 116 463 116 462 134 c 128,-1,23
 461 152 461 152 461 171 c 2,24,-1
 461 312 l 1,25,-1
 465 334 l 1,26,27
 464 358 464 358 462.5 383.5 c 128,-1,28
 461 409 461 409 461 434 c 2,29,-1
 461 551 l 1,30,-1
 -10 551 l 1,31,-1
 -10 622 l 1,32,-1
 643 622 l 1,0,-1
77 569 m 1,33,-1
 118 555 l 2,34,35
 180 538 180 538 243.5 507.5 c 128,-1,36
 307 477 307 477 365 437.5 c 128,-1,37
 423 398 423 398 468 355 c 1,38,-1
 467 264 l 1,39,40
 429 306 429 306 379.5 344 c 128,-1,41
 330 382 330 382 274 413.5 c 128,-1,42
 218 445 218 445 160 468 c 128,-1,43
 102 491 102 491 48 502 c 1,44,-1
 77 569 l 1,33,-1
EndSplineSet
EndChar

StartChar: sabeng
Encoding: 2488 2488 50
Width: 682
GlyphClass: 2
Flags: W
AnchorPoint: "Anchor-2" 341 622 basechar 0
AnchorPoint: "Anchor-1" 510 0 basechar 0
LayerCount: 2
Fore
SplineSet
692 622 m 1,0,-1
 692 551 l 1,1,-1
 587 551 l 1,2,-1
 587 0 l 1,3,-1
 510 0 l 1,4,-1
 510 353 l 1,5,-1
 533 290 l 1,6,7
 502 331 502 331 479.5 353 c 128,-1,8
 457 375 457 375 436 375 c 0,9,10
 422 375 422 375 410 367 c 128,-1,11
 398 359 398 359 383 336.5 c 128,-1,12
 368 314 368 314 343 268 c 0,13,14
 316 219 316 219 294 187.5 c 128,-1,15
 272 156 272 156 247.5 141.5 c 128,-1,16
 223 127 223 127 188 127 c 0,17,18
 161 127 161 127 136.5 138 c 128,-1,19
 112 149 112 149 87.5 174.5 c 128,-1,20
 63 200 63 200 35 244 c 1,21,-1
 96 281 l 1,22,23
 123 233 123 233 141 218 c 128,-1,24
 159 203 159 203 180 203 c 0,25,26
 197 203 197 203 212.5 213.5 c 128,-1,27
 228 224 228 224 246.5 250 c 128,-1,28
 265 276 265 276 289 321 c 1,29,-1
 312 354 l 1,30,31
 338 408 338 408 362 428.5 c 128,-1,32
 386 449 386 449 415 449 c 0,33,34
 448 449 448 449 474.5 430.5 c 128,-1,35
 501 412 501 412 536 374 c 1,36,-1
 516 373 l 1,37,38
 512 396 512 396 511 416.5 c 128,-1,39
 510 437 510 437 510 458 c 2,40,-1
 510 551 l 1,41,-1
 -10 551 l 1,42,-1
 -10 622 l 1,43,-1
 692 622 l 1,0,-1
271 271 m 1,44,45
 261 339 261 339 250.5 379 c 128,-1,46
 240 419 240 419 214 441 c 0,47,48
 189 464 189 464 146 475.5 c 128,-1,49
 103 487 103 487 38 495 c 1,50,-1
 53 571 l 1,51,-1
 107 551 l 1,52,53
 164 542 164 542 202 528 c 128,-1,54
 240 514 240 514 263.5 491.5 c 128,-1,55
 287 469 287 469 299 436 c 128,-1,56
 311 403 311 403 315 356 c 1,57,-1
 271 271 l 1,44,45
EndSplineSet
EndChar

StartChar: habeng
Encoding: 2489 2489 51
Width: 530
GlyphClass: 2
Flags: W
AnchorPoint: "Anchor-2" 265 622 basechar 0
AnchorPoint: "Anchor-1" 268 0 basechar 0
AnchorPoint: "Anchor-0" 233 622 basechar 0
LayerCount: 2
Fore
SplineSet
242 500 m 0,0,1
 321 500 321 500 369.5 473.5 c 128,-1,2
 418 447 418 447 441 406.5 c 128,-1,3
 464 366 464 366 464 325 c 0,4,5
 464 243 464 243 406.5 195 c 128,-1,6
 349 147 349 147 236 141 c 1,7,-1
 246 152 l 1,8,9
 291 139 291 139 341 115 c 128,-1,10
 391 91 391 91 442 59.5 c 128,-1,11
 493 28 493 28 540 -10 c 1,12,-1
 494 -63 l 1,13,14
 432 -17 432 -17 380.5 16.5 c 128,-1,15
 329 50 329 50 279 75 c 128,-1,16
 229 100 229 100 173 119 c 128,-1,17
 117 138 117 138 46 154 c 1,18,-1
 61 223 l 1,19,20
 96 213 96 213 128.5 208.5 c 128,-1,21
 161 204 161 204 207 204 c 0,22,23
 278 204 278 204 316.5 221 c 128,-1,24
 355 238 355 238 370 265 c 128,-1,25
 385 292 385 292 385 320 c 0,26,27
 385 373 385 373 346 401.5 c 128,-1,28
 307 430 307 430 247 430 c 0,29,30
 211 430 211 430 189 423 c 128,-1,31
 167 416 167 416 157.5 402.5 c 128,-1,32
 148 389 148 389 148 370 c 0,33,34
 148 362 148 362 150 353.5 c 128,-1,35
 152 345 152 345 154 338 c 1,36,-1
 81 323 l 1,37,38
 76 338 76 338 73 354.5 c 128,-1,39
 70 371 70 371 70 384 c 0,40,41
 70 421 70 421 92 447 c 128,-1,42
 114 473 114 473 152.5 486.5 c 128,-1,43
 191 500 191 500 242 500 c 0,0,1
175 465 m 1,44,45
 170 497 170 497 145 521.5 c 128,-1,46
 120 546 120 546 73 556 c 1,47,-1
 97 601 l 1,48,-1
 143 589 l 1,49,50
 199 567 199 567 224.5 539 c 128,-1,51
 250 511 250 511 254 468 c 1,52,-1
 175 465 l 1,44,45
540 622 m 1,53,-1
 540 551 l 1,54,-1
 -10 551 l 1,55,-1
 -10 622 l 1,56,-1
 540 622 l 1,53,-1
EndSplineSet
EndChar

StartChar: nuktabeng
Encoding: 2492 2492 52
Width: 0
GlyphClass: 4
Flags: W
LayerCount: 2
Fore
SplineSet
-255 -183 m 256,0,1
 -280 -183 -280 -183 -297.5 -167 c 128,-1,2
 -315 -151 -315 -151 -315 -125 c 256,3,4
 -315 -99 -315 -99 -297.5 -82 c 128,-1,5
 -280 -65 -280 -65 -255 -65 c 256,6,7
 -230 -65 -230 -65 -212.5 -82 c 128,-1,8
 -195 -99 -195 -99 -195 -125 c 256,9,10
 -195 -151 -195 -151 -212.5 -167 c 128,-1,11
 -230 -183 -230 -183 -255 -183 c 256,0,1
EndSplineSet
EndChar

StartChar: avagrahabeng
Encoding: 2493 2493 53
Width: 530
GlyphClass: 2
Flags: W
AnchorPoint: "Anchor-2" 265 622 basechar 0
LayerCount: 2
Fore
SplineSet
242 500 m 0,0,1
 321 500 321 500 369.5 473.5 c 128,-1,2
 418 447 418 447 441 406.5 c 128,-1,3
 464 366 464 366 464 325 c 0,4,5
 464 243 464 243 406.5 195 c 128,-1,6
 349 147 349 147 236 141 c 1,7,-1
 246 152 l 1,8,9
 291 139 291 139 341 115 c 128,-1,10
 391 91 391 91 442 59.5 c 128,-1,11
 493 28 493 28 540 -10 c 1,12,-1
 494 -63 l 1,13,14
 432 -17 432 -17 380.5 16.5 c 128,-1,15
 329 50 329 50 279 75 c 128,-1,16
 229 100 229 100 173 119 c 128,-1,17
 117 138 117 138 46 154 c 1,18,-1
 61 223 l 1,19,20
 96 213 96 213 128.5 208.5 c 128,-1,21
 161 204 161 204 207 204 c 0,22,23
 278 204 278 204 316.5 221 c 128,-1,24
 355 238 355 238 370 265 c 128,-1,25
 385 292 385 292 385 320 c 0,26,27
 385 373 385 373 346 401.5 c 128,-1,28
 307 430 307 430 247 430 c 0,29,30
 211 430 211 430 189 423 c 128,-1,31
 167 416 167 416 157.5 402.5 c 128,-1,32
 148 389 148 389 148 370 c 0,33,34
 148 362 148 362 150 353.5 c 128,-1,35
 152 345 152 345 154 338 c 1,36,-1
 81 323 l 1,37,38
 76 338 76 338 73 354.5 c 128,-1,39
 70 371 70 371 70 384 c 0,40,41
 70 421 70 421 92 447 c 128,-1,42
 114 473 114 473 152.5 486.5 c 128,-1,43
 191 500 191 500 242 500 c 0,0,1
276 622 m 1,44,-1
 276 495 l 1,45,-1
 200 480 l 1,46,-1
 200 551 l 1,47,-1
 -10 551 l 1,48,-1
 -10 622 l 1,49,-1
 276 622 l 1,44,-1
EndSplineSet
EndChar

StartChar: aavowelsignbeng
Encoding: 2494 2494 54
Width: 266
GlyphClass: 2
Flags: W
AnchorPoint: "Anchor-2" -203 622 basechar 0
AnchorPoint: "Anchor-0" 33 622 basechar 0
LayerCount: 2
Fore
SplineSet
276 622 m 1,0,-1
 276 551 l 1,1,-1
 171 551 l 1,2,-1
 171 0 l 1,3,-1
 94 0 l 1,4,-1
 94 469 l 1,5,6
 82 503 82 503 58.5 527 c 128,-1,7
 35 551 35 551 -2 551 c 2,8,-1
 -10 551 l 1,9,-1
 -10 622 l 1,10,-1
 5 622 l 2,11,12
 29 622 29 622 55 606.5 c 128,-1,13
 81 591 81 591 97 559 c 1,14,15
 96 564 96 564 95 582 c 128,-1,16
 94 600 94 600 94 613 c 2,17,-1
 94 688 l 1,18,-1
 148 688 l 1,19,-1
 170 622 l 1,20,-1
 276 622 l 1,0,-1
EndSplineSet
Substitution2: "Single Substitution lookup 6 subtable" candrabindubeng
Substitution2: "'aalt' Access All Alternates in Bengali2 lookup 0 subtable" candrabindubeng
EndChar

StartChar: ivowelsignbeng
Encoding: 2495 2495 55
Width: 266
Flags: W
LayerCount: 2
Fore
SplineSet
276 622 m 1,0,-1
 276 551 l 1,1,-1
 171 551 l 1,2,-1
 171 0 l 1,3,-1
 94 0 l 1,4,-1
 94 551 l 1,5,-1
 -10 551 l 1,6,-1
 -10 622 l 1,7,-1
 82 622 l 1,8,9
 66 641 66 641 49.5 662 c 128,-1,10
 33 683 33 683 20 704 c 1,11,12
 54 763 54 763 93 811.5 c 128,-1,13
 132 860 132 860 185 888.5 c 128,-1,14
 238 917 238 917 313 917 c 0,15,16
 366 917 366 917 414.5 904 c 128,-1,17
 463 891 463 891 510 866.5 c 128,-1,18
 557 842 557 842 605 807.5 c 128,-1,19
 653 773 653 773 705 731 c 1,20,-1
 663 677 l 1,21,22
 594 733 594 733 538.5 770 c 128,-1,23
 483 807 483 807 432.5 825.5 c 128,-1,24
 382 844 382 844 325 844 c 0,25,26
 270 844 270 844 229.5 825 c 128,-1,27
 189 806 189 806 159.5 772 c 128,-1,28
 130 738 130 738 106 693 c 1,29,30
 114 678 114 678 128 660 c 128,-1,31
 142 642 142 642 160 622 c 1,32,-1
 276 622 l 1,0,-1
EndSplineSet
Substitution2: "Single Substitution lookup 46 subtable" ivowelsign4beng
Substitution2: "Single Substitution lookup 45 subtable" ivowelsign3beng
Substitution2: "Single Substitution lookup 44 subtable" ivowelsign2beng
Substitution2: "Single Substitution lookup 43 subtable" ivowelsign1beng
Substitution2: "Single Substitution lookup 31 subtable" ivowelsignshortbeng
Substitution2: "Single Substitution lookup 19 subtable" ivowelsigncandrabindbeng
AlternateSubs2: "'aalt' Access All Alternates in Bengali2 lookup 1 subtable" ivowelsignshortbeng ivowelsign1beng ivowelsign2beng ivowelsign3beng ivowelsign4beng ivowelsigncandrabindbeng
EndChar

StartChar: iivowelsignbeng
Encoding: 2496 2496 56
Width: 266
GlyphClass: 2
Flags: W
AnchorPoint: "Anchor-2" -203 622 basechar 0
LayerCount: 2
Fore
SplineSet
276 551 m 1,0,-1
 171 551 l 1,1,-1
 171 0 l 1,2,-1
 94 0 l 1,3,-1
 94 551 l 1,4,-1
 -10 551 l 1,5,-1
 -10 622 l 1,6,-1
 94 622 l 1,7,8
 90 687 90 687 60.5 731 c 128,-1,9
 31 775 31 775 -16.5 800.5 c 128,-1,10
 -64 826 -64 826 -124.5 837 c 128,-1,11
 -185 848 -185 848 -252 848 c 0,12,13
 -311 848 -311 848 -353.5 841.5 c 128,-1,14
 -396 835 -396 835 -419 823 c 128,-1,15
 -442 811 -442 811 -442 792 c 256,16,17
 -442 773 -442 773 -418 768 c 128,-1,18
 -394 763 -394 763 -365 763 c 2,19,-1
 -269 763 l 2,20,21
 -216 763 -216 763 -185 754 c 128,-1,22
 -154 745 -154 745 -135 725 c 0,23,24
 -116 706 -116 706 -108 680 c 128,-1,25
 -100 654 -100 654 -100 615 c 1,26,-1
 -167 615 l 1,27,28
 -168 639 -168 639 -173 654.5 c 128,-1,29
 -178 670 -178 670 -189 678 c 0,30,31
 -199 686 -199 686 -213.5 689 c 128,-1,32
 -228 692 -228 692 -254 692 c 2,33,-1
 -353 692 l 2,34,35
 -394 692 -394 692 -425 697.5 c 128,-1,36
 -456 703 -456 703 -476 713 c 0,37,38
 -501 727 -501 727 -511 747 c 128,-1,39
 -521 767 -521 767 -521 789 c 0,40,41
 -521 847 -521 847 -456 882 c 128,-1,42
 -391 917 -391 917 -258 917 c 0,43,44
 -55 917 -55 917 54.5 845.5 c 128,-1,45
 164 774 164 774 174 622 c 1,46,-1
 276 622 l 1,47,-1
 276 551 l 1,0,-1
EndSplineSet
Substitution2: "Single Substitution lookup 60 subtable" iivowelsignshortbeng
Substitution2: "Single Substitution lookup 38 subtable" iivowelsignaltbeng
Substitution2: "Single Substitution lookup 31 subtable" iivowelsignshortbeng
AlternateSubs2: "'aalt' Access All Alternates in Bengali2 lookup 1 subtable" iivowelsignaltbeng iivowelsignshortbeng
EndChar

StartChar: uvowelsignbeng
Encoding: 2497 2497 57
Width: 0
GlyphClass: 4
Flags: W
AnchorPoint: "Anchor-4" -172 0 mark 0
AnchorPoint: "Anchor-1" -172 0 mark 0
LayerCount: 2
Fore
SplineSet
-286 -266 m 0,0,1
 -313 -266 -313 -266 -345 -254.5 c 128,-1,2
 -377 -243 -377 -243 -399.5 -218 c 128,-1,3
 -422 -193 -422 -193 -422 -151 c 0,4,5
 -422 -100 -422 -100 -383 -69.5 c 128,-1,6
 -344 -39 -344 -39 -274 -39 c 0,7,8
 -212 -39 -212 -39 -154.5 -61.5 c 128,-1,9
 -97 -84 -97 -84 -37.5 -124 c 128,-1,10
 22 -164 22 -164 89 -217 c 1,11,-1
 44 -271 l 1,12,13
 -23 -215 -23 -215 -78 -178 c 128,-1,14
 -133 -141 -133 -141 -182 -122 c 128,-1,15
 -231 -103 -231 -103 -279 -103 c 0,16,17
 -315 -103 -315 -103 -333 -117 c 128,-1,18
 -351 -131 -351 -131 -351 -153 c 0,19,20
 -351 -181 -351 -181 -331.5 -192.5 c 128,-1,21
 -312 -204 -312 -204 -286 -204 c 0,22,23
 -249 -204 -249 -204 -226.5 -188.5 c 128,-1,24
 -204 -173 -204 -173 -192 -150 c 128,-1,25
 -180 -127 -180 -127 -176 -102.5 c 128,-1,26
 -172 -78 -172 -78 -172 -59 c 2,27,-1
 -172 8 l 1,28,-1
 -95 8 l 1,29,-1
 -95 -45 l 2,30,31
 -95 -73 -95 -73 -101.5 -110.5 c 128,-1,32
 -108 -148 -108 -148 -127.5 -183.5 c 128,-1,33
 -147 -219 -147 -219 -185 -242.5 c 128,-1,34
 -223 -266 -223 -266 -286 -266 c 0,0,1
EndSplineSet
Substitution2: "Single Substitution lookup 58 subtable" uvowelsigntallbeng
Substitution2: "Single Substitution lookup 57 subtable" uvowelsignlongbeng
Substitution2: "Single Substitution lookup 54 subtable" uinterpolatelowerbeng
Substitution2: "Single Substitution lookup 53 subtable" uinterpolatevattubeng
Substitution2: "Single Substitution lookup 52 subtable" uvowelsignlowerbeng
Substitution2: "Single Substitution lookup 51 subtable" uvowelsignlowbeng
Substitution2: "Single Substitution lookup 50 subtable" uvowelsignvattubeng
AlternateSubs2: "'aalt' Access All Alternates in Bengali2 lookup 1 subtable" uvowelsignvattubeng uinterpolatevattubeng uvowelsignlowbeng uvowelsignlowerbeng uinterpolatelowerbeng uvowelsignlongbeng uvowelsigntallbeng
EndChar

StartChar: uuvowelsignbeng
Encoding: 2498 2498 58
Width: 0
GlyphClass: 4
Flags: W
AnchorPoint: "Anchor-4" -172 0 mark 0
AnchorPoint: "Anchor-1" -172 0 mark 0
LayerCount: 2
Fore
SplineSet
-177 -241 m 0,0,1
 -207 -241 -207 -241 -237.5 -230.5 c 128,-1,2
 -268 -220 -268 -220 -288 -197 c 128,-1,3
 -308 -174 -308 -174 -308 -137 c 0,4,5
 -308 -87 -308 -87 -268 -62 c 128,-1,6
 -228 -37 -228 -37 -172 -36 c 1,7,-1
 -172 8 l 1,8,-1
 -95 8 l 1,9,-1
 -95 -56 l 1,10,-1
 -128 -102 l 1,11,12
 -135 -101 -135 -101 -144.5 -100.5 c 128,-1,13
 -154 -100 -154 -100 -165 -100 c 0,14,15
 -199 -100 -199 -100 -217 -110 c 128,-1,16
 -235 -120 -235 -120 -235 -140 c 0,17,18
 -235 -159 -235 -159 -219 -169 c 128,-1,19
 -203 -179 -203 -179 -179 -179 c 0,20,21
 -137 -179 -137 -179 -103 -159 c 128,-1,22
 -69 -139 -69 -139 -38 -102 c 1,23,24
 7 -122 7 -122 62.5 -154 c 128,-1,25
 118 -186 118 -186 163 -218 c 1,26,-1
 121 -271 l 1,27,28
 84 -243 84 -243 46 -220 c 128,-1,29
 8 -197 8 -197 -22 -183 c 1,30,31
 -42 -201 -42 -201 -66 -214 c 128,-1,32
 -90 -227 -90 -227 -117.5 -234 c 128,-1,33
 -145 -241 -145 -241 -177 -241 c 0,0,1
EndSplineSet
Substitution2: "Single Substitution lookup 58 subtable" uuvowelsigntallbeng
Substitution2: "Single Substitution lookup 57 subtable" uuvowelsignlongbeng
Substitution2: "Single Substitution lookup 54 subtable" uuinterpolatebeng
Substitution2: "Single Substitution lookup 53 subtable" uuinterpolatevattubeng
Substitution2: "Single Substitution lookup 52 subtable" uuvowelsignlowerbeng
Substitution2: "Single Substitution lookup 51 subtable" uuvowelsignlowbeng
Substitution2: "Single Substitution lookup 50 subtable" uuvowelsignvattubeng
AlternateSubs2: "'aalt' Access All Alternates in Bengali2 lookup 1 subtable" uuvowelsignvattubeng uuinterpolatevattubeng uuvowelsignlowbeng uuvowelsignlowerbeng uuinterpolatebeng uuvowelsignlongbeng uuvowelsigntallbeng
EndChar

StartChar: rvocalicvowelsignbeng
Encoding: 2499 2499 59
Width: 0
GlyphClass: 4
Flags: W
AnchorPoint: "Anchor-4" -172 0 mark 0
AnchorPoint: "Anchor-1" -172 0 mark 0
LayerCount: 2
Fore
SplineSet
-355 -80 m 1,0,1
 -316 -61 -316 -61 -275 -43 c 128,-1,2
 -234 -25 -234 -25 -191 -7.5 c 128,-1,3
 -148 10 -148 10 -105 25 c 1,4,-1
 -79 -41 l 1,5,6
 -114 -52 -114 -52 -150 -64 c 128,-1,7
 -186 -76 -186 -76 -218.5 -88.5 c 128,-1,8
 -251 -101 -251 -101 -277 -114 c 1,9,-1
 -290 -102 l 1,10,11
 -213 -109 -213 -109 -154 -126 c 128,-1,12
 -95 -143 -95 -143 -49 -166 c 128,-1,13
 -3 -189 -3 -189 35 -214 c 1,14,-1
 -1 -271 l 1,15,16
 -53 -238 -53 -238 -103 -215.5 c 128,-1,17
 -153 -193 -153 -193 -206.5 -179.5 c 128,-1,18
 -260 -166 -260 -166 -321 -160 c 1,19,-1
 -355 -80 l 1,0,1
EndSplineSet
Substitution2: "Single Substitution lookup 54 subtable" rvocalicinterpolatelowerbeng
Substitution2: "Single Substitution lookup 53 subtable" rvocalicinterpolatevattubeng
Substitution2: "Single Substitution lookup 52 subtable" rvocalicvowelsignlowerbeng
Substitution2: "Single Substitution lookup 51 subtable" rvocalicvowelsignlowbeng
Substitution2: "Single Substitution lookup 50 subtable" rvocalicvowelsignvattubeng
AlternateSubs2: "'aalt' Access All Alternates in Bengali2 lookup 1 subtable" rvocalicvowelsignvattubeng rvocalicinterpolatevattubeng rvocalicvowelsignlowbeng rvocalicvowelsignlowerbeng rvocalicinterpolatelowerbeng
EndChar

StartChar: rrvocalicvowelsignbeng
Encoding: 2500 2500 60
Width: 0
GlyphClass: 4
Flags: W
AnchorPoint: "Anchor-4" -172 0 mark 0
AnchorPoint: "Anchor-1" -172 0 mark 0
LayerCount: 2
Fore
SplineSet
-355 -80 m 1,0,1
 -316 -61 -316 -61 -275 -43 c 128,-1,2
 -234 -25 -234 -25 -191 -7.5 c 128,-1,3
 -148 10 -148 10 -105 25 c 1,4,-1
 -79 -41 l 1,5,6
 -112 -51 -112 -51 -149.5 -63 c 128,-1,7
 -187 -75 -187 -75 -221 -88 c 128,-1,8
 -255 -101 -255 -101 -279 -114 c 1,9,-1
 -289 -102 l 1,10,11
 -224 -111 -224 -111 -167.5 -127.5 c 128,-1,12
 -111 -144 -111 -144 -62.5 -165 c 128,-1,13
 -14 -186 -14 -186 28 -211 c 1,14,-1
 -3 -261 l 1,15,16
 -46 -238 -46 -238 -85.5 -220.5 c 128,-1,17
 -125 -203 -125 -203 -165 -190 c 0,18,19
 -200 -178 -200 -178 -238.5 -171 c 128,-1,20
 -277 -164 -277 -164 -321 -160 c 1,21,-1
 -355 -80 l 1,0,1
-355 -238 m 1,22,23
 -325 -224 -325 -224 -294 -210.5 c 128,-1,24
 -263 -197 -263 -197 -229 -185 c 128,-1,25
 -195 -173 -195 -173 -156 -162 c 1,26,-1
 -86 -194 l 1,27,28
 -106 -200 -106 -200 -133.5 -210 c 128,-1,29
 -161 -220 -161 -220 -189 -230.5 c 128,-1,30
 -217 -241 -217 -241 -240.5 -250.5 c 128,-1,31
 -264 -260 -264 -260 -276 -266 c 1,32,-1
 -283 -257 l 1,33,34
 -226 -264 -226 -264 -159.5 -284.5 c 128,-1,35
 -93 -305 -93 -305 -32 -342 c 1,36,-1
 -63 -394 l 1,37,38
 -106 -369 -106 -369 -148 -353.5 c 128,-1,39
 -190 -338 -190 -338 -233 -328 c 128,-1,40
 -276 -318 -276 -318 -323 -312 c 1,41,-1
 -355 -238 l 1,22,23
EndSplineSet
Position2: "Single Positioning lookup 1 subtable" dx=166 dy=0 dh=0 dv=0
EndChar

StartChar: evowelsignbeng
Encoding: 2503 2503 61
Width: 346
Flags: W
LayerCount: 2
Fore
SplineSet
356 622 m 1,0,-1
 356 551 l 1,1,-1
 336 551 l 1,2,3
 305 544 305 544 269 520.5 c 128,-1,4
 233 497 233 497 201 459.5 c 128,-1,5
 169 422 169 422 148.5 372 c 128,-1,6
 128 322 128 322 128 262 c 0,7,8
 128 190 128 190 149.5 147.5 c 128,-1,9
 171 105 171 105 203 87 c 128,-1,10
 235 69 235 69 267 69 c 0,11,12
 292 69 292 69 309 74 c 128,-1,13
 326 79 326 79 348 92 c 1,14,-1
 383 31 l 1,15,16
 357 11 357 11 326 3 c 128,-1,17
 295 -5 295 -5 264 -5 c 0,18,19
 201 -5 201 -5 152.5 28 c 128,-1,20
 104 61 104 61 76.5 120.5 c 128,-1,21
 49 180 49 180 49 260 c 0,22,23
 49 342 49 342 80 408.5 c 128,-1,24
 111 475 111 475 163.5 521 c 128,-1,25
 216 567 216 567 280 588 c 1,26,-1
 216 555 l 1,27,28
 198 553 198 553 177 552 c 128,-1,29
 156 551 156 551 130 551 c 2,30,-1
 -10 551 l 1,31,-1
 -10 622 l 1,32,-1
 356 622 l 1,0,-1
EndSplineSet
Substitution2: "'init' Initial Forms in Bengali2 lookup 23 subtable" evowelsigninibeng
Substitution2: "'aalt' Access All Alternates in Bengali2 lookup 0 subtable" evowelsigninibeng
EndChar

StartChar: aivowelsignbeng
Encoding: 2504 2504 62
Width: 346
Flags: W
LayerCount: 2
Fore
SplineSet
283 622 m 1,0,1
 282 661 282 661 264.5 680 c 128,-1,2
 247 699 247 699 203 699 c 2,3,-1
 183 699 l 2,4,5
 118 699 118 699 82.5 708 c 128,-1,6
 47 717 47 717 22 736 c 0,7,8
 -5 756 -5 756 -18.5 787.5 c 128,-1,9
 -32 819 -32 819 -32 859 c 0,10,11
 -32 872 -32 872 -30.5 884.5 c 128,-1,12
 -29 897 -29 897 -27 912 c 1,13,-1
 47 907 l 1,14,15
 45 896 45 896 44 887.5 c 128,-1,16
 43 879 43 879 43 869 c 0,17,18
 43 847 43 847 47.5 830 c 128,-1,19
 52 813 52 813 62 802 c 0,20,21
 76 786 76 786 102 778.5 c 128,-1,22
 128 771 128 771 178 771 c 2,23,-1
 182 771 l 2,24,25
 235 771 235 771 266 763 c 128,-1,26
 297 755 297 755 319 734 c 0,27,28
 336 718 336 718 345 690.5 c 128,-1,29
 354 663 354 663 355 622 c 1,30,-1
 283 622 l 1,0,1
356 622 m 1,31,-1
 356 551 l 1,32,-1
 336 551 l 1,33,34
 305 544 305 544 269 520.5 c 128,-1,35
 233 497 233 497 201 459.5 c 128,-1,36
 169 422 169 422 148.5 372 c 128,-1,37
 128 322 128 322 128 262 c 0,38,39
 128 190 128 190 149.5 147.5 c 128,-1,40
 171 105 171 105 203 87 c 128,-1,41
 235 69 235 69 267 69 c 0,42,43
 292 69 292 69 309 74 c 128,-1,44
 326 79 326 79 348 92 c 1,45,-1
 383 31 l 1,46,47
 357 11 357 11 326 3 c 128,-1,48
 295 -5 295 -5 264 -5 c 0,49,50
 201 -5 201 -5 152.5 28 c 128,-1,51
 104 61 104 61 76.5 120.5 c 128,-1,52
 49 180 49 180 49 260 c 0,53,54
 49 342 49 342 80 408.5 c 128,-1,55
 111 475 111 475 163.5 521 c 128,-1,56
 216 567 216 567 280 588 c 1,57,-1
 216 555 l 1,58,59
 198 553 198 553 177 552 c 128,-1,60
 156 551 156 551 130 551 c 2,61,-1
 -10 551 l 1,62,-1
 -10 622 l 1,63,-1
 356 622 l 1,31,-1
EndSplineSet
Substitution2: "'init' Initial Forms in Bengali2 lookup 23 subtable" aivowelsigninibeng
Substitution2: "'aalt' Access All Alternates in Bengali2 lookup 0 subtable" aivowelsigninibeng
EndChar

StartChar: viramabeng
Encoding: 2509 2509 65
Width: 0
GlyphClass: 4
Flags: W
AnchorPoint: "Anchor-4" -172 0 mark 0
AnchorPoint: "Anchor-1" -172 0 mark 0
LayerCount: 2
Fore
SplineSet
-134 -17 m 1,0,-1
 112 -214 l 1,1,-1
 69 -268 l 1,2,-1
 -186 -81 l 1,3,-1
 -134 -17 l 1,0,-1
EndSplineSet
Substitution2: "Single Substitution lookup 54 subtable" viramainterpolatelowerbeng
Substitution2: "Single Substitution lookup 53 subtable" viramainterpolatevattubeng
Substitution2: "Single Substitution lookup 52 subtable" viramalowerbeng
Substitution2: "Single Substitution lookup 51 subtable" viramalowbeng
Substitution2: "Single Substitution lookup 50 subtable" viramavattubeng
AlternateSubs2: "'aalt' Access All Alternates in Bengali2 lookup 1 subtable" viramavattubeng viramainterpolatevattubeng viramalowbeng viramalowerbeng viramainterpolatelowerbeng
EndChar

StartChar: khandatabeng
Encoding: 2510 2510 66
Width: 525
GlyphClass: 2
Flags: W
AnchorPoint: "Anchor-2" 262 622 basechar 0
AnchorPoint: "Anchor-0" 236 622 basechar 0
LayerCount: 2
Fore
SplineSet
278 629 m 0,0,1
 339 629 339 629 377.5 609 c 128,-1,2
 416 589 416 589 434 557 c 128,-1,3
 452 525 452 525 452 487 c 0,4,5
 452 420 452 420 412 383 c 128,-1,6
 372 346 372 346 295 346 c 0,7,8
 255 346 255 346 214 357.5 c 128,-1,9
 173 369 173 369 139 387 c 1,10,-1
 165 454 l 1,11,12
 196 438 196 438 227 428.5 c 128,-1,13
 258 419 258 419 289 419 c 0,14,15
 317 419 317 419 336 426.5 c 128,-1,16
 355 434 355 434 364.5 448.5 c 128,-1,17
 374 463 374 463 374 485 c 0,18,19
 374 517 374 517 350 537.5 c 128,-1,20
 326 558 326 558 279 558 c 0,21,22
 231 558 231 558 197 540 c 128,-1,23
 163 522 163 522 144.5 492 c 128,-1,24
 126 462 126 462 126 424 c 0,25,26
 126 383 126 383 143.5 351.5 c 128,-1,27
 161 320 161 320 205.5 290.5 c 128,-1,28
 250 261 250 261 331 225 c 0,29,30
 395 197 395 197 435.5 173 c 128,-1,31
 476 149 476 149 500 124.5 c 128,-1,32
 524 100 524 100 535.5 71.5 c 128,-1,33
 547 43 547 43 552 5 c 1,34,-1
 480 -10 l 1,35,36
 474 19 474 19 464.5 39.5 c 128,-1,37
 455 60 455 60 436 78 c 128,-1,38
 417 96 417 96 382 115.5 c 128,-1,39
 347 135 347 135 289 160 c 0,40,41
 206 197 206 197 153 234.5 c 128,-1,42
 100 272 100 272 75 318.5 c 128,-1,43
 50 365 50 365 50 426 c 0,44,45
 50 481 50 481 77.5 527 c 128,-1,46
 105 573 105 573 156 601 c 128,-1,47
 207 629 207 629 278 629 c 0,0,1
EndSplineSet
Ligature2: "'half' Half Forms in Bengali2 lookup 28 subtable" tabeng viramabeng uni200D
EndChar

StartChar: aulengthmarkbeng
Encoding: 2519 2519 67
Width: 266
GlyphClass: 2
Flags: W
AnchorPoint: "Anchor-2" -203 622 basechar 0
LayerCount: 2
Fore
SplineSet
171 0 m 1,0,-1
 94 0 l 1,1,-1
 94 551 l 1,2,-1
 -10 551 l 1,3,-1
 -10 622 l 1,4,-1
 276 622 l 1,5,-1
 276 551 l 1,6,-1
 171 551 l 1,7,-1
 171 0 l 1,0,-1
99 622 m 1,8,9
 98 663 98 663 79.5 681 c 128,-1,10
 61 699 61 699 20 699 c 2,11,-1
 -149 699 l 2,12,13
 -214 699 -214 699 -249.5 708 c 128,-1,14
 -285 717 -285 717 -310 736 c 0,15,16
 -337 756 -337 756 -350.5 787.5 c 128,-1,17
 -364 819 -364 819 -364 859 c 0,18,19
 -364 872 -364 872 -362.5 885 c 128,-1,20
 -361 898 -361 898 -359 912 c 1,21,-1
 -285 907 l 1,22,23
 -287 895 -287 895 -288 886 c 128,-1,24
 -289 877 -289 877 -289 869 c 0,25,26
 -289 847 -289 847 -284.5 830 c 128,-1,27
 -280 813 -280 813 -270 802 c 0,28,29
 -256 786 -256 786 -230 778.5 c 128,-1,30
 -204 771 -204 771 -154 771 c 2,31,-1
 -2 771 l 2,32,33
 51 771 51 771 82 763 c 128,-1,34
 113 755 113 755 135 734 c 0,35,36
 152 718 152 718 161 690.5 c 128,-1,37
 170 663 170 663 171 622 c 1,38,-1
 99 622 l 1,8,9
EndSplineSet
Substitution2: "Single Substitution lookup 31 subtable" aulengthmarkshortbeng
Substitution2: "'aalt' Access All Alternates in Bengali2 lookup 0 subtable" aulengthmarkshortbeng
EndChar

StartChar: lvocalicvowelsignbeng
Encoding: 2530 2530 73
Width: 0
GlyphClass: 4
Flags: W
AnchorPoint: "Anchor-4" -172 0 mark 0
AnchorPoint: "Anchor-1" -172 0 mark 0
LayerCount: 2
Fore
SplineSet
-254 -127 m 0,0,1
 -200 -127 -200 -127 -173 -150 c 128,-1,2
 -146 -173 -146 -173 -146 -208 c 0,3,4
 -146 -224 -146 -224 -155.5 -243 c 128,-1,5
 -165 -262 -165 -262 -194 -276 c 1,6,-1
 -210 -262 l 1,7,8
 -125 -256 -125 -256 -92.5 -237.5 c 128,-1,9
 -60 -219 -60 -219 -60 -187 c 0,10,11
 -60 -170 -60 -170 -68.5 -157 c 128,-1,12
 -77 -144 -77 -144 -101.5 -131 c 128,-1,13
 -126 -118 -126 -118 -174 -104 c 0,14,15
 -208 -93 -208 -93 -231.5 -83 c 128,-1,16
 -255 -73 -255 -73 -267 -58.5 c 128,-1,17
 -279 -44 -279 -44 -279 -22 c 0,18,19
 -279 -13 -279 -13 -276 -4 c 128,-1,20
 -273 5 -273 5 -269 13 c 1,21,-1
 -213 0 l 1,22,23
 -215 -4 -215 -4 -216 -8.5 c 128,-1,24
 -217 -13 -217 -13 -217 -16 c 0,25,26
 -217 -23 -217 -23 -211 -28 c 128,-1,27
 -205 -33 -205 -33 -188 -39 c 128,-1,28
 -171 -45 -171 -45 -139 -55 c 0,29,30
 -79 -73 -79 -73 -47 -92.5 c 128,-1,31
 -15 -112 -15 -112 -3.5 -135 c 128,-1,32
 8 -158 8 -158 8 -185 c 0,33,34
 8 -221 8 -221 -10.5 -245.5 c 128,-1,35
 -29 -270 -29 -270 -61 -285 c 128,-1,36
 -93 -300 -93 -300 -134 -306.5 c 128,-1,37
 -175 -313 -175 -313 -220 -313 c 2,38,-1
 -244 -313 l 1,39,-1
 -256 -264 l 1,40,41
 -229 -256 -229 -256 -217 -243.5 c 128,-1,42
 -205 -231 -205 -231 -205 -214 c 0,43,44
 -205 -199 -205 -199 -216 -189.5 c 128,-1,45
 -227 -180 -227 -180 -252 -180 c 0,46,47
 -273 -180 -273 -180 -282.5 -186.5 c 128,-1,48
 -292 -193 -292 -193 -292 -204 c 0,49,50
 -292 -209 -292 -209 -290 -215 c 128,-1,51
 -288 -221 -288 -221 -285 -227 c 1,52,-1
 -345 -238 l 1,53,54
 -350 -228 -350 -228 -353 -217 c 128,-1,55
 -356 -206 -356 -206 -356 -195 c 0,56,57
 -356 -166 -356 -166 -330.5 -146.5 c 128,-1,58
 -305 -127 -305 -127 -254 -127 c 0,0,1
EndSplineSet
Position2: "Single Positioning lookup 1 subtable" dx=225 dy=0 dh=0 dv=0
EndChar

StartChar: zerobeng
Encoding: 2534 2534 75
Width: 592
GlyphClass: 2
Flags: W
AnchorPoint: "Anchor-2" 296 622 basechar 0
LayerCount: 2
Fore
SplineSet
290 91 m 0,0,1
 227 91 227 91 177.5 115 c 128,-1,2
 128 139 128 139 100 188.5 c 128,-1,3
 72 238 72 238 72 313 c 0,4,5
 72 372 72 372 96 424.5 c 128,-1,6
 120 477 120 477 170.5 510.5 c 128,-1,7
 221 544 221 544 300 544 c 0,8,9
 381 544 381 544 429 513 c 128,-1,10
 477 482 477 482 498.5 431.5 c 128,-1,11
 520 381 520 381 520 320 c 0,12,13
 520 261 520 261 495.5 208.5 c 128,-1,14
 471 156 471 156 420.5 123.5 c 128,-1,15
 370 91 370 91 290 91 c 0,0,1
301 473 m 0,16,17
 259 473 259 473 225.5 454 c 128,-1,18
 192 435 192 435 172.5 398.5 c 128,-1,19
 153 362 153 362 153 311 c 0,20,21
 153 270 153 270 166.5 236 c 128,-1,22
 180 202 180 202 210.5 182 c 128,-1,23
 241 162 241 162 291 162 c 0,24,25
 336 162 336 162 369.5 182.5 c 128,-1,26
 403 203 403 203 421 239.5 c 128,-1,27
 439 276 439 276 439 324 c 0,28,29
 439 370 439 370 423.5 403.5 c 128,-1,30
 408 437 408 437 377.5 455 c 128,-1,31
 347 473 347 473 301 473 c 0,16,17
EndSplineSet
EndChar

StartChar: onebeng
Encoding: 2535 2535 76
Width: 592
GlyphClass: 2
Flags: W
AnchorPoint: "Anchor-2" 296 622 basechar 0
LayerCount: 2
Fore
SplineSet
287 0 m 0,0,1
 202 0 202 0 162.5 36.5 c 128,-1,2
 123 73 123 73 123 122 c 0,3,4
 123 161 123 161 148 194 c 128,-1,5
 173 227 173 227 234 244 c 1,6,-1
 263 167 l 1,7,8
 232 160 232 160 218.5 149 c 128,-1,9
 205 138 205 138 205 120 c 0,10,11
 205 100 205 100 225.5 87.5 c 128,-1,12
 246 75 246 75 286 75 c 0,13,14
 348 75 348 75 382 105 c 128,-1,15
 416 135 416 135 416 181 c 0,16,17
 416 211 416 211 404 234.5 c 128,-1,18
 392 258 392 258 364 284 c 128,-1,19
 336 310 336 310 287 344 c 0,20,21
 225 388 225 388 189.5 418 c 128,-1,22
 154 448 154 448 139.5 473.5 c 128,-1,23
 125 499 125 499 125 529 c 0,24,25
 125 552 125 552 138.5 579.5 c 128,-1,26
 152 607 152 607 177 631 c 1,27,-1
 243 596 l 1,28,29
 229 581 229 581 220 566 c 128,-1,30
 211 551 211 551 211 536 c 0,31,32
 211 523 211 523 215 511 c 128,-1,33
 219 499 219 499 232 485 c 128,-1,34
 245 471 245 471 270.5 451.5 c 128,-1,35
 296 432 296 432 338 403 c 0,36,37
 396 364 396 364 430 331 c 128,-1,38
 464 298 464 298 478.5 263.5 c 128,-1,39
 493 229 493 229 493 182 c 0,40,41
 493 126 493 126 466.5 85 c 128,-1,42
 440 44 440 44 393.5 22 c 128,-1,43
 347 0 347 0 287 0 c 0,0,1
EndSplineSet
EndChar

StartChar: twobeng
Encoding: 2536 2536 77
Width: 592
GlyphClass: 2
Flags: W
AnchorPoint: "Anchor-2" 296 622 basechar 0
LayerCount: 2
Fore
SplineSet
127 539 m 0,0,1
 127 561 127 561 137.5 583 c 128,-1,2
 148 605 148 605 170 631 c 1,3,-1
 233 596 l 1,4,5
 221 583 221 583 216 571.5 c 128,-1,6
 211 560 211 560 211 549 c 0,7,8
 211 535 211 535 219 526 c 128,-1,9
 227 517 227 517 249.5 510.5 c 128,-1,10
 272 504 272 504 316 495 c 0,11,12
 420 476 420 476 460 436.5 c 128,-1,13
 500 397 500 397 500 335 c 0,14,15
 500 269 500 269 444.5 222 c 128,-1,16
 389 175 389 175 289 168 c 0,17,18
 279 168 279 168 269 170 c 128,-1,19
 259 172 259 172 249 175 c 1,20,-1
 289 184 l 1,21,22
 333 169 333 169 378 145.5 c 128,-1,23
 423 122 423 122 467 92.5 c 128,-1,24
 511 63 511 63 553 28 c 1,25,-1
 507 -26 l 1,26,27
 448 23 448 23 397.5 56.5 c 128,-1,28
 347 90 347 90 297.5 112.5 c 128,-1,29
 248 135 248 135 192 152 c 128,-1,30
 136 169 136 169 65 185 c 1,31,-1
 80 256 l 1,32,33
 115 246 115 246 151 239.5 c 128,-1,34
 187 233 187 233 241 233 c 0,35,36
 342 233 342 233 381.5 260 c 128,-1,37
 421 287 421 287 421 332 c 0,38,39
 421 357 421 357 409.5 374.5 c 128,-1,40
 398 392 398 392 370 404.5 c 128,-1,41
 342 417 342 417 290 427 c 0,42,43
 232 439 232 439 196 454 c 128,-1,44
 160 469 160 469 143.5 490 c 128,-1,45
 127 511 127 511 127 539 c 0,0,1
EndSplineSet
EndChar

StartChar: threebeng
Encoding: 2537 2537 78
Width: 592
GlyphClass: 2
Flags: W
AnchorPoint: "Anchor-2" 296 622 basechar 0
LayerCount: 2
Fore
SplineSet
553 295 m 0,0,1
 553 223 553 223 532.5 165 c 128,-1,2
 512 107 512 107 466.5 73 c 128,-1,3
 421 39 421 39 347 39 c 0,4,5
 293 39 293 39 246 57.5 c 128,-1,6
 199 76 199 76 159.5 124.5 c 128,-1,7
 120 173 120 173 87 261.5 c 128,-1,8
 54 350 54 350 29 490 c 1,9,-1
 105 510 l 1,10,11
 135 360 135 360 168 274 c 128,-1,12
 201 188 201 188 243.5 151.5 c 128,-1,13
 286 115 286 115 342 115 c 0,14,15
 393 115 393 115 422 139 c 128,-1,16
 451 163 451 163 463 203.5 c 128,-1,17
 475 244 475 244 475 295 c 0,18,19
 475 356 475 356 458 404 c 128,-1,20
 441 452 441 452 412 480 c 128,-1,21
 383 508 383 508 347 508 c 0,22,23
 321 508 321 508 306.5 495 c 128,-1,24
 292 482 292 482 292 458 c 0,25,26
 292 442 292 442 296.5 426 c 128,-1,27
 301 410 301 410 311 390 c 1,28,-1
 231 369 l 1,29,30
 219 394 219 394 213 419.5 c 128,-1,31
 207 445 207 445 207 467 c 0,32,33
 207 509 207 509 227.5 533.5 c 128,-1,34
 248 558 248 558 278.5 568.5 c 128,-1,35
 309 579 309 579 337 579 c 0,36,37
 407 579 407 579 455 540.5 c 128,-1,38
 503 502 503 502 528 437.5 c 128,-1,39
 553 373 553 373 553 295 c 0,0,1
EndSplineSet
EndChar

StartChar: fourbeng
Encoding: 2538 2538 79
Width: 592
GlyphClass: 2
Flags: W
AnchorPoint: "Anchor-2" 296 622 basechar 0
LayerCount: 2
Fore
SplineSet
296 0 m 0,0,1
 181 0 181 0 121.5 47 c 128,-1,2
 62 94 62 94 62 170 c 0,3,4
 62 226 62 226 102 266.5 c 128,-1,5
 142 307 142 307 229 337 c 1,6,-1
 229 312 l 1,7,8
 176 336 176 336 141.5 357.5 c 128,-1,9
 107 379 107 379 90.5 406 c 128,-1,10
 74 433 74 433 74 471 c 0,11,12
 74 511 74 511 99.5 545.5 c 128,-1,13
 125 580 125 580 173 601 c 128,-1,14
 221 622 221 622 290 622 c 0,15,16
 375 622 375 622 425 600.5 c 128,-1,17
 475 579 475 579 497 545.5 c 128,-1,18
 519 512 519 512 519 476 c 0,19,20
 519 434 519 434 499 405.5 c 128,-1,21
 479 377 479 377 445 357 c 128,-1,22
 411 337 411 337 368 321 c 1,23,-1
 365 341 l 1,24,25
 443 314 443 314 486.5 276.5 c 128,-1,26
 530 239 530 239 530 171 c 0,27,28
 530 86 530 86 469.5 43 c 128,-1,29
 409 0 409 0 296 0 c 0,0,1
296 71 m 0,30,31
 376 71 376 71 413 99 c 128,-1,32
 450 127 450 127 450 173 c 0,33,34
 450 205 450 205 427.5 228.5 c 128,-1,35
 405 252 405 252 369.5 268 c 128,-1,36
 334 284 334 284 296 292 c 1,37,38
 220 273 220 273 181.5 243 c 128,-1,39
 143 213 143 213 143 169 c 0,40,41
 143 128 143 128 181.5 99.5 c 128,-1,42
 220 71 220 71 296 71 c 0,30,31
297 363 m 1,43,44
 332 372 332 372 364 387 c 128,-1,45
 396 402 396 402 417 423.5 c 128,-1,46
 438 445 438 445 438 471 c 0,47,48
 438 507 438 507 401 529 c 128,-1,49
 364 551 364 551 291 551 c 0,50,51
 256 551 256 551 224.5 542 c 128,-1,52
 193 533 193 533 173.5 515.5 c 128,-1,53
 154 498 154 498 154 471 c 0,54,55
 154 434 154 434 187.5 408.5 c 128,-1,56
 221 383 221 383 297 363 c 1,43,44
EndSplineSet
EndChar

StartChar: fivebeng
Encoding: 2539 2539 80
Width: 592
GlyphClass: 2
Flags: W
AnchorPoint: "Anchor-2" 296 622 basechar 0
LayerCount: 2
Fore
SplineSet
313 0 m 0,0,1
 237 0 237 0 177 29 c 128,-1,2
 117 58 117 58 83 113.5 c 128,-1,3
 49 169 49 169 49 248 c 0,4,5
 49 328 49 328 93.5 394.5 c 128,-1,6
 138 461 138 461 220 518.5 c 128,-1,7
 302 576 302 576 414 629 c 1,8,-1
 453 575 l 1,9,10
 443 562 443 562 438.5 548 c 128,-1,11
 434 534 434 534 434 519 c 0,12,13
 434 490 434 490 457.5 472.5 c 128,-1,14
 481 455 481 455 518 455 c 0,15,16
 521 455 521 455 525 455 c 128,-1,17
 529 455 529 455 533 456 c 2,18,-1
 566 400 l 1,19,20
 510 369 510 369 471 341 c 128,-1,21
 432 313 432 313 412 284 c 128,-1,22
 392 255 392 255 392 221 c 0,23,24
 392 193 392 193 413 168.5 c 128,-1,25
 434 144 434 144 492 144 c 0,26,27
 502 144 502 144 511.5 144.5 c 128,-1,28
 521 145 521 145 528 146 c 1,29,-1
 561 61 l 1,30,31
 511 32 511 32 447.5 16 c 128,-1,32
 384 0 384 0 313 0 c 0,0,1
320 71 m 0,33,34
 352 71 352 71 374 73.5 c 128,-1,35
 396 76 396 76 416 80.5 c 128,-1,36
 436 85 436 85 460 91 c 1,37,-1
 458 89 l 1,38,39
 385 98 385 98 350.5 134 c 128,-1,40
 316 170 316 170 316 222 c 0,41,42
 316 261 316 261 333.5 294.5 c 128,-1,43
 351 328 351 328 386.5 360 c 128,-1,44
 422 392 422 392 475 426 c 1,45,-1
 473 401 l 1,46,47
 438 405 438 405 414.5 420.5 c 128,-1,48
 391 436 391 436 379 459 c 128,-1,49
 367 482 367 482 367 507 c 0,50,51
 367 518 367 518 369 528 c 128,-1,52
 371 538 371 538 375 547 c 1,53,-1
 384 533 l 1,54,55
 309 496 309 496 252 450.5 c 128,-1,56
 195 405 195 405 162.5 352 c 128,-1,57
 130 299 130 299 130 238 c 0,58,59
 130 176 130 176 158 139 c 128,-1,60
 186 102 186 102 229.5 86.5 c 128,-1,61
 273 71 273 71 320 71 c 0,33,34
EndSplineSet
EndChar

StartChar: sixbeng
Encoding: 2540 2540 81
Width: 592
GlyphClass: 2
Flags: W
AnchorPoint: "Anchor-2" 296 622 basechar 0
LayerCount: 2
Fore
SplineSet
347 39 m 0,0,1
 295 39 295 39 248 58.5 c 128,-1,2
 201 78 201 78 160 124.5 c 128,-1,3
 119 171 119 171 84 251 c 128,-1,4
 49 331 49 331 21 452 c 1,5,-1
 96 475 l 1,6,7
 117 376 117 376 142 307.5 c 128,-1,8
 167 239 167 239 196.5 196.5 c 128,-1,9
 226 154 226 154 262.5 134.5 c 128,-1,10
 299 115 299 115 342 115 c 0,11,12
 407 115 407 115 445 154 c 128,-1,13
 483 193 483 193 483 271 c 0,14,15
 483 315 483 315 470.5 345 c 128,-1,16
 458 375 458 375 449 391 c 1,17,-1
 489 392 l 1,18,19
 472 348 472 348 450 317.5 c 128,-1,20
 428 287 428 287 400.5 272 c 128,-1,21
 373 257 373 257 340 257 c 0,22,23
 319 257 319 257 301.5 263 c 128,-1,24
 284 269 284 269 270 282 c 0,25,26
 255 296 255 296 245 321 c 128,-1,27
 235 346 235 346 235 400 c 2,28,-1
 235 451 l 2,29,30
 235 476 235 476 230 490 c 128,-1,31
 225 504 225 504 210.5 510 c 128,-1,32
 196 516 196 516 166 517 c 1,33,-1
 175 593 l 1,34,35
 216 592 216 592 243 584 c 128,-1,36
 270 576 270 576 286 560 c 0,37,38
 300 545 300 545 306 523 c 128,-1,39
 312 501 312 501 312 471 c 2,40,-1
 312 379 l 2,41,42
 312 354 312 354 320 341 c 128,-1,43
 328 328 328 328 348 328 c 0,44,45
 364 328 364 328 379.5 337 c 128,-1,46
 395 346 395 346 411 369.5 c 128,-1,47
 427 393 427 393 443 438 c 1,48,-1
 499 452 l 1,49,50
 518 427 518 427 531 395.5 c 128,-1,51
 544 364 544 364 551.5 331 c 128,-1,52
 559 298 559 298 559 268 c 0,53,54
 559 203 559 203 536.5 151 c 128,-1,55
 514 99 514 99 467 69 c 128,-1,56
 420 39 420 39 347 39 c 0,0,1
EndSplineSet
EndChar

StartChar: sevenbeng
Encoding: 2541 2541 82
Width: 592
GlyphClass: 2
Flags: W
AnchorPoint: "Anchor-2" 296 622 basechar 0
LayerCount: 2
Fore
SplineSet
382 301 m 1,0,-1
 432 286 l 1,1,2
 392 267 392 267 349.5 257.5 c 128,-1,3
 307 248 307 248 268 248 c 0,4,5
 170 248 170 248 120 291.5 c 128,-1,6
 70 335 70 335 70 411 c 0,7,8
 70 456 70 456 89 494 c 128,-1,9
 108 532 108 532 140.5 561 c 128,-1,10
 173 590 173 590 213.5 606 c 128,-1,11
 254 622 254 622 297 622 c 0,12,13
 333 622 333 622 363 613 c 128,-1,14
 393 604 393 604 415 584 c 0,15,16
 435 565 435 565 447 538 c 128,-1,17
 459 511 459 511 459 455 c 2,18,-1
 459 143 l 2,19,20
 459 118 459 118 464 104 c 128,-1,21
 469 90 469 90 484 84 c 128,-1,22
 499 78 499 78 528 77 c 1,23,-1
 520 0 l 1,24,25
 467 2 467 2 436.5 15 c 128,-1,26
 406 28 406 28 394 54.5 c 128,-1,27
 382 81 382 81 382 122 c 2,28,-1
 382 301 l 1,0,-1
266 322 m 0,29,30
 308 322 308 322 339 330.5 c 128,-1,31
 370 339 370 339 404 357 c 1,32,-1
 382 338 l 1,33,-1
 382 439 l 2,34,35
 382 476 382 476 378.5 496.5 c 128,-1,36
 375 517 375 517 361 530 c 0,37,38
 351 541 351 541 335.5 546 c 128,-1,39
 320 551 320 551 297 551 c 0,40,41
 271 551 271 551 245 540 c 128,-1,42
 219 529 219 529 198 509.5 c 128,-1,43
 177 490 177 490 164 463.5 c 128,-1,44
 151 437 151 437 151 406 c 0,45,46
 151 358 151 358 182.5 340 c 128,-1,47
 214 322 214 322 266 322 c 0,29,30
EndSplineSet
EndChar

StartChar: eightbeng
Encoding: 2542 2542 83
Width: 592
GlyphClass: 2
Flags: W
AnchorPoint: "Anchor-2" 296 622 basechar 0
LayerCount: 2
Fore
SplineSet
237 0 m 0,0,1
 198 0 198 0 172.5 11 c 128,-1,2
 147 22 147 22 132 38 c 0,3,4
 114 56 114 56 102.5 83 c 128,-1,5
 91 110 91 110 91 164 c 2,6,-1
 91 481 l 2,7,8
 91 506 91 506 86 520 c 128,-1,9
 81 534 81 534 66.5 540 c 128,-1,10
 52 546 52 546 22 547 c 1,11,-1
 31 624 l 1,12,13
 69 623 69 623 94.5 616 c 128,-1,14
 120 609 120 609 136 595 c 0,15,16
 153 580 153 580 160 556.5 c 128,-1,17
 167 533 167 533 167 501 c 2,18,-1
 167 355 l 1,19,20
 198 366 198 366 225.5 370.5 c 128,-1,21
 253 375 253 375 269 375 c 0,22,23
 280 375 280 375 294 373.5 c 128,-1,24
 308 372 308 372 318 370 c 0,25,26
 347 363 347 363 366.5 361.5 c 128,-1,27
 386 360 386 360 408 360 c 0,28,29
 446 360 446 360 470.5 371 c 128,-1,30
 495 382 495 382 514 418 c 1,31,-1
 586 383 l 1,32,33
 573 350 573 350 551 330 c 128,-1,34
 529 310 529 310 501 301 c 128,-1,35
 473 292 473 292 442 292 c 0,36,37
 433 292 433 292 421.5 293 c 128,-1,38
 410 294 410 294 398 297 c 1,39,-1
 418 312 l 1,40,41
 433 292 433 292 440.5 266.5 c 128,-1,42
 448 241 448 241 448 213 c 0,43,44
 448 147 448 147 419.5 99 c 128,-1,45
 391 51 391 51 343.5 25.5 c 128,-1,46
 296 0 296 0 237 0 c 0,0,1
238 71 m 0,47,48
 271 71 271 71 295.5 83.5 c 128,-1,49
 320 96 320 96 336.5 116.5 c 128,-1,50
 353 137 353 137 361 162 c 128,-1,51
 369 187 369 187 369 212 c 0,52,53
 369 249 369 249 354.5 269 c 128,-1,54
 340 289 340 289 318.5 296.5 c 128,-1,55
 297 304 297 304 274 304 c 0,56,57
 241 304 241 304 215.5 298 c 128,-1,58
 190 292 190 292 167 281 c 1,59,-1
 167 168 l 2,60,61
 167 135 167 135 172 117.5 c 128,-1,62
 177 100 177 100 184 92 c 0,63,64
 192 84 192 84 203.5 77.5 c 128,-1,65
 215 71 215 71 238 71 c 0,47,48
EndSplineSet
EndChar

StartChar: ninebeng
Encoding: 2543 2543 84
Width: 592
GlyphClass: 2
Flags: W
AnchorPoint: "Anchor-2" 296 622 basechar 0
LayerCount: 2
Fore
SplineSet
174 315 m 0,0,1
 220 315 220 315 256 298 c 128,-1,2
 292 281 292 281 312.5 250.5 c 128,-1,3
 333 220 333 220 333 181 c 256,4,5
 333 142 333 142 319.5 114.5 c 128,-1,6
 306 87 306 87 278 62 c 1,7,-1
 275 72 l 1,8,9
 369 82 369 82 422.5 117 c 128,-1,10
 476 152 476 152 476 214 c 0,11,12
 476 250 476 250 459.5 277.5 c 128,-1,13
 443 305 443 305 399.5 328.5 c 128,-1,14
 356 352 356 352 274 375 c 0,15,16
 183 401 183 401 130.5 423 c 128,-1,17
 78 445 78 445 56.5 471.5 c 128,-1,18
 35 498 35 498 35 536 c 0,19,20
 35 559 35 559 46 582.5 c 128,-1,21
 57 606 57 606 83 631 c 1,22,-1
 146 596 l 1,23,24
 131 582 131 582 125 570 c 128,-1,25
 119 558 119 558 119 547 c 0,26,27
 119 534 119 534 124.5 523 c 128,-1,28
 130 512 130 512 148 501.5 c 128,-1,29
 166 491 166 491 203.5 478 c 128,-1,30
 241 465 241 465 304 447 c 0,31,32
 384 425 384 425 433.5 399.5 c 128,-1,33
 483 374 483 374 510.5 346 c 128,-1,34
 538 318 538 318 548 285.5 c 128,-1,35
 558 253 558 253 558 216 c 0,36,37
 558 155 558 155 529 113.5 c 128,-1,38
 500 72 500 72 450 47 c 128,-1,39
 400 22 400 22 334.5 11 c 128,-1,40
 269 0 269 0 197 0 c 2,41,-1
 183 0 l 1,42,-1
 161 68 l 1,43,44
 206 84 206 84 231.5 108 c 128,-1,45
 257 132 257 132 257 169 c 0,46,47
 257 203 257 203 236.5 224 c 128,-1,48
 216 245 216 245 175 245 c 0,49,50
 139 245 139 245 123.5 231 c 128,-1,51
 108 217 108 217 108 196 c 0,52,53
 108 186 108 186 111 174 c 128,-1,54
 114 162 114 162 119 152 c 1,55,-1
 44 135 l 1,56,57
 36 153 36 153 31.5 170.5 c 128,-1,58
 27 188 27 188 27 207 c 0,59,60
 27 239 27 239 44 263.5 c 128,-1,61
 61 288 61 288 93.5 301.5 c 128,-1,62
 126 315 126 315 174 315 c 0,0,1
EndSplineSet
EndChar

StartChar: ra1beng
Encoding: 2544 2544 85
Width: 596
GlyphClass: 2
Flags: W
AnchorPoint: "Anchor-2" 298 622 basechar 0
AnchorPoint: "Anchor-1" 424 0 basechar 0
LayerCount: 2
Fore
SplineSet
606 622 m 1,0,-1
 606 551 l 1,1,-1
 501 551 l 1,2,-1
 501 0 l 1,3,-1
 424 0 l 1,4,5
 393 60 393 60 340.5 110.5 c 128,-1,6
 288 161 288 161 220.5 196 c 128,-1,7
 153 231 153 231 76 243 c 1,8,-1
 37 339 l 1,9,10
 133 397 133 397 235.5 444 c 128,-1,11
 338 491 338 491 447 524 c 1,12,-1
 424 482 l 1,13,-1
 424 551 l 1,14,-1
 -10 551 l 1,15,-1
 -10 622 l 1,16,-1
 606 622 l 1,0,-1
424 473 m 1,17,-1
 445 446 l 1,18,19
 394 431 394 431 339 408.5 c 128,-1,20
 284 386 284 386 230 359.5 c 128,-1,21
 176 333 176 333 128 304 c 1,22,23
 169 295 169 295 214 276 c 128,-1,24
 259 257 259 257 302.5 230 c 128,-1,25
 346 203 346 203 381.5 167.5 c 128,-1,26
 417 132 417 132 438 88 c 1,27,-1
 430 86 l 1,28,29
 426 112 426 112 425 138 c 128,-1,30
 424 164 424 164 424 190 c 2,31,-1
 424 473 l 1,17,-1
492 125 m 1,32,33
 459 187 459 187 407.5 236.5 c 128,-1,34
 356 286 356 286 289.5 318.5 c 128,-1,35
 223 351 223 351 143 363 c 1,36,-1
 194 406 l 1,37,38
 250 395 250 395 304 373.5 c 128,-1,39
 358 352 358 352 405.5 315.5 c 128,-1,40
 453 279 453 279 489 222 c 1,41,-1
 492 125 l 1,32,33
EndSplineSet
EndChar

StartChar: wabeng
Encoding: 2545 2545 86
Width: 596
GlyphClass: 2
Flags: W
AnchorPoint: "Anchor-2" 298 622 basechar 0
AnchorPoint: "Anchor-1" 424 0 basechar 0
LayerCount: 2
Fore
SplineSet
606 622 m 1,0,-1
 606 551 l 1,1,-1
 501 551 l 1,2,-1
 501 0 l 1,3,-1
 424 0 l 1,4,5
 394 60 394 60 341.5 110.5 c 128,-1,6
 289 161 289 161 221 196 c 128,-1,7
 153 231 153 231 76 243 c 1,8,-1
 37 339 l 1,9,10
 133 397 133 397 235.5 444 c 128,-1,11
 338 491 338 491 447 524 c 1,12,-1
 424 482 l 1,13,-1
 424 551 l 1,14,-1
 -10 551 l 1,15,-1
 -10 622 l 1,16,-1
 606 622 l 1,0,-1
424 474 m 1,17,-1
 445 446 l 1,18,19
 369 421 369 421 285 384.5 c 128,-1,20
 201 348 201 348 130 304 c 1,21,22
 184 292 184 292 245 263 c 128,-1,23
 306 234 306 234 358 190 c 128,-1,24
 410 146 410 146 438 88 c 1,25,-1
 429 88 l 1,26,27
 427 111 427 111 425.5 134 c 128,-1,28
 424 157 424 157 424 189 c 2,29,-1
 424 474 l 1,17,-1
86 186 m 1,30,31
 144 175 144 175 191 152 c 128,-1,32
 238 129 238 129 273.5 100 c 128,-1,33
 309 71 309 71 332 41 c 1,34,-1
 286 0 l 1,35,36
 244 44 244 44 191 72.5 c 128,-1,37
 138 101 138 101 70 114 c 1,38,-1
 86 186 l 1,30,31
EndSplineSet
EndChar

StartChar: rupeemarkbeng
Encoding: 2546 2546 87
Width: 589
Flags: W
LayerCount: 2
Fore
SplineSet
441 99 m 1,0,1
 410 170 410 170 375 223.5 c 128,-1,2
 340 277 340 277 296.5 317 c 128,-1,3
 253 357 253 357 198 385.5 c 128,-1,4
 143 414 143 414 71 435 c 1,5,-1
 102 516 l 1,6,7
 175 494 175 494 236 462.5 c 128,-1,8
 297 431 297 431 348 386 c 128,-1,9
 399 341 399 341 441 277.5 c 128,-1,10
 483 214 483 214 519 126 c 1,11,-1
 441 99 l 1,0,1
EndSplineSet
EndChar

StartChar: rupeesignbeng
Encoding: 2547 2547 88
Width: 636
Flags: W
LayerCount: 2
Fore
SplineSet
595 498 m 1,0,-1
 595 426 l 1,1,-1
 249 426 l 1,2,-1
 249 150 l 2,3,4
 249 103 249 103 261.5 86 c 128,-1,5
 274 69 274 69 311 69 c 0,6,7
 341 69 341 69 371.5 82 c 128,-1,8
 402 95 402 95 426.5 117 c 128,-1,9
 451 139 451 139 466 167.5 c 128,-1,10
 481 196 481 196 481 226 c 0,11,12
 481 250 481 250 467.5 263 c 128,-1,13
 454 276 454 276 424 276 c 0,14,15
 397 276 397 276 374 270 c 1,16,-1
 364 338 l 1,17,18
 381 343 381 343 400.5 345.5 c 128,-1,19
 420 348 420 348 440 348 c 0,20,21
 493 348 493 348 526.5 321.5 c 128,-1,22
 560 295 560 295 560 236 c 0,23,24
 560 190 560 190 538.5 147.5 c 128,-1,25
 517 105 517 105 481 71.5 c 128,-1,26
 445 38 445 38 400 19 c 128,-1,27
 355 0 355 0 308 0 c 0,28,29
 271 0 271 0 247 8.5 c 128,-1,30
 223 17 223 17 207 32 c 0,31,32
 197 42 197 42 189 54.5 c 128,-1,33
 181 67 181 67 176.5 88.5 c 128,-1,34
 172 110 172 110 172 146 c 2,35,-1
 172 426 l 1,36,-1
 75 426 l 1,37,-1
 75 498 l 1,38,-1
 595 498 l 1,0,-1
125 749 m 0,39,40
 154 749 154 749 175.5 741 c 128,-1,41
 197 733 197 733 212 717 c 0,42,43
 230 698 230 698 239.5 665.5 c 128,-1,44
 249 633 249 633 249 574 c 2,45,-1
 249 490 l 1,46,-1
 172 490 l 1,47,-1
 172 570 l 2,48,49
 172 605 172 605 167.5 628.5 c 128,-1,50
 163 652 163 652 148 664.5 c 128,-1,51
 133 677 133 677 103 677 c 0,52,53
 84 677 84 677 65.5 671.5 c 128,-1,54
 47 666 47 666 34 661 c 1,55,-1
 7 723 l 1,56,57
 37 736 37 736 65.5 742.5 c 128,-1,58
 94 749 94 749 125 749 c 0,39,40
EndSplineSet
EndChar

StartChar: uni09F4
Encoding: 2548 2548 89
Width: 589
Flags: W
LayerCount: 2
Fore
SplineSet
71 179 m 1,0,1
 143 200 143 200 198 228.5 c 128,-1,2
 253 257 253 257 296.5 297 c 128,-1,3
 340 337 340 337 375 391 c 128,-1,4
 410 445 410 445 441 515 c 1,5,-1
 519 488 l 1,6,7
 483 400 483 400 441 336.5 c 128,-1,8
 399 273 399 273 348 228 c 128,-1,9
 297 183 297 183 236 152 c 128,-1,10
 175 121 175 121 102 98 c 1,11,-1
 71 179 l 1,0,1
EndSplineSet
EndChar

StartChar: uni09F5
Encoding: 2549 2549 90
Width: 707
Flags: W
LayerCount: 2
Fore
SplineSet
207 426 m 0,0,1
 276 426 276 426 321 389 c 128,-1,2
 366 352 366 352 366 293 c 0,3,4
 366 277 366 277 360.5 252.5 c 128,-1,5
 355 228 355 228 338 215 c 1,6,-1
 333 222 l 1,7,8
 390 253 390 253 431.5 292.5 c 128,-1,9
 473 332 473 332 507 386 c 128,-1,10
 541 440 541 440 575 515 c 1,11,-1
 653 488 l 1,12,13
 618 400 618 400 575.5 336.5 c 128,-1,14
 533 273 533 273 482 229 c 128,-1,15
 431 185 431 185 369.5 154 c 128,-1,16
 308 123 308 123 235 99 c 1,17,-1
 207 175 l 1,18,19
 251 190 251 190 270.5 214.5 c 128,-1,20
 290 239 290 239 290 281 c 0,21,22
 290 311 290 311 271.5 333.5 c 128,-1,23
 253 356 253 356 208 356 c 0,24,25
 171 356 171 356 156 342 c 128,-1,26
 141 328 141 328 141 308 c 0,27,28
 141 295 141 295 145 283.5 c 128,-1,29
 149 272 149 272 153 264 c 1,30,-1
 77 247 l 1,31,32
 70 263 70 263 65 281 c 128,-1,33
 60 299 60 299 60 319 c 0,34,35
 60 362 60 362 94.5 394 c 128,-1,36
 129 426 129 426 207 426 c 0,0,1
EndSplineSet
EndChar

StartChar: uni09F6
Encoding: 2550 2550 91
Width: 727
Flags: W
LayerCount: 2
Fore
SplineSet
223 0 m 0,0,1
 141 0 141 0 94.5 36.5 c 128,-1,2
 48 73 48 73 48 129 c 0,3,4
 48 164 48 164 66.5 186 c 128,-1,5
 85 208 85 208 118.5 220 c 128,-1,6
 152 232 152 232 197 238 c 0,7,8
 257 246 257 246 280 260 c 128,-1,9
 303 274 303 274 303 309 c 0,10,11
 303 332 303 332 284.5 355 c 128,-1,12
 266 378 266 378 221 378 c 0,13,14
 186 378 186 378 170 364 c 128,-1,15
 154 350 154 350 154 329 c 0,16,17
 154 319 154 319 157 307 c 128,-1,18
 160 295 160 295 165 285 c 1,19,-1
 90 268 l 1,20,21
 82 286 82 286 77.5 303.5 c 128,-1,22
 73 321 73 321 73 340 c 0,23,24
 73 383 73 383 107.5 415.5 c 128,-1,25
 142 448 142 448 220 448 c 0,26,27
 289 448 289 448 334 411 c 128,-1,28
 379 374 379 374 379 315 c 0,29,30
 379 287 379 287 372.5 266 c 128,-1,31
 366 245 366 245 354 229 c 0,32,33
 335 204 335 204 299.5 190.5 c 128,-1,34
 264 177 264 177 209 169 c 0,35,36
 178 165 178 165 159.5 159 c 128,-1,37
 141 153 141 153 133 143.5 c 128,-1,38
 125 134 125 134 125 119 c 0,39,40
 125 100 125 100 148 86 c 128,-1,41
 171 72 171 72 225 72 c 0,42,43
 311 72 311 72 373.5 114.5 c 128,-1,44
 436 157 436 157 479 233 c 128,-1,45
 522 309 522 309 549.5 410 c 128,-1,46
 577 511 577 511 593 627 c 1,47,-1
 670 618 l 1,48,49
 658 518 658 518 635.5 426 c 128,-1,50
 613 334 613 334 577.5 256.5 c 128,-1,51
 542 179 542 179 492.5 121.5 c 128,-1,52
 443 64 443 64 376 32 c 128,-1,53
 309 0 309 0 223 0 c 0,0,1
EndSplineSet
EndChar

StartChar: uni09F7
Encoding: 2551 2551 92
Width: 297
Flags: W
LayerCount: 2
Fore
SplineSet
110 0 m 1,0,-1
 110 622 l 1,1,-1
 187 622 l 1,2,-1
 187 0 l 1,3,-1
 110 0 l 1,0,-1
EndSplineSet
EndChar

StartChar: uni09F8
Encoding: 2552 2552 93
Width: 681
Flags: W
LayerCount: 2
Fore
SplineSet
55 624 m 1,0,1
 93 623 93 623 118.5 616 c 128,-1,2
 144 609 144 609 160 595 c 0,3,4
 177 580 177 580 184.5 556.5 c 128,-1,5
 192 533 192 533 192 500 c 2,6,-1
 192 239 l 1,7,-1
 177 258 l 1,8,9
 237 326 237 326 321.5 380 c 128,-1,10
 406 434 406 434 507 472 c 1,11,-1
 567 432 l 1,12,-1
 567 141 l 2,13,14
 567 116 567 116 571.5 102 c 128,-1,15
 576 88 576 88 591 82 c 128,-1,16
 606 76 606 76 635 75 c 1,17,-1
 626 -3 l 1,18,19
 583 -1 583 -1 556 8 c 128,-1,20
 529 17 529 17 513 35 c 0,21,22
 500 49 500 49 495 71 c 128,-1,23
 490 93 490 93 490 122 c 2,24,-1
 490 422 l 1,25,-1
 510 396 l 1,26,27
 449 371 449 371 393.5 338 c 128,-1,28
 338 305 338 305 284.5 261 c 128,-1,29
 231 217 231 217 174 160 c 1,30,-1
 115 200 l 1,31,-1
 115 481 l 2,32,33
 115 506 115 506 110 520 c 128,-1,34
 105 534 105 534 90.5 540 c 128,-1,35
 76 546 76 546 46 547 c 1,36,-1
 55 624 l 1,0,1
EndSplineSet
EndChar

StartChar: uni09F9
Encoding: 2553 2553 94
Width: 483
Flags: W
LayerCount: 2
Fore
SplineSet
59 330 m 256,0,1
 59 380 59 380 82.5 418.5 c 128,-1,2
 106 457 106 457 147.5 478.5 c 128,-1,3
 189 500 189 500 242 500 c 256,4,5
 295 500 295 500 336.5 478.5 c 128,-1,6
 378 457 378 457 401.5 419 c 128,-1,7
 425 381 425 381 425 330 c 0,8,9
 425 280 425 280 401.5 241 c 128,-1,10
 378 202 378 202 337 180.5 c 128,-1,11
 296 159 296 159 242 159 c 0,12,13
 189 159 189 159 147.5 180.5 c 128,-1,14
 106 202 106 202 82.5 241 c 128,-1,15
 59 280 59 280 59 330 c 256,0,1
136 330 m 256,16,17
 136 286 136 286 165.5 257.5 c 128,-1,18
 195 229 195 229 242 229 c 0,19,20
 288 229 288 229 318 257.5 c 128,-1,21
 348 286 348 286 348 330 c 256,22,23
 348 374 348 374 318 402 c 128,-1,24
 288 430 288 430 242 430 c 0,25,26
 195 430 195 430 165.5 402 c 128,-1,27
 136 374 136 374 136 330 c 256,16,17
EndSplineSet
EndChar

StartChar: issharbeng
Encoding: 2554 2554 95
Width: 676
Flags: W
LayerCount: 2
Fore
SplineSet
298 373 m 0,0,1
 239 373 239 373 190.5 399 c 128,-1,2
 142 425 142 425 112 479.5 c 128,-1,3
 82 534 82 534 76 618 c 1,4,-1
 158 624 l 1,5,6
 163 543 163 543 196.5 498 c 128,-1,7
 230 453 230 453 297 453 c 0,8,9
 341 453 341 453 374.5 468 c 128,-1,10
 408 483 408 483 435 517.5 c 128,-1,11
 462 552 462 552 485.5 609.5 c 128,-1,12
 509 667 509 667 533 752 c 1,13,-1
 615 732 l 1,14,15
 584 617 584 617 544 537 c 128,-1,16
 504 457 504 457 445 415 c 128,-1,17
 386 373 386 373 298 373 c 0,0,1
312 523 m 0,18,19
 287 523 287 523 269 540 c 128,-1,20
 251 557 251 557 251 582 c 0,21,22
 251 608 251 608 269 624.5 c 128,-1,23
 287 641 287 641 312 641 c 0,24,25
 336 641 336 641 353.5 624.5 c 128,-1,26
 371 608 371 608 371 582 c 0,27,28
 371 555 371 555 353 539 c 128,-1,29
 335 523 335 523 312 523 c 0,18,19
EndSplineSet
EndChar

StartChar: uni09FB
Encoding: 2555 2555 96
Width: 291
Flags: W
LayerCount: 2
Fore
SplineSet
57 249 m 0,0,1
 57 299 57 299 83 335 c 128,-1,2
 109 371 109 371 179 404 c 1,3,-1
 222 331 l 1,4,5
 189 317 189 317 171 302.5 c 128,-1,6
 153 288 153 288 146 274 c 128,-1,7
 139 260 139 260 139 246 c 0,8,9
 139 225 139 225 149 198 c 128,-1,10
 159 171 159 171 184.5 133 c 128,-1,11
 210 95 210 95 255.5 41 c 128,-1,12
 301 -13 301 -13 372 -88 c 1,13,-1
 306 -142 l 1,14,15
 232 -59 232 -59 183.5 1.5 c 128,-1,16
 135 62 135 62 107.5 106 c 128,-1,17
 80 150 80 150 68.5 184 c 128,-1,18
 57 218 57 218 57 249 c 0,0,1
EndSplineSet
EndChar

StartChar: uni09FC
Encoding: 2556 2556 97
Width: 537
GlyphClass: 2
Flags: W
AnchorPoint: "Anchor-2" -203 622 basechar 0
LayerCount: 2
Fore
SplineSet
482 485 m 1,0,1
 476 424 476 424 450.5 376.5 c 128,-1,2
 425 329 425 329 380.5 302.5 c 128,-1,3
 336 276 336 276 270 276 c 0,4,5
 205 276 205 276 159.5 302.5 c 128,-1,6
 114 329 114 329 88 376 c 128,-1,7
 62 423 62 423 55 484 c 1,8,-1
 130 495 l 1,9,10
 141 420 141 420 171 383.5 c 128,-1,11
 201 347 201 347 267 347 c 0,12,13
 329 347 329 347 363 383 c 128,-1,14
 397 419 397 419 407 496 c 1,15,-1
 482 485 l 1,0,1
322 458 m 0,16,17
 322 433 322 433 306.5 420 c 128,-1,18
 291 407 291 407 268 407 c 0,19,20
 242 407 242 407 228.5 422 c 128,-1,21
 215 437 215 437 215 461 c 0,22,23
 215 481 215 481 227.5 495.5 c 128,-1,24
 240 510 240 510 267 510 c 0,25,26
 295 510 295 510 308.5 497 c 128,-1,27
 322 484 322 484 322 458 c 0,16,17
248 193 m 1,28,-1
 494 -4 l 1,29,-1
 451 -58 l 1,30,-1
 196 129 l 1,31,-1
 248 193 l 1,28,-1
EndSplineSet
EndChar

StartChar: uni09FD
Encoding: 2557 2557 98
Width: 426
Flags: W
LayerCount: 2
Fore
SplineSet
213 229 m 0,0,1
 172 229 172 229 138 247 c 128,-1,2
 104 265 104 265 84 296.5 c 128,-1,3
 64 328 64 328 64 369 c 0,4,5
 64 407 64 407 82.5 438.5 c 128,-1,6
 101 470 101 470 135 489 c 128,-1,7
 169 508 169 508 213 508 c 0,8,9
 256 508 256 508 289 489.5 c 128,-1,10
 322 471 322 471 341.5 440 c 128,-1,11
 361 409 361 409 361 369 c 0,12,13
 361 330 361 330 341.5 298 c 128,-1,14
 322 266 322 266 289 247.5 c 128,-1,15
 256 229 256 229 213 229 c 0,0,1
213 295 m 0,16,17
 248 295 248 295 269.5 315.5 c 128,-1,18
 291 336 291 336 291 369 c 0,19,20
 291 401 291 401 269.5 421.5 c 128,-1,21
 248 442 248 442 213 442 c 0,22,23
 176 442 176 442 155 420.5 c 128,-1,24
 134 399 134 399 134 369 c 0,25,26
 134 336 134 336 156.5 315.5 c 128,-1,27
 179 295 179 295 213 295 c 0,16,17
EndSplineSet
EndChar

StartChar: uni09FE
Encoding: 2558 2558 99
Width: 0
GlyphClass: 4
Flags: W
LayerCount: 2
Fore
SplineSet
-11 858 m 0,0,1
 27 858 27 858 54.5 846.5 c 128,-1,2
 82 835 82 835 97 814.5 c 128,-1,3
 112 794 112 794 112 767 c 0,4,5
 112 724 112 724 80.5 699 c 128,-1,6
 49 674 49 674 -12 671 c 1,7,-1
 -13 692 l 1,8,9
 23 683 23 683 65 660.5 c 128,-1,10
 107 638 107 638 145 606 c 1,11,-1
 113 569 l 1,12,13
 69 602 69 602 35.5 622 c 128,-1,14
 2 642 2 642 -34 655.5 c 128,-1,15
 -70 669 -70 669 -122 679 c 1,16,-1
 -112 728 l 1,17,18
 -92 721 -92 721 -70.5 718.5 c 128,-1,19
 -49 716 -49 716 -27 716 c 0,20,21
 16 716 16 716 35 728 c 128,-1,22
 54 740 54 740 54 764 c 0,23,24
 54 786 54 786 36.5 798 c 128,-1,25
 19 810 19 810 -8 810 c 0,26,27
 -25 810 -25 810 -34.5 808 c 128,-1,28
 -44 806 -44 806 -48 801.5 c 128,-1,29
 -52 797 -52 797 -52 789 c 0,30,31
 -52 784 -52 784 -50 778.5 c 128,-1,32
 -48 773 -48 773 -47 769 c 1,33,-1
 -101 757 l 1,34,35
 -105 766 -105 766 -107 775.5 c 128,-1,36
 -109 785 -109 785 -109 795 c 0,37,38
 -109 824 -109 824 -83 841 c 128,-1,39
 -57 858 -57 858 -11 858 c 0,0,1
16 917 m 1,40,-1
 16 844 l 1,41,-1
 -41 833 l 1,42,-1
 -41 869 l 1,43,-1
 -142 869 l 1,44,-1
 -142 917 l 1,45,-1
 16 917 l 1,40,-1
EndSplineSet
Position2: "Single Positioning lookup 3 subtable" dx=0 dy=323 dh=0 dv=0
EndChar

StartChar: kassabeng
Encoding: 65566 -1 129
Width: 919
GlyphClass: 2
Flags: W
AnchorPoint: "Anchor-2" 459 622 basechar 0
AnchorPoint: "Anchor-1" 537 0 basechar 0
AnchorPoint: "Anchor-0" 537 622 basechar 0
LayerCount: 2
Fore
SplineSet
929 622 m 1,0,-1
 929 551 l 1,1,-1
 614 551 l 1,2,-1
 614 0 l 1,3,-1
 537 0 l 1,4,-1
 537 84 l 1,5,-1
 542 110 l 1,6,7
 540 122 540 122 538.5 148.5 c 128,-1,8
 537 175 537 175 537 202 c 2,9,-1
 537 419 l 1,10,-1
 537 431 l 1,11,-1
 537 551 l 1,12,-1
 -10 551 l 1,13,-1
 -10 622 l 1,14,-1
 929 622 l 1,0,-1
876 271 m 0,15,16
 876 241 876 241 863.5 212.5 c 128,-1,17
 851 184 851 184 822.5 166 c 128,-1,18
 794 148 794 148 745 148 c 0,19,20
 731 148 731 148 716.5 149 c 128,-1,21
 702 150 702 150 689 153 c 1,22,-1
 695 225 l 1,23,24
 700 224 700 224 710 223.5 c 128,-1,25
 720 223 720 223 728 223 c 0,26,27
 772 223 772 223 785.5 239.5 c 128,-1,28
 799 256 799 256 799 276 c 0,29,30
 799 295 799 295 792 309.5 c 128,-1,31
 785 324 785 324 772 334 c 0,32,33
 747 354 747 354 703 363 c 128,-1,34
 659 372 659 372 594 372 c 2,35,-1
 560 372 l 2,36,37
 501 372 501 372 454.5 386.5 c 128,-1,38
 408 401 408 401 381.5 436 c 128,-1,39
 355 471 355 471 355 531 c 0,40,41
 355 540 355 540 356.5 552.5 c 128,-1,42
 358 565 358 565 360 577 c 1,43,-1
 435 571 l 1,44,45
 434 562 434 562 432.5 553 c 128,-1,46
 431 544 431 544 431 536 c 0,47,48
 431 477 431 477 466 459.5 c 128,-1,49
 501 442 501 442 562 442 c 2,50,-1
 593 442 l 2,51,52
 691 442 691 442 745 425.5 c 128,-1,53
 799 409 799 409 831 380 c 0,54,55
 856 358 856 358 866 330.5 c 128,-1,56
 876 303 876 303 876 271 c 0,15,16
347 265 m 0,57,58
 390 265 390 265 427.5 246.5 c 128,-1,59
 465 228 465 228 497 196.5 c 128,-1,60
 529 165 529 165 553 126 c 1,61,-1
 554 55 l 1,62,-1
 543 34 l 1,63,64
 511 85 511 85 480 120.5 c 128,-1,65
 449 156 449 156 417.5 175 c 128,-1,66
 386 194 386 194 351 194 c 0,67,68
 334 194 334 194 322.5 188.5 c 128,-1,69
 311 183 311 183 305 173 c 128,-1,70
 299 163 299 163 299 148 c 0,71,72
 299 132 299 132 303 120 c 128,-1,73
 307 108 307 108 311 99 c 1,74,-1
 234 83 l 1,75,76
 227 97 227 97 222 115 c 128,-1,77
 217 133 217 133 217 150 c 0,78,79
 217 178 217 178 227 199.5 c 128,-1,80
 237 221 237 221 254.5 235.5 c 128,-1,81
 272 250 272 250 295.5 257.5 c 128,-1,82
 319 265 319 265 347 265 c 0,57,58
185 463 m 0,83,84
 237 463 237 463 279 440 c 128,-1,85
 321 417 321 417 346 373 c 128,-1,86
 371 329 371 329 371 265 c 0,87,88
 371 246 371 246 369 231 c 128,-1,89
 367 216 367 216 365 206 c 1,90,-1
 287 208 l 1,91,92
 291 221 291 221 292.5 234 c 128,-1,93
 294 247 294 247 294 256 c 0,94,95
 294 289 294 289 284 320 c 128,-1,96
 274 351 274 351 251.5 371.5 c 128,-1,97
 229 392 229 392 190 392 c 0,98,99
 158 392 158 392 144.5 378 c 128,-1,100
 131 364 131 364 131 342 c 0,101,102
 131 334 131 334 133.5 324 c 128,-1,103
 136 314 136 314 140 304 c 1,104,-1
 62 288 l 1,105,106
 55 303 55 303 51.5 319 c 128,-1,107
 48 335 48 335 48 349 c 0,108,109
 48 375 48 375 58 396 c 128,-1,110
 68 417 68 417 86 432 c 128,-1,111
 104 447 104 447 129 455 c 128,-1,112
 154 463 154 463 185 463 c 0,83,84
123 405 m 1,113,114
 125 413 125 413 125.5 424.5 c 128,-1,115
 126 436 126 436 126 449 c 0,116,117
 126 490 126 490 106 529.5 c 128,-1,118
 86 569 86 569 42 582 c 1,119,-1
 135 602 l 1,120,121
 169 574 169 574 185.5 539 c 128,-1,122
 202 504 202 504 202 450 c 0,123,124
 202 436 202 436 200.5 424.5 c 128,-1,125
 199 413 199 413 197 400 c 1,126,-1
 123 405 l 1,113,114
EndSplineSet
Ligature2: "'akhn' Akhand in Bengali2 lookup 25 subtable" kabeng viramabeng ssabeng
EndChar

StartChar: janyabeng
Encoding: 65567 -1 130
Width: 974
GlyphClass: 2
Flags: W
AnchorPoint: "Anchor-2" 487 622 basechar 0
AnchorPoint: "Anchor-1" 729 0 basechar 0
AnchorPoint: "Anchor-0" 547 622 basechar 0
LayerCount: 2
Fore
SplineSet
984 622 m 1,0,-1
 984 551 l 1,1,-1
 526 551 l 1,2,3
 447 516 447 516 405.5 485.5 c 128,-1,4
 364 455 364 455 349.5 429 c 128,-1,5
 335 403 335 403 335 380 c 0,6,7
 335 352 335 352 351 340 c 128,-1,8
 367 328 367 328 387 328 c 0,9,10
 428 328 428 328 456.5 345.5 c 128,-1,11
 485 363 485 363 525 396 c 1,12,-1
 600 376 l 1,13,14
 611 354 611 354 617.5 321.5 c 128,-1,15
 624 289 624 289 624 261 c 0,16,17
 624 208 624 208 603 162.5 c 128,-1,18
 582 117 582 117 533 90 c 128,-1,19
 484 63 484 63 401 63 c 0,20,21
 342 63 342 63 288 84 c 128,-1,22
 234 105 234 105 186.5 151.5 c 128,-1,23
 139 198 139 198 99.5 275.5 c 128,-1,24
 60 353 60 353 29 465 c 1,25,-1
 105 485 l 1,26,27
 139 362 139 362 181 285.5 c 128,-1,28
 223 209 223 209 278 174 c 128,-1,29
 333 139 333 139 404 139 c 0,30,31
 478 139 478 139 516 171.5 c 128,-1,32
 554 204 554 204 554 268 c 0,33,34
 554 299 554 299 546 321 c 128,-1,35
 538 343 538 343 530 358 c 1,36,-1
 588 364 l 1,37,38
 534 309 534 309 489 283 c 128,-1,39
 444 257 444 257 391 257 c 0,40,41
 352 257 352 257 322 272 c 128,-1,42
 292 287 292 287 275 315.5 c 128,-1,43
 258 344 258 344 258 384 c 0,44,45
 258 428 258 428 289 473.5 c 128,-1,46
 320 519 320 519 394 553 c 1,47,48
 374 552 374 552 348.5 551.5 c 128,-1,49
 323 551 323 551 298 551 c 2,50,-1
 -10 551 l 1,51,-1
 -10 622 l 1,52,-1
 984 622 l 1,0,-1
545 332 m 1,53,54
 512 360 512 360 488 399 c 128,-1,55
 464 438 464 438 450 478.5 c 128,-1,56
 436 519 436 519 432 551 c 1,57,-1
 505 572 l 1,58,59
 515 512 515 512 537.5 464 c 128,-1,60
 560 416 560 416 600 376 c 1,61,-1
 545 332 l 1,53,54
777 519 m 0,62,63
 844 519 844 519 880 487 c 128,-1,64
 916 455 916 455 916 405 c 0,65,66
 916 380 916 380 905 350.5 c 128,-1,67
 894 321 894 321 860.5 295.5 c 128,-1,68
 827 270 827 270 759 256 c 1,69,-1
 742 324 l 1,70,71
 795 332 795 332 817.5 352 c 128,-1,72
 840 372 840 372 840 397 c 0,73,74
 840 425 840 425 821 437.5 c 128,-1,75
 802 450 802 450 776 450 c 0,76,77
 730 450 730 450 688.5 414.5 c 128,-1,78
 647 379 647 379 609 309 c 1,79,-1
 574 391 l 1,80,81
 621 454 621 454 669 486.5 c 128,-1,82
 717 519 717 519 777 519 c 0,62,63
780 79 m 0,83,84
 734 79 734 79 700.5 93 c 128,-1,85
 667 107 667 107 642.5 133 c 128,-1,86
 618 159 618 159 599 194 c 1,87,-1
 576 314 l 1,88,-1
 613 339 l 1,89,90
 626 276 626 276 649.5 233.5 c 128,-1,91
 673 191 673 191 706 169.5 c 128,-1,92
 739 148 739 148 777 148 c 0,93,94
 804 148 804 148 825 162.5 c 128,-1,95
 846 177 846 177 846 206 c 0,96,97
 846 232 846 232 829.5 252 c 128,-1,98
 813 272 813 272 775 285 c 1,99,-1
 831 325 l 1,100,101
 852 317 852 317 873 301 c 128,-1,102
 894 285 894 285 908 261 c 128,-1,103
 922 237 922 237 922 203 c 0,104,105
 922 170 922 170 906 142 c 128,-1,106
 890 114 890 114 858.5 96.5 c 128,-1,107
 827 79 827 79 780 79 c 0,83,84
EndSplineSet
Ligature2: "'akhn' Akhand in Bengali2 lookup 25 subtable" jabeng viramabeng nyabeng
EndChar

StartChar: rephbeng
Encoding: 65568 -1 131
Width: 0
GlyphClass: 4
Flags: W
AnchorPoint: "Anchor-3" -172 622 mark 0
AnchorPoint: "Anchor-0" -172 622 mark 0
LayerCount: 2
Fore
SplineSet
-254 707 m 1,0,-1
 72 917 l 1,1,-1
 110 860 l 1,2,-1
 -209 644 l 1,3,-1
 -254 707 l 1,0,-1
EndSplineSet
Ligature2: "'rphf' Reph Form in Bengali2 lookup 26 subtable" ra1beng viramabeng
Ligature2: "'rphf' Reph Form in Bengali2 lookup 26 subtable" rabeng viramabeng
EndChar

StartChar: vattubeng
Encoding: 65569 -1 132
Width: 0
GlyphClass: 4
Flags: W
LayerCount: 2
Fore
SplineSet
-95 -233 m 1,0,-1
 -170 -233 l 1,1,2
 -183 -189 -183 -189 -209.5 -168 c 128,-1,3
 -236 -147 -236 -147 -280 -147 c 0,4,5
 -316 -147 -316 -147 -347 -151 c 128,-1,6
 -378 -155 -378 -155 -412 -159.5 c 128,-1,7
 -446 -164 -446 -164 -492 -164 c 0,8,9
 -525 -164 -525 -164 -561 -157.5 c 128,-1,10
 -597 -151 -597 -151 -627.5 -133.5 c 128,-1,11
 -658 -116 -658 -116 -677 -84 c 128,-1,12
 -696 -52 -696 -52 -696 -2 c 0,13,14
 -696 15 -696 15 -693.5 31 c 128,-1,15
 -691 47 -691 47 -687 58 c 1,16,-1
 -611 48 l 1,17,18
 -614 35 -614 35 -616 24.5 c 128,-1,19
 -618 14 -618 14 -618 0 c 0,20,21
 -618 -36 -618 -36 -601 -56 c 128,-1,22
 -584 -76 -584 -76 -555.5 -84 c 128,-1,23
 -527 -92 -527 -92 -495 -92 c 0,24,25
 -459 -92 -459 -92 -428 -87.5 c 128,-1,26
 -397 -83 -397 -83 -366.5 -79 c 128,-1,27
 -336 -75 -336 -75 -301 -75 c 0,28,29
 -258 -75 -258 -75 -226 -87 c 128,-1,30
 -194 -99 -194 -99 -172 -129 c 1,31,-1
 -172 121 l 1,32,-1
 -95 184 l 1,33,-1
 -95 -233 l 1,0,-1
EndSplineSet
Ligature2: "'blwf' Below Base Forms in Bengali2 lookup 27 subtable" viramabeng rabeng
Ligature2: "'blwf' Below Base Forms in Bengali2 lookup 27 subtable" viramabeng ra1beng
EndChar

StartChar: basubscriptbeng
Encoding: 65570 -1 133
Width: 0
GlyphClass: 4
Flags: W
LayerCount: 2
Fore
SplineSet
-95 67 m 1,0,-1
 -95 -268 l 1,1,-1
 -172 -268 l 1,2,3
 -209 -229 -209 -229 -248.5 -205 c 128,-1,4
 -288 -181 -288 -181 -331 -167 c 128,-1,5
 -374 -153 -374 -153 -422 -145 c 1,6,-1
 -458 -65 l 1,7,8
 -421 -43 -421 -43 -372 -18.5 c 128,-1,9
 -323 6 -323 6 -270.5 29 c 128,-1,10
 -218 52 -218 52 -172 67 c 1,11,-1
 -95 67 l 1,0,-1
-172 -5 m 1,12,13
 -204 -17 -204 -17 -243 -34 c 128,-1,14
 -282 -51 -282 -51 -318 -68 c 128,-1,15
 -354 -85 -354 -85 -379 -99 c 1,16,-1
 -368 -91 l 1,17,18
 -312 -104 -312 -104 -262.5 -126 c 128,-1,19
 -213 -148 -213 -148 -169 -187 c 1,20,21
 -170 -170 -170 -170 -171 -148 c 128,-1,22
 -172 -126 -172 -126 -172 -113 c 2,23,-1
 -172 -5 l 1,12,13
EndSplineSet
Ligature2: "'blwf' Below Base Forms in Bengali2 lookup 27 subtable" viramabeng babeng
EndChar

StartChar: kahalfbeng
Encoding: 65571 -1 134
Width: 682
GlyphClass: 2
Flags: W
AnchorPoint: "Anchor-2" 403 622 basechar 0
LayerCount: 2
Fore
SplineSet
-10 551 m 1,0,-1
 -10 622 l 1,1,-1
 692 622 l 1,2,-1
 692 551 l 1,3,-1
 -10 551 l 1,0,-1
438 556 m 1,4,-1
 438 508 l 1,5,-1
 437 518 l 1,6,7
 500 507 500 507 553.5 482.5 c 128,-1,8
 607 458 607 458 640 419 c 128,-1,9
 673 380 673 380 673 325 c 0,10,11
 673 277 673 277 642 243.5 c 128,-1,12
 611 210 611 210 549 210 c 0,13,14
 536 210 536 210 522.5 211.5 c 128,-1,15
 509 213 509 213 497 215 c 1,16,-1
 501 285 l 1,17,18
 507 284 507 284 514 283.5 c 128,-1,19
 521 283 521 283 530 283 c 0,20,21
 571 283 571 283 583.5 298 c 128,-1,22
 596 313 596 313 596 333 c 0,23,24
 596 372 596 372 556 402.5 c 128,-1,25
 516 433 516 433 437 446 c 1,26,-1
 439 452 l 1,27,-1
 439 125 l 1,28,-1
 362 125 l 1,29,30
 331 175 331 175 286.5 209.5 c 128,-1,31
 242 244 242 244 188.5 264.5 c 128,-1,32
 135 285 135 285 74 292 c 1,33,-1
 37 382 l 1,34,35
 91 411 91 411 151 438 c 128,-1,36
 211 465 211 465 270.5 486 c 128,-1,37
 330 507 330 507 381 519 c 1,38,-1
 362 479 l 1,39,-1
 362 555 l 1,40,-1
 438 556 l 1,4,-1
362 474 m 1,41,-1
 382 446 l 1,42,43
 340 435 340 435 294 418.5 c 128,-1,44
 248 402 248 402 203 383 c 128,-1,45
 158 364 158 364 118 342 c 1,46,-1
 111 356 l 1,47,48
 196 343 196 343 259 306 c 128,-1,49
 322 269 322 269 365 222 c 1,50,51
 364 241 364 241 363 265.5 c 128,-1,52
 362 290 362 290 362 305 c 2,53,-1
 362 474 l 1,41,-1
EndSplineSet
Ligature2: "'half' Half Forms in Bengali2 lookup 28 subtable" kabeng viramabeng
MultipleSubs2: "Multiple Substitution lookup 9 subtable" kahalfbeng crossbeng
EndChar

StartChar: gahalfbeng
Encoding: 65573 -1 136
Width: 494
Flags: W
LayerCount: 2
Fore
SplineSet
255 629 m 0,0,1
 315 629 315 629 362.5 606 c 128,-1,2
 410 583 410 583 453.5 540.5 c 128,-1,3
 497 498 497 498 543 437 c 1,4,-1
 483 392 l 1,5,6
 443 448 443 448 408 484.5 c 128,-1,7
 373 521 373 521 337.5 538.5 c 128,-1,8
 302 556 302 556 260 556 c 0,9,10
 224 556 224 556 198.5 545 c 128,-1,11
 173 534 173 534 154 516.5 c 128,-1,12
 135 499 135 499 117 479 c 1,13,-1
 95 477 l 1,14,15
 110 485 110 485 137 496 c 128,-1,16
 164 507 164 507 203 507 c 0,17,18
 247 507 247 507 273 491.5 c 128,-1,19
 299 476 299 476 311 452.5 c 128,-1,20
 323 429 323 429 323 404 c 0,21,22
 323 372 323 372 308.5 343.5 c 128,-1,23
 294 315 294 315 260.5 287.5 c 128,-1,24
 227 260 227 260 168 229 c 1,25,-1
 123 299 l 1,26,27
 181 325 181 325 212 348 c 128,-1,28
 243 371 243 371 243 400 c 0,29,30
 243 419 243 419 229.5 429.5 c 128,-1,31
 216 440 216 440 190 440 c 0,32,33
 166 440 166 440 142.5 434 c 128,-1,34
 119 428 119 428 93 416 c 1,35,-1
 22 473 l 1,36,37
 54 520 54 520 89.5 555 c 128,-1,38
 125 590 125 590 166.5 609.5 c 128,-1,39
 208 629 208 629 255 629 c 0,0,1
EndSplineSet
Ligature2: "'half' Half Forms in Bengali2 lookup 28 subtable" gabeng viramabeng
EndChar

StartChar: ngahalfbeng
Encoding: 65575 -1 138
Width: 625
Flags: W
LayerCount: 2
Fore
SplineSet
364 125 m 0,0,1
 293 125 293 125 229.5 157 c 128,-1,2
 166 189 166 189 115.5 261 c 128,-1,3
 65 333 65 333 29 453 c 1,4,-1
 103 473 l 1,5,6
 131 373 131 373 168.5 313 c 128,-1,7
 206 253 206 253 255 226 c 128,-1,8
 304 199 304 199 366 199 c 0,9,10
 413 199 413 199 447.5 210.5 c 128,-1,11
 482 222 482 222 500.5 244.5 c 128,-1,12
 519 267 519 267 519 301 c 0,13,14
 519 313 519 313 517 326 c 128,-1,15
 515 339 515 339 510 351 c 1,16,-1
 556 384 l 1,17,18
 513 339 513 339 478 316 c 128,-1,19
 443 293 443 293 413.5 285.5 c 128,-1,20
 384 278 384 278 355 278 c 0,21,22
 295 278 295 278 263 317 c 128,-1,23
 231 356 231 356 231 414 c 0,24,25
 231 464 231 464 245.5 501.5 c 128,-1,26
 260 539 260 539 285 564.5 c 128,-1,27
 310 590 310 590 341.5 603 c 128,-1,28
 373 616 373 616 406 616 c 0,29,30
 438 616 438 616 464 606.5 c 128,-1,31
 490 597 490 597 506 576.5 c 128,-1,32
 522 556 522 556 522 523 c 0,33,34
 522 476 522 476 486.5 447 c 128,-1,35
 451 418 451 418 383 418 c 0,36,37
 355 418 355 418 326.5 424 c 128,-1,38
 298 430 298 430 283 437 c 1,39,-1
 295 496 l 1,40,41
 309 489 309 489 334 483.5 c 128,-1,42
 359 478 359 478 384 478 c 0,43,44
 422 478 422 478 438 492.5 c 128,-1,45
 454 507 454 507 454 527 c 0,46,47
 454 548 454 548 440 556.5 c 128,-1,48
 426 565 426 565 407 565 c 0,49,50
 376 565 376 565 352.5 542.5 c 128,-1,51
 329 520 329 520 316 483 c 128,-1,52
 303 446 303 446 303 404 c 0,53,54
 303 376 303 376 315 361.5 c 128,-1,55
 327 347 327 347 356 347 c 0,56,57
 379 347 379 347 401.5 355 c 128,-1,58
 424 363 424 363 450 380 c 128,-1,59
 476 397 476 397 507 424 c 1,60,-1
 562 421 l 1,61,62
 576 395 576 395 585 362.5 c 128,-1,63
 594 330 594 330 594 297 c 0,64,65
 594 219 594 219 534 172 c 128,-1,66
 474 125 474 125 364 125 c 0,0,1
635 622 m 1,67,-1
 635 551 l 1,68,-1
 455 551 l 1,69,-1
 401 585 l 1,70,-1
 303 554 l 1,71,72
 282 553 282 553 261 552 c 128,-1,73
 240 551 240 551 218 551 c 2,74,-1
 -10 551 l 1,75,-1
 -10 622 l 1,76,-1
 635 622 l 1,67,-1
EndSplineSet
Ligature2: "'half' Half Forms in Bengali2 lookup 28 subtable" ngabeng viramabeng
EndChar

StartChar: cahalfbeng
Encoding: 65576 -1 139
Width: 495
Flags: W
LayerCount: 2
Fore
SplineSet
505 622 m 1,0,-1
 505 551 l 1,1,-1
 159 551 l 1,2,-1
 159 510 l 1,3,-1
 154 483 l 2,4,5
 156 472 156 472 157.5 450 c 128,-1,6
 159 428 159 428 159 402 c 2,7,-1
 159 271 l 2,8,9
 159 228 159 228 172 211 c 128,-1,10
 185 194 185 194 220 194 c 0,11,12
 257 194 257 194 286.5 208 c 128,-1,13
 316 222 316 222 339 244 c 0,14,15
 362 265 362 265 376.5 293 c 128,-1,16
 391 321 391 321 391 349 c 256,17,18
 391 377 391 377 375 385.5 c 128,-1,19
 359 394 359 394 330 394 c 2,20,-1
 324 394 l 2,21,22
 281 394 281 394 258.5 398.5 c 128,-1,23
 236 403 236 403 213 414 c 0,24,25
 194 423 194 423 176 437 c 128,-1,26
 158 451 158 451 147 464 c 1,27,-1
 158 533 l 1,28,29
 176 511 176 511 196.5 495.5 c 128,-1,30
 217 480 217 480 245 472.5 c 128,-1,31
 273 465 273 465 314 465 c 2,32,-1
 331 465 l 2,33,34
 372 465 372 465 393 460.5 c 128,-1,35
 414 456 414 456 428 447 c 0,36,37
 450 433 450 433 460 410.5 c 128,-1,38
 470 388 470 388 470 357 c 0,39,40
 470 303 470 303 443.5 258.5 c 128,-1,41
 417 214 417 214 377 182 c 0,42,43
 343 154 343 154 302.5 139.5 c 128,-1,44
 262 125 262 125 214 125 c 0,45,46
 180 125 180 125 156.5 133.5 c 128,-1,47
 133 142 133 142 117 156 c 0,48,49
 103 170 103 170 92.5 193.5 c 128,-1,50
 82 217 82 217 82 271 c 2,51,-1
 82 551 l 1,52,-1
 -10 551 l 1,53,-1
 -10 622 l 1,54,-1
 505 622 l 1,0,-1
EndSplineSet
Ligature2: "'half' Half Forms in Bengali2 lookup 28 subtable" cabeng viramabeng
EndChar

StartChar: ttahalfbeng
Encoding: 65581 -1 144
Width: 495
Flags: W
LayerCount: 2
Fore
SplineSet
505 622 m 1,0,-1
 505 551 l 1,1,-1
 159 551 l 1,2,-1
 159 271 l 2,3,4
 159 228 159 228 172 211 c 128,-1,5
 185 194 185 194 221 194 c 0,6,7
 256 194 256 194 286 208 c 128,-1,8
 316 222 316 222 339 244 c 0,9,10
 364 267 364 267 378 295 c 128,-1,11
 392 323 392 323 392 351 c 0,12,13
 392 375 392 375 378 387.5 c 128,-1,14
 364 400 364 400 334 400 c 0,15,16
 319 400 319 400 307 398.5 c 128,-1,17
 295 397 295 397 284 395 c 1,18,-1
 274 463 l 1,19,20
 291 468 291 468 311 470.5 c 128,-1,21
 331 473 331 473 353 473 c 0,22,23
 403 473 403 473 436.5 445.5 c 128,-1,24
 470 418 470 418 470 356 c 0,25,26
 470 303 470 303 443.5 258.5 c 128,-1,27
 417 214 417 214 377 182 c 0,28,29
 343 154 343 154 303 139.5 c 128,-1,30
 263 125 263 125 214 125 c 0,31,32
 180 125 180 125 156.5 133.5 c 128,-1,33
 133 142 133 142 117 156 c 0,34,35
 103 170 103 170 92.5 193.5 c 128,-1,36
 82 217 82 217 82 271 c 2,37,-1
 82 551 l 1,38,-1
 -10 551 l 1,39,-1
 -10 622 l 1,40,-1
 505 622 l 1,0,-1
375 622 m 1,41,42
 374 663 374 663 355.5 681 c 128,-1,43
 337 699 337 699 295 699 c 2,44,-1
 221 699 l 2,45,46
 156 699 156 699 120.5 708 c 128,-1,47
 85 717 85 717 60 736 c 0,48,49
 33 756 33 756 19.5 787.5 c 128,-1,50
 6 819 6 819 6 859 c 0,51,52
 6 872 6 872 7.5 884.5 c 128,-1,53
 9 897 9 897 11 912 c 1,54,-1
 85 907 l 1,55,56
 83 896 83 896 82 887.5 c 128,-1,57
 81 879 81 879 81 869 c 0,58,59
 81 847 81 847 85.5 830 c 128,-1,60
 90 813 90 813 100 802 c 0,61,62
 114 786 114 786 140.5 778.5 c 128,-1,63
 167 771 167 771 216 771 c 2,64,-1
 274 771 l 2,65,66
 327 771 327 771 358 763 c 128,-1,67
 389 755 389 755 411 734 c 0,68,69
 428 718 428 718 437 690.5 c 128,-1,70
 446 663 446 663 447 622 c 1,71,-1
 375 622 l 1,41,42
EndSplineSet
Ligature2: "'half' Half Forms in Bengali2 lookup 28 subtable" ttabeng viramabeng
EndChar

StartChar: ddahalfbeng
Encoding: 65583 -1 146
Width: 615
Flags: W
LayerCount: 2
Fore
SplineSet
625 622 m 1,0,-1
 625 551 l 1,1,-1
 320 551 l 1,2,-1
 320 425 l 2,3,4
 320 405 320 405 327 394 c 128,-1,5
 334 383 334 383 351 383 c 0,6,7
 367 383 367 383 384 392 c 128,-1,8
 401 401 401 401 421.5 421.5 c 128,-1,9
 442 442 442 442 467 478 c 1,10,-1
 524 487 l 1,11,12
 554 446 554 446 569.5 405 c 128,-1,13
 585 364 585 364 585 320 c 0,14,15
 585 267 585 267 559.5 225.5 c 128,-1,16
 534 184 534 184 485.5 160.5 c 128,-1,17
 437 137 437 137 367 137 c 0,18,19
 311 137 311 137 261.5 154.5 c 128,-1,20
 212 172 212 172 169.5 211.5 c 128,-1,21
 127 251 127 251 92 316 c 128,-1,22
 57 381 57 381 29 475 c 1,23,-1
 103 495 l 1,24,25
 131 393 131 393 168.5 330.5 c 128,-1,26
 206 268 206 268 254.5 239.5 c 128,-1,27
 303 211 303 211 364 211 c 0,28,29
 434 211 434 211 471.5 240.5 c 128,-1,30
 509 270 509 270 509 322 c 0,31,32
 509 356 509 356 498 382.5 c 128,-1,33
 487 409 487 409 466 434 c 1,34,-1
 516 434 l 1,35,36
 488 391 488 391 461 364 c 128,-1,37
 434 337 434 337 406 324.5 c 128,-1,38
 378 312 378 312 347 312 c 0,39,40
 325 312 325 312 308 317.5 c 128,-1,41
 291 323 291 323 278 333 c 0,42,43
 264 345 264 345 253.5 367.5 c 128,-1,44
 243 390 243 390 243 439 c 2,45,-1
 243 551 l 1,46,-1
 -10 551 l 1,47,-1
 -10 622 l 1,48,-1
 625 622 l 1,0,-1
EndSplineSet
Ligature2: "'half' Half Forms in Bengali2 lookup 28 subtable" ddabeng viramabeng
EndChar

StartChar: ddhahalfbeng
Encoding: 65584 -1 147
Width: 495
Flags: W
LayerCount: 2
Fore
SplineSet
505 622 m 1,0,-1
 505 551 l 1,1,-1
 159 551 l 1,2,-1
 159 271 l 2,3,4
 159 228 159 228 172 211 c 128,-1,5
 185 194 185 194 221 194 c 0,6,7
 256 194 256 194 286 208 c 128,-1,8
 316 222 316 222 339 244 c 0,9,10
 364 267 364 267 378 295 c 128,-1,11
 392 323 392 323 392 351 c 0,12,13
 392 375 392 375 378 387.5 c 128,-1,14
 364 400 364 400 334 400 c 0,15,16
 319 400 319 400 307 398.5 c 128,-1,17
 295 397 295 397 284 395 c 1,18,-1
 274 463 l 1,19,20
 291 468 291 468 311 470.5 c 128,-1,21
 331 473 331 473 353 473 c 0,22,23
 403 473 403 473 436.5 445.5 c 128,-1,24
 470 418 470 418 470 356 c 0,25,26
 470 303 470 303 443.5 258.5 c 128,-1,27
 417 214 417 214 377 182 c 0,28,29
 343 154 343 154 303 139.5 c 128,-1,30
 263 125 263 125 214 125 c 0,31,32
 180 125 180 125 156.5 133.5 c 128,-1,33
 133 142 133 142 117 156 c 0,34,35
 103 170 103 170 92.5 193.5 c 128,-1,36
 82 217 82 217 82 271 c 2,37,-1
 82 551 l 1,38,-1
 -10 551 l 1,39,-1
 -10 622 l 1,40,-1
 505 622 l 1,0,-1
EndSplineSet
Ligature2: "'half' Half Forms in Bengali2 lookup 28 subtable" ddhabeng viramabeng
EndChar

StartChar: nnahalfbeng
Encoding: 65585 -1 148
Width: 413
Flags: W
LayerCount: 2
Fore
SplineSet
202 629 m 0,0,1
 254 629 254 629 296.5 610.5 c 128,-1,2
 339 592 339 592 379 557 c 128,-1,3
 419 522 419 522 465 474 c 1,4,-1
 409 423 l 1,5,6
 353 489 353 489 308 522.5 c 128,-1,7
 263 556 263 556 213 556 c 0,8,9
 190 556 190 556 169 547.5 c 128,-1,10
 148 539 148 539 135 520 c 128,-1,11
 122 501 122 501 122 470 c 0,12,13
 122 425 122 425 157 403 c 128,-1,14
 192 381 192 381 261 373 c 1,15,-1
 255 290 l 1,16,17
 195 295 195 295 146 316 c 128,-1,18
 97 337 97 337 68.5 375.5 c 128,-1,19
 40 414 40 414 40 469 c 0,20,21
 40 525 40 525 63.5 560 c 128,-1,22
 87 595 87 595 124.5 612 c 128,-1,23
 162 629 162 629 202 629 c 0,0,1
EndSplineSet
Ligature2: "'half' Half Forms in Bengali2 lookup 28 subtable" nnabeng viramabeng
EndChar

StartChar: dahalfbeng
Encoding: 65587 -1 150
Width: 529
Flags: W
LayerCount: 2
Fore
SplineSet
539 622 m 1,0,-1
 539 551 l 1,1,-1
 159 551 l 1,2,-1
 159 334 l 1,3,-1
 143 356 l 1,4,5
 180 385 180 385 224.5 412.5 c 128,-1,6
 269 440 269 440 322 464 c 128,-1,7
 375 488 375 488 436 506 c 1,8,-1
 494 448 l 1,9,10
 471 409 471 409 463 367 c 128,-1,11
 455 325 455 325 455 287 c 0,12,13
 455 254 455 254 461.5 214 c 128,-1,14
 468 174 468 174 482 133 c 1,15,-1
 408 118 l 1,16,17
 393 162 393 162 385 207.5 c 128,-1,18
 377 253 377 253 377 290 c 0,19,20
 377 335 377 335 384 371 c 128,-1,21
 391 407 391 407 407 434 c 1,22,-1
 420 427 l 1,23,24
 370 410 370 410 321.5 385.5 c 128,-1,25
 273 361 273 361 227 329.5 c 128,-1,26
 181 298 181 298 136 259 c 1,27,-1
 82 293 l 1,28,-1
 82 551 l 1,29,-1
 -10 551 l 1,30,-1
 -10 622 l 1,31,-1
 539 622 l 1,0,-1
EndSplineSet
Ligature2: "'half' Half Forms in Bengali2 lookup 28 subtable" dabeng viramabeng
EndChar

StartChar: nahalfbeng
Encoding: 65588 -1 151
Width: 369
Flags: W
LayerCount: 2
Fore
SplineSet
195 490 m 0,0,1
 240 490 240 490 277 476.5 c 128,-1,2
 314 463 314 463 350.5 436 c 128,-1,3
 387 409 387 409 428 369 c 1,4,-1
 375 316 l 1,5,6
 336 360 336 360 292 389 c 128,-1,7
 248 418 248 418 207 418 c 0,8,9
 174 418 174 418 151 401 c 128,-1,10
 128 384 128 384 128 350 c 0,11,12
 128 323 128 323 146.5 304 c 128,-1,13
 165 285 165 285 202 269 c 1,14,-1
 165 198 l 1,15,16
 109 221 109 221 77.5 261.5 c 128,-1,17
 46 302 46 302 46 353 c 0,18,19
 46 398 46 398 67.5 428.5 c 128,-1,20
 89 459 89 459 123.5 474.5 c 128,-1,21
 158 490 158 490 195 490 c 0,0,1
-10 551 m 1,22,-1
 -10 622 l 1,23,-1
 379 622 l 1,24,-1
 379 551 l 1,25,-1
 -10 551 l 1,22,-1
EndSplineSet
Ligature2: "'half' Half Forms in Bengali2 lookup 28 subtable" nabeng viramabeng
EndChar

StartChar: pahalfbeng
Encoding: 65589 -1 152
Width: 554
Flags: W
LayerCount: 2
Fore
SplineSet
291 629 m 0,0,1
 338 629 338 629 376.5 615 c 128,-1,2
 415 601 415 601 451 573.5 c 128,-1,3
 487 546 487 546 524 504.5 c 128,-1,4
 561 463 561 463 604 408 c 1,5,-1
 545 363 l 1,6,7
 508 414 508 414 477.5 451 c 128,-1,8
 447 488 447 488 418.5 511 c 128,-1,9
 390 534 390 534 360 545 c 128,-1,10
 330 556 330 556 295 556 c 0,11,12
 258 556 258 556 225 545 c 128,-1,13
 192 534 192 534 164.5 516 c 128,-1,14
 137 498 137 498 114 478 c 1,15,-1
 106 477 l 1,16,17
 122 486 122 486 140.5 491.5 c 128,-1,18
 159 497 159 497 182 497 c 0,19,20
 235 497 235 497 258 466.5 c 128,-1,21
 281 436 281 436 281 396 c 0,22,23
 281 389 281 389 280.5 380 c 128,-1,24
 280 371 280 371 278 363 c 1,25,-1
 169 299 l 1,26,27
 190 317 190 317 203 335.5 c 128,-1,28
 216 354 216 354 216 383 c 0,29,30
 216 401 216 401 203 417.5 c 128,-1,31
 190 434 190 434 160 434 c 0,32,33
 144 434 144 434 127.5 428.5 c 128,-1,34
 111 423 111 423 95 413 c 1,35,-1
 22 485 l 1,36,37
 62 528 62 528 104 560 c 128,-1,38
 146 592 146 592 192 610.5 c 128,-1,39
 238 629 238 629 291 629 c 0,0,1
498 474 m 1,40,-1
 216 238 l 1,41,-1
 162 297 l 1,42,-1
 254 368 l 1,43,-1
 266 370 l 1,44,45
 283 386 283 386 298.5 399 c 128,-1,46
 314 412 314 412 333 428 c 2,47,-1
 451 526 l 1,48,-1
 498 474 l 1,40,-1
EndSplineSet
Ligature2: "'half' Half Forms in Bengali2 lookup 28 subtable" pabeng viramabeng
MultipleSubs2: "Multiple Substitution lookup 9 subtable" pahalfbeng wavebeng
EndChar

StartChar: bahalfbeng
Encoding: 65591 -1 154
Width: 510
Flags: W
LayerCount: 2
Fore
SplineSet
520 622 m 1,0,-1
 520 551 l 1,1,-1
 -10 551 l 1,2,-1
 -10 622 l 1,3,-1
 520 622 l 1,0,-1
450 556 m 1,4,-1
 450 125 l 1,5,-1
 373 125 l 1,6,7
 341 175 341 175 295 209.5 c 128,-1,8
 249 244 249 244 193 264.5 c 128,-1,9
 137 285 137 285 74 292 c 1,10,-1
 37 382 l 1,11,12
 92 411 92 411 152.5 437 c 128,-1,13
 213 463 213 463 274.5 484 c 128,-1,14
 336 505 336 505 392 519 c 1,15,-1
 373 479 l 1,16,-1
 373 555 l 1,17,-1
 450 556 l 1,4,-1
373 474 m 1,18,-1
 394 445 l 1,19,20
 350 434 350 434 301.5 418 c 128,-1,21
 253 402 253 402 206 382.5 c 128,-1,22
 159 363 159 363 117 342 c 1,23,-1
 110 356 l 1,24,25
 199 343 199 343 264.5 306 c 128,-1,26
 330 269 330 269 376 222 c 1,27,28
 375 241 375 241 374 265.5 c 128,-1,29
 373 290 373 290 373 305 c 2,30,-1
 373 474 l 1,18,-1
EndSplineSet
Ligature2: "'half' Half Forms in Bengali2 lookup 28 subtable" babeng viramabeng
EndChar

StartChar: mahalfbeng
Encoding: 65593 -1 156
Width: 570
Flags: W
LayerCount: 2
Fore
SplineSet
396 300 m 0,0,1
 364 300 364 300 338 307.5 c 128,-1,2
 312 315 312 315 287 329.5 c 128,-1,3
 262 344 262 344 234 365 c 0,4,5
 209 385 209 385 195 392 c 128,-1,6
 181 399 181 399 164 399 c 0,7,8
 146 399 146 399 135 390 c 128,-1,9
 124 381 124 381 124 363 c 0,10,11
 124 348 124 348 134 334.5 c 128,-1,12
 144 321 144 321 160 308 c 1,13,-1
 105 253 l 1,14,15
 79 275 79 275 60.5 304 c 128,-1,16
 42 333 42 333 42 369 c 0,17,18
 42 404 42 404 58.5 426 c 128,-1,19
 75 448 75 448 101.5 459 c 128,-1,20
 128 470 128 470 157 470 c 0,21,22
 181 470 181 470 202 462 c 128,-1,23
 223 454 223 454 242 442 c 128,-1,24
 261 430 261 430 278 418 c 0,25,26
 311 395 311 395 335 383 c 128,-1,27
 359 371 359 371 389 371 c 0,28,29
 425 371 425 371 444 388 c 128,-1,30
 463 405 463 405 463 442 c 0,31,32
 463 480 463 480 443 514.5 c 128,-1,33
 423 549 423 549 393 575 c 1,34,-1
 472 591 l 1,35,36
 488 577 488 577 503.5 554.5 c 128,-1,37
 519 532 519 532 529.5 503.5 c 128,-1,38
 540 475 540 475 540 442 c 0,39,40
 540 397 540 397 524 365.5 c 128,-1,41
 508 334 508 334 476 317 c 128,-1,42
 444 300 444 300 396 300 c 0,0,1
87 601 m 1,43,-1
 133 589 l 1,44,45
 198 563 198 563 221.5 530 c 128,-1,46
 245 497 245 497 245 442 c 0,47,48
 245 434 245 434 244 424 c 128,-1,49
 243 414 243 414 241 405 c 1,50,-1
 165 407 l 1,51,52
 167 418 167 418 167.5 427 c 128,-1,53
 168 436 168 436 168 444 c 0,54,55
 168 485 168 485 144 514.5 c 128,-1,56
 120 544 120 544 65 556 c 1,57,-1
 87 601 l 1,43,-1
-10 551 m 1,58,-1
 -10 622 l 1,59,-1
 580 622 l 1,60,-1
 580 551 l 1,61,-1
 -10 551 l 1,58,-1
EndSplineSet
Ligature2: "'half' Half Forms in Bengali2 lookup 28 subtable" mabeng viramabeng
EndChar

StartChar: lahalfbeng
Encoding: 65595 -1 158
Width: 537
Flags: W
LayerCount: 2
Fore
SplineSet
-10 551 m 1,0,-1
 -10 622 l 1,1,-1
 547 622 l 1,2,-1
 547 551 l 1,3,-1
 -10 551 l 1,0,-1
200 486 m 0,4,5
 232 486 232 486 259 477.5 c 128,-1,6
 286 469 286 469 309 451 c 128,-1,7
 332 433 332 433 352 404 c 1,8,-1
 336 403 l 1,9,10
 347 436 347 436 374 453.5 c 128,-1,11
 401 471 401 471 435 471 c 0,12,13
 482 471 482 471 520 447.5 c 128,-1,14
 558 424 558 424 595 383 c 1,15,-1
 537 336 l 1,16,17
 517 365 517 365 493 382 c 128,-1,18
 469 399 469 399 440 399 c 0,19,20
 420 399 420 399 401 386 c 128,-1,21
 382 373 382 373 382 338 c 0,22,23
 382 331 382 331 382.5 322.5 c 128,-1,24
 383 314 383 314 384 306 c 1,25,-1
 319 301 l 1,26,27
 314 338 314 338 297.5 363 c 128,-1,28
 281 388 281 388 257.5 401 c 128,-1,29
 234 414 234 414 207 414 c 0,30,31
 170 414 170 414 149 395.5 c 128,-1,32
 128 377 128 377 128 347 c 0,33,34
 128 308 128 308 156.5 286.5 c 128,-1,35
 185 265 185 265 234 248 c 1,36,-1
 207 174 l 1,37,38
 161 188 161 188 124.5 211 c 128,-1,39
 88 234 88 234 67 269 c 128,-1,40
 46 304 46 304 46 353 c 0,41,42
 46 392 46 392 66.5 422 c 128,-1,43
 87 452 87 452 122 469 c 128,-1,44
 157 486 157 486 200 486 c 0,4,5
EndSplineSet
Ligature2: "'half' Half Forms in Bengali2 lookup 28 subtable" labeng viramabeng
EndChar

StartChar: shahalfbeng
Encoding: 65596 -1 159
Width: 528
Flags: W
LayerCount: 2
Fore
SplineSet
364 629 m 0,0,1
 410 629 410 629 447.5 611 c 128,-1,2
 485 593 485 593 519.5 558.5 c 128,-1,3
 554 524 554 524 589 473 c 1,4,-1
 530 427 l 1,5,6
 493 482 493 482 455 519 c 128,-1,7
 417 556 417 556 363 556 c 0,8,9
 324 556 324 556 300 534.5 c 128,-1,10
 276 513 276 513 276 471 c 0,11,12
 276 431 276 431 308.5 405.5 c 128,-1,13
 341 380 341 380 413 377 c 1,14,-1
 406 300 l 1,15,16
 340 304 340 304 297.5 327 c 128,-1,17
 255 350 255 350 235 387.5 c 128,-1,18
 215 425 215 425 215 474 c 0,19,20
 215 527 215 527 236 561.5 c 128,-1,21
 257 596 257 596 291 612.5 c 128,-1,22
 325 629 325 629 364 629 c 0,0,1
77 629 m 0,23,24
 119 629 119 629 156.5 612 c 128,-1,25
 194 595 194 595 218 558 c 128,-1,26
 242 521 242 521 242 461 c 0,27,28
 242 420 242 420 222 383 c 128,-1,29
 202 346 202 346 160.5 323 c 128,-1,30
 119 300 119 300 54 300 c 1,31,-1
 48 377 l 1,32,33
 99 378 99 378 128 391.5 c 128,-1,34
 157 405 157 405 169 426 c 128,-1,35
 181 447 181 447 181 468 c 0,36,37
 181 509 181 509 155 532.5 c 128,-1,38
 129 556 129 556 76 556 c 0,39,40
 58 556 58 556 40.5 553.5 c 128,-1,41
 23 551 23 551 -1 545 c 1,42,-1
 -9 620 l 1,43,44
 16 625 16 625 35.5 627 c 128,-1,45
 55 629 55 629 77 629 c 0,23,24
EndSplineSet
Ligature2: "'half' Half Forms in Bengali2 lookup 28 subtable" shabeng viramabeng
EndChar

StartChar: ssahalfbeng
Encoding: 65597 -1 160
Width: 505
Flags: W
LayerCount: 2
Fore
SplineSet
270 616 m 0,0,1
 370 616 370 616 423 573 c 128,-1,2
 476 530 476 530 476 453 c 0,3,4
 476 390 476 390 442 348 c 128,-1,5
 408 306 408 306 354.5 285 c 128,-1,6
 301 264 301 264 242 264 c 0,7,8
 187 264 187 264 142.5 284 c 128,-1,9
 98 304 98 304 72 342.5 c 128,-1,10
 46 381 46 381 46 436 c 0,11,12
 46 481 46 481 65 514.5 c 128,-1,13
 84 548 84 548 116.5 570.5 c 128,-1,14
 149 593 149 593 189 604.5 c 128,-1,15
 229 616 229 616 270 616 c 0,0,1
274 554 m 0,16,17
 231 554 231 554 196.5 540 c 128,-1,18
 162 526 162 526 142 500 c 128,-1,19
 122 474 122 474 122 436 c 0,20,21
 122 390 122 390 155 362.5 c 128,-1,22
 188 335 188 335 248 335 c 0,23,24
 290 335 290 335 324.5 350 c 128,-1,25
 359 365 359 365 379.5 392.5 c 128,-1,26
 400 420 400 420 400 457 c 0,27,28
 400 504 400 504 368 529 c 128,-1,29
 336 554 336 554 274 554 c 0,16,17
129 549 m 1,30,31
 212 519 212 519 288 472.5 c 128,-1,32
 364 426 364 426 422 371 c 1,33,-1
 388 313 l 1,34,35
 326 372 326 372 247 420.5 c 128,-1,36
 168 469 168 469 82 499 c 1,37,-1
 129 549 l 1,30,31
515 622 m 1,38,-1
 515 551 l 1,39,-1
 404 551 l 1,40,-1
 275 569 l 1,41,-1
 175 555 l 2,42,43
 141 554 141 554 106.5 552.5 c 128,-1,44
 72 551 72 551 37 551 c 2,45,-1
 -10 551 l 1,46,-1
 -10 622 l 1,47,-1
 515 622 l 1,38,-1
EndSplineSet
Ligature2: "'half' Half Forms in Bengali2 lookup 28 subtable" ssabeng viramabeng
EndChar

StartChar: sahalfbeng
Encoding: 65598 -1 161
Width: 681
Flags: W
LayerCount: 2
Fore
SplineSet
500 300 m 256,0,1
 430 300 430 300 383.5 337.5 c 128,-1,2
 337 375 337 375 312 437 c 1,3,-1
 324 439 l 1,4,5
 317 407 317 407 301.5 375 c 128,-1,6
 286 343 286 343 260.5 321.5 c 128,-1,7
 235 300 235 300 197 300 c 0,8,9
 168 300 168 300 142.5 310.5 c 128,-1,10
 117 321 117 321 91.5 346.5 c 128,-1,11
 66 372 66 372 37 417 c 1,12,-1
 98 453 l 1,13,14
 127 404 127 404 145.5 390 c 128,-1,15
 164 376 164 376 186 376 c 0,16,17
 210 376 210 376 228.5 392 c 128,-1,18
 247 408 247 408 258 446 c 128,-1,19
 269 484 269 484 271 551 c 1,20,-1
 340 551 l 1,21,22
 348 514 348 514 361 481.5 c 128,-1,23
 374 449 374 449 393.5 424 c 128,-1,24
 413 399 413 399 439.5 385 c 128,-1,25
 466 371 466 371 501 371 c 256,26,27
 536 371 536 371 554.5 389.5 c 128,-1,28
 573 408 573 408 573 442 c 0,29,30
 573 480 573 480 552.5 514.5 c 128,-1,31
 532 549 532 549 503 575 c 1,32,-1
 583 591 l 1,33,34
 599 577 599 577 614.5 554.5 c 128,-1,35
 630 532 630 532 640 503.5 c 128,-1,36
 650 475 650 475 650 442 c 0,37,38
 650 375 650 375 610 337.5 c 128,-1,39
 570 300 570 300 500 300 c 256,0,1
691 622 m 1,40,-1
 691 551 l 1,41,-1
 -10 551 l 1,42,-1
 -10 622 l 1,43,-1
 691 622 l 1,40,-1
EndSplineSet
Ligature2: "'half' Half Forms in Bengali2 lookup 28 subtable" sabeng viramabeng
EndChar

StartChar: yapostformbeng
Encoding: 65607 -1 170
Width: 255
GlyphClass: 2
Flags: W
AnchorPoint: "Anchor-2" -203 622 basechar 0
LayerCount: 2
Fore
SplineSet
265 622 m 1,0,-1
 265 551 l 1,1,-1
 195 551 l 1,2,-1
 255 573 l 1,3,4
 214 540 214 540 193 513.5 c 128,-1,5
 172 487 172 487 165 460 c 128,-1,6
 158 433 158 433 158 395 c 0,7,8
 158 362 158 362 166 325 c 128,-1,9
 174 288 174 288 182.5 248.5 c 128,-1,10
 191 209 191 209 191 166 c 0,11,12
 191 130 191 130 183 96.5 c 128,-1,13
 175 63 175 63 153.5 34.5 c 128,-1,14
 132 6 132 6 92.5 -16 c 128,-1,15
 53 -38 53 -38 -10 -52 c 1,16,-1
 -31 17 l 1,17,18
 33 32 33 32 63.5 54.5 c 128,-1,19
 94 77 94 77 103.5 106 c 128,-1,20
 113 135 113 135 113 168 c 0,21,22
 113 208 113 208 105 246 c 128,-1,23
 97 284 97 284 88.5 321 c 128,-1,24
 80 358 80 358 80 393 c 0,25,26
 80 431 80 431 87 459.5 c 128,-1,27
 94 488 94 488 111 514.5 c 128,-1,28
 128 541 128 541 157 572 c 1,29,-1
 172 551 l 1,30,-1
 -10 551 l 1,31,-1
 -10 622 l 1,32,-1
 265 622 l 1,0,-1
EndSplineSet
Ligature2: "'pstf' Post Base Forms in Bengali2 lookup 29 subtable" viramabeng yabeng
Ligature2: "Ligature Substitution lookup 14 subtable" uni200D viramabeng yabeng
Substitution2: "Single Substitution lookup 7 subtable" candrabindubeng
Substitution2: "'aalt' Access All Alternates in Bengali2 lookup 0 subtable" candrabindubeng
EndChar

StartChar: karabeng
Encoding: 65608 -1 171
Width: 930
GlyphClass: 2
Flags: W
AnchorPoint: "Anchor-2" 465 622 basechar 0
AnchorPoint: "Anchor-1" 543 0 basechar 0
AnchorPoint: "Anchor-0" 543 622 basechar 0
LayerCount: 2
Fore
SplineSet
940 622 m 1,0,-1
 940 551 l 1,1,-1
 -10 551 l 1,2,-1
 -10 622 l 1,3,-1
 940 622 l 1,0,-1
471 528 m 0,4,5
 509 528 509 528 534 521 c 128,-1,6
 559 514 559 514 577 500 c 0,7,8
 598 484 598 484 609 459.5 c 128,-1,9
 620 435 620 435 620 389 c 2,10,-1
 620 379 l 2,11,12
 620 366 620 366 619.5 352 c 128,-1,13
 619 338 619 338 617 324 c 1,14,-1
 620 306 l 1,15,-1
 620 0 l 1,16,-1
 543 0 l 1,17,18
 534 45 534 45 511 66 c 128,-1,19
 488 87 488 87 450 87 c 0,20,21
 416 87 416 87 387 83 c 128,-1,22
 358 79 358 79 326.5 74.5 c 128,-1,23
 295 70 295 70 252 70 c 0,24,25
 221 70 221 70 185 77 c 128,-1,26
 149 84 149 84 117.5 103.5 c 128,-1,27
 86 123 86 123 66 161 c 128,-1,28
 46 199 46 199 46 262 c 0,29,30
 46 284 46 284 49 309 c 128,-1,31
 52 334 52 334 56 353 c 1,32,-1
 133 341 l 1,33,34
 129 325 129 325 126.5 308 c 128,-1,35
 124 291 124 291 124 265 c 0,36,37
 124 211 124 211 144 185 c 128,-1,38
 164 159 164 159 193.5 151.5 c 128,-1,39
 223 144 223 144 251 144 c 0,40,41
 288 144 288 144 317 148.5 c 128,-1,42
 346 153 346 153 373.5 157 c 128,-1,43
 401 161 401 161 432 161 c 0,44,45
 469 161 469 161 496.5 148.5 c 128,-1,46
 524 136 524 136 543 106 c 1,47,-1
 543 382 l 2,48,49
 543 408 543 408 538.5 421.5 c 128,-1,50
 534 435 534 435 524 443 c 0,51,52
 516 450 516 450 503.5 453.5 c 128,-1,53
 491 457 491 457 471 457 c 0,54,55
 441 457 441 457 415.5 445.5 c 128,-1,56
 390 434 390 434 370 417 c 256,57,58
 350 400 350 400 338 379.5 c 128,-1,59
 326 359 326 359 326 340 c 0,60,61
 326 325 326 325 335 313 c 128,-1,62
 344 301 344 301 377 301 c 0,63,64
 391 301 391 301 401.5 302 c 128,-1,65
 412 303 412 303 422 305 c 1,66,-1
 429 234 l 1,67,68
 419 231 419 231 402.5 228.5 c 128,-1,69
 386 226 386 226 362 226 c 0,70,71
 317 226 317 226 282 251 c 128,-1,72
 247 276 247 276 247 333 c 0,73,74
 247 366 247 366 264.5 400.5 c 128,-1,75
 282 435 282 435 314 464 c 0,76,77
 345 492 345 492 385 510 c 128,-1,78
 425 528 425 528 471 528 c 0,4,5
759 425 m 0,79,80
 820 425 820 425 857 390.5 c 128,-1,81
 894 356 894 356 894 301 c 0,82,83
 894 270 894 270 881.5 239 c 128,-1,84
 869 208 869 208 835 181 c 128,-1,85
 801 154 801 154 738 135 c 1,86,-1
 714 207 l 1,87,88
 763 220 763 220 791 241 c 128,-1,89
 819 262 819 262 819 293 c 0,90,91
 819 328 819 328 799 342 c 128,-1,92
 779 356 779 356 753 356 c 0,93,94
 716 356 716 356 682.5 326 c 128,-1,95
 649 296 649 296 620 242 c 1,96,-1
 577 279 l 1,97,98
 615 354 615 354 659.5 389.5 c 128,-1,99
 704 425 704 425 759 425 c 0,79,80
EndSplineSet
MultipleSubs2: "Multiple Substitution lookup 9 subtable" karabeng crossbeng
Ligature2: "'vatu' Vattu Variants in Bengali2 lookup 2 subtable" kabeng vattubeng
EndChar

StartChar: kharabeng
Encoding: 65609 -1 172
Width: 696
GlyphClass: 2
Flags: W
AnchorPoint: "Anchor-2" 348 622 basechar 0
AnchorPoint: "Anchor-1" 524 0 basechar 0
AnchorPoint: "Anchor-0" 463 622 basechar 0
LayerCount: 2
Fore
SplineSet
706 622 m 1,0,-1
 706 551 l 1,1,-1
 601 551 l 1,2,-1
 601 0 l 1,3,-1
 524 13 l 1,4,5
 492 53 492 53 455.5 89 c 128,-1,6
 419 125 419 125 376.5 154.5 c 128,-1,7
 334 184 334 184 282 205.5 c 128,-1,8
 230 227 230 227 166 238 c 1,9,-1
 142 331 l 1,10,-1
 190 296 l 1,11,12
 285 280 285 280 347.5 249.5 c 128,-1,13
 410 219 410 219 452.5 182 c 128,-1,14
 495 145 495 145 526 108 c 1,15,16
 525 131 525 131 524.5 154 c 128,-1,17
 524 177 524 177 524 204 c 2,18,-1
 524 688 l 1,19,-1
 577 688 l 1,20,-1
 600 622 l 1,21,-1
 706 622 l 1,0,-1
450 470 m 0,22,23
 450 412 450 412 418.5 371.5 c 128,-1,24
 387 331 387 331 332.5 307.5 c 128,-1,25
 278 284 278 284 209 276 c 1,26,-1
 162 285 l 1,27,-1
 142 331 l 1,28,29
 223 337 223 337 274.5 354.5 c 128,-1,30
 326 372 326 372 350.5 400.5 c 128,-1,31
 375 429 375 429 375 466 c 0,32,33
 375 497 375 497 361 522 c 128,-1,34
 347 547 347 547 316 571 c 1,35,-1
 371 625 l 1,36,37
 405 594 405 594 427.5 554.5 c 128,-1,38
 450 515 450 515 450 470 c 0,22,23
182 430 m 0,39,40
 121 430 121 430 85 461.5 c 128,-1,41
 49 493 49 493 49 548 c 0,42,43
 49 571 49 571 55.5 592 c 128,-1,44
 62 613 62 613 71 628 c 1,45,-1
 147 607 l 1,46,47
 140 597 140 597 135 582.5 c 128,-1,48
 130 568 130 568 130 552 c 0,49,50
 130 526 130 526 144.5 513.5 c 128,-1,51
 159 501 159 501 182 501 c 0,52,53
 202 501 202 501 224 509 c 128,-1,54
 246 517 246 517 269.5 541 c 128,-1,55
 293 565 293 565 316 612 c 1,56,-1
 371 625 l 1,57,-1
 373 575 l 1,58,59
 353 531 353 531 325 498.5 c 128,-1,60
 297 466 297 466 261.5 448 c 128,-1,61
 226 430 226 430 182 430 c 0,39,40
601 -117 m 1,62,-1
 526 -117 l 1,63,64
 513 -73 513 -73 484.5 -51.5 c 128,-1,65
 456 -30 456 -30 408 -30 c 0,66,67
 379 -30 379 -30 351 -34 c 128,-1,68
 323 -38 323 -38 294 -42.5 c 128,-1,69
 265 -47 265 -47 232 -47 c 256,70,71
 199 -47 199 -47 166.5 -40 c 128,-1,72
 134 -33 134 -33 106.5 -15.5 c 128,-1,73
 79 2 79 2 62.5 32 c 128,-1,74
 46 62 46 62 46 108 c 0,75,76
 46 128 46 128 49 145.5 c 128,-1,77
 52 163 52 163 55 174 c 1,78,-1
 132 165 l 1,79,80
 128 152 128 152 126 139 c 128,-1,81
 124 126 124 126 124 111 c 0,82,83
 124 61 124 61 153.5 43 c 128,-1,84
 183 25 183 25 232 25 c 0,85,86
 275 25 275 25 308.5 33.5 c 128,-1,87
 342 42 342 42 384 42 c 0,88,89
 431 42 431 42 466 27 c 128,-1,90
 501 12 501 12 524 -18 c 1,91,-1
 524 84 l 1,92,-1
 601 104 l 1,93,-1
 601 -117 l 1,62,-1
EndSplineSet
Substitution2: "Single Substitution lookup 20 subtable" kharasquishbeng
MultipleSubs2: "Multiple Substitution lookup 9 subtable" kharabeng crossbeng
Ligature2: "'vatu' Vattu Variants in Bengali2 lookup 2 subtable" khabeng vattubeng
Substitution2: "'aalt' Access All Alternates in Bengali2 lookup 0 subtable" kharasquishbeng
EndChar

StartChar: garabeng
Encoding: 65610 -1 173
Width: 727
GlyphClass: 2
Flags: W
AnchorPoint: "Anchor-2" 363 622 basechar 0
AnchorPoint: "Anchor-1" 555 0 basechar 0
AnchorPoint: "Anchor-0" 494 622 basechar 0
LayerCount: 2
Fore
SplineSet
737 622 m 1,0,-1
 737 551 l 1,1,-1
 632 551 l 1,2,-1
 632 0 l 1,3,-1
 555 0 l 1,4,-1
 555 425 l 1,5,-1
 576 362 l 1,6,7
 541 412 541 412 510.5 448.5 c 128,-1,8
 480 485 480 485 451.5 509 c 128,-1,9
 423 533 423 533 394.5 544.5 c 128,-1,10
 366 556 366 556 334 556 c 0,11,12
 281 556 281 556 248.5 528.5 c 128,-1,13
 216 501 216 501 191 465 c 1,14,-1
 177 457 l 1,15,16
 191 470 191 470 220 478.5 c 128,-1,17
 249 487 249 487 287 487 c 0,18,19
 333 487 333 487 361.5 469 c 128,-1,20
 390 451 390 451 403.5 423.5 c 128,-1,21
 417 396 417 396 417 369 c 0,22,23
 417 310 417 310 379 266 c 128,-1,24
 341 222 341 222 264 178 c 1,25,-1
 213 250 l 1,26,27
 263 273 263 273 300 299 c 128,-1,28
 337 325 337 325 337 365 c 0,29,30
 337 387 337 387 320 402 c 128,-1,31
 303 417 303 417 271 417 c 0,32,33
 245 417 245 417 222.5 411 c 128,-1,34
 200 405 200 405 174 392 c 1,35,-1
 93 458 l 1,36,37
 124 510 124 510 159 548.5 c 128,-1,38
 194 587 194 587 235.5 608 c 128,-1,39
 277 629 277 629 326 629 c 0,40,41
 376 629 376 629 417.5 611.5 c 128,-1,42
 459 594 459 594 498.5 559 c 128,-1,43
 538 524 538 524 578 472 c 1,44,-1
 560 483 l 1,45,46
 558 497 558 497 556.5 526 c 128,-1,47
 555 555 555 555 555 585 c 2,48,-1
 555 688 l 1,49,-1
 608 688 l 1,50,-1
 631 622 l 1,51,-1
 737 622 l 1,0,-1
632 -43 m 1,52,-1
 558 -43 l 1,53,54
 545 -2 545 -2 516 20.5 c 128,-1,55
 487 43 487 43 446 43 c 0,56,57
 414 43 414 43 384 39 c 128,-1,58
 354 35 354 35 322.5 30.5 c 128,-1,59
 291 26 291 26 252 26 c 0,60,61
 220 26 220 26 184 33 c 128,-1,62
 148 40 148 40 116.5 59 c 128,-1,63
 85 78 85 78 65.5 115 c 128,-1,64
 46 152 46 152 46 212 c 0,65,66
 46 231 46 231 48 251 c 128,-1,67
 50 271 50 271 54 287 c 1,68,-1
 131 277 l 1,69,70
 127 262 127 262 125.5 246 c 128,-1,71
 124 230 124 230 124 211 c 0,72,73
 124 170 124 170 140 145 c 128,-1,74
 156 120 156 120 185.5 109 c 128,-1,75
 215 98 215 98 254 98 c 0,76,77
 289 98 289 98 317 102.5 c 128,-1,78
 345 107 345 107 373 111 c 128,-1,79
 401 115 401 115 436 115 c 0,80,81
 469 115 469 115 498 104 c 128,-1,82
 527 93 527 93 555 61 c 1,83,-1
 555 69 l 1,84,-1
 632 68 l 1,85,-1
 632 -43 l 1,52,-1
EndSplineSet
Ligature2: "'vatu' Vattu Variants in Bengali2 lookup 2 subtable" gabeng vattubeng
EndChar

StartChar: gharabeng
Encoding: 65611 -1 174
Width: 690
GlyphClass: 2
Flags: W
AnchorPoint: "Anchor-2" 345 622 basechar 0
AnchorPoint: "Anchor-1" 518 0 basechar 0
LayerCount: 2
Fore
SplineSet
700 622 m 1,0,-1
 700 551 l 1,1,-1
 595 551 l 1,2,-1
 595 0 l 1,3,-1
 518 13 l 1,4,5
 483 56 483 56 432 91.5 c 128,-1,6
 381 127 381 127 317 150.5 c 128,-1,7
 253 174 253 174 177 179 c 1,8,-1
 142 266 l 1,9,10
 164 283 164 283 186 298.5 c 128,-1,11
 208 314 208 314 231 328.5 c 128,-1,12
 254 343 254 343 278 358 c 1,13,-1
 335 350 l 1,14,15
 322 346 322 346 312 344.5 c 128,-1,16
 302 343 302 343 293 343 c 0,17,18
 236 343 236 343 196 358 c 128,-1,19
 156 373 156 373 135.5 401.5 c 128,-1,20
 115 430 115 430 115 469 c 0,21,22
 115 514 115 514 144 547 c 128,-1,23
 173 580 173 580 230 616 c 1,24,-1
 299 581 l 1,25,26
 244 559 244 559 220 531 c 128,-1,27
 196 503 196 503 196 472 c 0,28,29
 196 435 196 435 222 419.5 c 128,-1,30
 248 404 248 404 283 404 c 0,31,32
 305 404 305 404 331.5 411.5 c 128,-1,33
 358 419 358 419 390 441 c 1,34,-1
 433 381 l 1,35,36
 397 360 397 360 357.5 334 c 128,-1,37
 318 308 318 308 281.5 282.5 c 128,-1,38
 245 257 245 257 216 234 c 1,39,-1
 203 251 l 1,40,41
 280 240 280 240 336 219.5 c 128,-1,42
 392 199 392 199 436.5 170 c 128,-1,43
 481 141 481 141 520 102 c 1,44,45
 519 119 519 119 518.5 137.5 c 128,-1,46
 518 156 518 156 518 175 c 2,47,-1
 518 551 l 1,48,-1
 -10 551 l 1,49,-1
 -10 622 l 1,50,-1
 700 622 l 1,0,-1
595 -117 m 1,51,-1
 521 -117 l 1,52,53
 508 -73 508 -73 479.5 -51.5 c 128,-1,54
 451 -30 451 -30 404 -30 c 0,55,56
 375 -30 375 -30 347 -34 c 128,-1,57
 319 -38 319 -38 290.5 -42.5 c 128,-1,58
 262 -47 262 -47 230 -47 c 256,59,60
 198 -47 198 -47 165.5 -40 c 128,-1,61
 133 -33 133 -33 106 -16.5 c 128,-1,62
 79 0 79 0 62.5 28.5 c 128,-1,63
 46 57 46 57 46 101 c 0,64,65
 46 121 46 121 49 137 c 128,-1,66
 52 153 52 153 55 164 c 1,67,-1
 132 155 l 1,68,69
 128 143 128 143 126 131 c 128,-1,70
 124 119 124 119 124 105 c 0,71,72
 124 58 124 58 153.5 41.5 c 128,-1,73
 183 25 183 25 231 25 c 0,74,75
 259 25 259 25 282.5 29.5 c 128,-1,76
 306 34 306 34 329 38 c 128,-1,77
 352 42 352 42 380 42 c 0,78,79
 426 42 426 42 460.5 27 c 128,-1,80
 495 12 495 12 518 -18 c 1,81,-1
 518 24 l 1,82,-1
 595 11 l 1,83,-1
 595 -117 l 1,51,-1
EndSplineSet
Substitution2: "Single Substitution lookup 20 subtable" gharasquishbeng
Ligature2: "'vatu' Vattu Variants in Bengali2 lookup 2 subtable" ghabeng vattubeng
Substitution2: "'aalt' Access All Alternates in Bengali2 lookup 0 subtable" gharasquishbeng
EndChar

StartChar: ngarabeng
Encoding: 65612 -1 175
Width: 723
GlyphClass: 2
Flags: W
AnchorPoint: "Anchor-2" 361 622 basechar 0
AnchorPoint: "Anchor-0" 390 622 basechar 0
LayerCount: 2
Fore
SplineSet
419 9 m 0,0,1
 353 9 353 9 296 30.5 c 128,-1,2
 239 52 239 52 190.5 101 c 128,-1,3
 142 150 142 150 102 233 c 128,-1,4
 62 316 62 316 29 440 c 1,5,-1
 105 461 l 1,6,7
 133 355 133 355 164.5 282.5 c 128,-1,8
 196 210 196 210 233.5 166.5 c 128,-1,9
 271 123 271 123 316.5 104 c 128,-1,10
 362 85 362 85 418 85 c 0,11,12
 498 85 498 85 545 120.5 c 128,-1,13
 592 156 592 156 592 217 c 0,14,15
 592 245 592 245 584 274.5 c 128,-1,16
 576 304 576 304 548 347 c 1,17,-1
 594 333 l 1,18,19
 557 286 557 286 523 259 c 128,-1,20
 489 232 489 232 459 220.5 c 128,-1,21
 429 209 429 209 402 209 c 0,22,23
 379 209 379 209 358.5 215 c 128,-1,24
 338 221 338 221 324 233 c 0,25,26
 307 247 307 247 295.5 272 c 128,-1,27
 284 297 284 297 284 352 c 2,28,-1
 284 443 l 2,29,30
 284 505 284 505 308 546.5 c 128,-1,31
 332 588 332 588 371 608.5 c 128,-1,32
 410 629 410 629 456 629 c 0,33,34
 511 629 511 629 547.5 601.5 c 128,-1,35
 584 574 584 574 584 519 c 0,36,37
 584 479 584 479 562.5 452 c 128,-1,38
 541 425 541 425 506 411.5 c 128,-1,39
 471 398 471 398 431 398 c 0,40,41
 362 398 362 398 303.5 424 c 128,-1,42
 245 450 245 450 198.5 492.5 c 128,-1,43
 152 535 152 535 118 582 c 1,44,-1
 179 623 l 1,45,46
 211 582 211 582 247 545.5 c 128,-1,47
 283 509 283 509 328 486.5 c 128,-1,48
 373 464 373 464 432 464 c 0,49,50
 473 464 473 464 491 480.5 c 128,-1,51
 509 497 509 497 509 520 c 0,52,53
 509 540 509 540 494.5 551.5 c 128,-1,54
 480 563 480 563 455 563 c 0,55,56
 424 563 424 563 402 546.5 c 128,-1,57
 380 530 380 530 368.5 501.5 c 128,-1,58
 357 473 357 473 357 438 c 2,59,-1
 357 337 l 2,60,61
 357 312 357 312 366 297 c 128,-1,62
 375 282 375 282 399 282 c 0,63,64
 422 282 422 282 443.5 291.5 c 128,-1,65
 465 301 465 301 489.5 322.5 c 128,-1,66
 514 344 514 344 546 380 c 1,67,-1
 616 383 l 1,68,69
 639 346 639 346 653 303 c 128,-1,70
 667 260 667 260 667 215 c 0,71,72
 667 157 667 157 639 110.5 c 128,-1,73
 611 64 611 64 556 36.5 c 128,-1,74
 501 9 501 9 419 9 c 0,0,1
624 -215 m 1,75,-1
 549 -215 l 1,76,77
 536 -173 536 -173 507.5 -150.5 c 128,-1,78
 479 -128 479 -128 440 -128 c 0,79,80
 403 -128 403 -128 370.5 -132 c 128,-1,81
 338 -136 338 -136 306 -140.5 c 128,-1,82
 274 -145 274 -145 236 -145 c 0,83,84
 202 -145 202 -145 168.5 -136.5 c 128,-1,85
 135 -128 135 -128 107 -108.5 c 128,-1,86
 79 -89 79 -89 62.5 -54.5 c 128,-1,87
 46 -20 46 -20 46 31 c 0,88,89
 46 55 46 55 49.5 77.5 c 128,-1,90
 53 100 53 100 57 119 c 1,91,-1
 134 109 l 1,92,93
 130 93 130 93 127 74 c 128,-1,94
 124 55 124 55 124 32 c 0,95,96
 124 -8 124 -8 138 -31 c 128,-1,97
 152 -54 152 -54 177 -63.5 c 128,-1,98
 202 -73 202 -73 236 -73 c 256,99,100
 270 -73 270 -73 298.5 -68.5 c 128,-1,101
 327 -64 327 -64 358.5 -60 c 128,-1,102
 390 -56 390 -56 431 -56 c 0,103,104
 462 -56 462 -56 490.5 -67 c 128,-1,105
 519 -78 519 -78 547 -110 c 1,106,-1
 547 -10 l 2,107,108
 547 5 547 5 547 28 c 128,-1,109
 547 51 547 51 548 70 c 1,110,-1
 624 110 l 1,111,-1
 624 -215 l 1,75,-1
EndSplineSet
Substitution2: "Single Substitution lookup 20 subtable" ngarasquishbeng
Ligature2: "'vatu' Vattu Variants in Bengali2 lookup 2 subtable" ngabeng vattubeng
Substitution2: "'aalt' Access All Alternates in Bengali2 lookup 0 subtable" ngarasquishbeng
EndChar

StartChar: ngarasquishbeng
Encoding: 65613 -1 176
Width: 700
GlyphClass: 2
Flags: W
AnchorPoint: "Anchor-2" 350 622 basechar 0
AnchorPoint: "Anchor-1" 523 0 basechar 0
AnchorPoint: "Anchor-0" 380 622 basechar 0
LayerCount: 2
Fore
SplineSet
403 125 m 0,0,1
 332 125 332 125 269 157 c 128,-1,2
 206 189 206 189 155 261 c 128,-1,3
 104 333 104 333 68 453 c 1,4,-1
 142 473 l 1,5,6
 170 373 170 373 207.5 313 c 128,-1,7
 245 253 245 253 294 226 c 128,-1,8
 343 199 343 199 405 199 c 0,9,10
 453 199 453 199 487 210.5 c 128,-1,11
 521 222 521 222 539.5 244.5 c 128,-1,12
 558 267 558 267 558 301 c 0,13,14
 558 313 558 313 556 326 c 128,-1,15
 554 339 554 339 549 351 c 1,16,-1
 595 384 l 1,17,18
 552 339 552 339 517 316 c 128,-1,19
 482 293 482 293 452.5 285.5 c 128,-1,20
 423 278 423 278 394 278 c 0,21,22
 334 278 334 278 302 317 c 128,-1,23
 270 356 270 356 270 414 c 0,24,25
 270 464 270 464 284.5 501.5 c 128,-1,26
 299 539 299 539 324 564.5 c 128,-1,27
 349 590 349 590 380.5 603 c 128,-1,28
 412 616 412 616 445 616 c 0,29,30
 477 616 477 616 503 606.5 c 128,-1,31
 529 597 529 597 545 576.5 c 128,-1,32
 561 556 561 556 561 523 c 0,33,34
 561 476 561 476 525.5 447 c 128,-1,35
 490 418 490 418 422 418 c 0,36,37
 394 418 394 418 365.5 424 c 128,-1,38
 337 430 337 430 322 437 c 1,39,-1
 334 496 l 1,40,41
 349 489 349 489 373.5 483.5 c 128,-1,42
 398 478 398 478 423 478 c 0,43,44
 461 478 461 478 477 492.5 c 128,-1,45
 493 507 493 507 493 527 c 0,46,47
 493 548 493 548 479 556.5 c 128,-1,48
 465 565 465 565 446 565 c 0,49,50
 415 565 415 565 391.5 542.5 c 128,-1,51
 368 520 368 520 355 483 c 128,-1,52
 342 446 342 446 342 404 c 0,53,54
 342 376 342 376 354 361.5 c 128,-1,55
 366 347 366 347 395 347 c 0,56,57
 418 347 418 347 440.5 355 c 128,-1,58
 463 363 463 363 489 380 c 128,-1,59
 515 397 515 397 546 424 c 1,60,-1
 601 421 l 1,61,62
 615 395 615 395 624 362.5 c 128,-1,63
 633 330 633 330 633 297 c 0,64,65
 633 219 633 219 573 172 c 128,-1,66
 513 125 513 125 403 125 c 0,0,1
710 622 m 1,67,-1
 710 551 l 1,68,-1
 509 551 l 1,69,-1
 420 585 l 1,70,-1
 323 554 l 1,71,72
 301 553 301 553 280 552 c 128,-1,73
 259 551 259 551 238 551 c 2,74,-1
 -10 551 l 1,75,-1
 -10 622 l 1,76,-1
 710 622 l 1,67,-1
600 -43 m 1,77,-1
 525 -43 l 1,78,79
 499 -11 499 -11 473 4 c 128,-1,80
 447 19 447 19 404 19 c 0,81,82
 379 19 379 19 352.5 15 c 128,-1,83
 326 11 326 11 296.5 6.5 c 128,-1,84
 267 2 267 2 233 2 c 0,85,86
 200 2 200 2 167 9.5 c 128,-1,87
 134 17 134 17 106.5 35 c 128,-1,88
 79 53 79 53 62.5 83 c 128,-1,89
 46 113 46 113 46 157 c 0,90,91
 46 175 46 175 48.5 194 c 128,-1,92
 51 213 51 213 55 226 c 1,93,-1
 132 216 l 1,94,95
 129 203 129 203 127 189 c 128,-1,96
 125 175 125 175 125 162 c 0,97,98
 125 128 125 128 138.5 108.5 c 128,-1,99
 152 89 152 89 176 81.5 c 128,-1,100
 200 74 200 74 231 74 c 0,101,102
 259 74 259 74 284.5 78.5 c 128,-1,103
 310 83 310 83 336 87 c 128,-1,104
 362 91 362 91 391 91 c 256,105,106
 420 91 420 91 443.5 84 c 128,-1,107
 467 77 467 77 486.5 65 c 128,-1,108
 506 53 506 53 523 36 c 1,109,-1
 523 99 l 2,110,111
 523 128 523 128 525 158 c 128,-1,112
 527 188 527 188 528 213 c 1,113,-1
 600 307 l 1,114,-1
 600 -43 l 1,77,-1
EndSplineSet
EndChar

StartChar: carabeng
Encoding: 65614 -1 177
Width: 675
GlyphClass: 2
Flags: W
AnchorPoint: "Anchor-2" 337 622 basechar 0
AnchorPoint: "Anchor-1" 499 0 basechar 0
AnchorPoint: "Anchor-0" 363 622 basechar 0
LayerCount: 2
Fore
SplineSet
685 622 m 1,0,-1
 685 551 l 1,1,-1
 279 551 l 1,2,-1
 279 518 l 1,3,-1
 275 468 l 2,4,5
 277 455 277 455 278 432 c 128,-1,6
 279 409 279 409 279 388 c 2,7,-1
 279 220 l 2,8,9
 279 176 279 176 284 158 c 128,-1,10
 289 140 289 140 296 132 c 0,11,12
 314 111 314 111 351 111 c 0,13,14
 389 111 389 111 423 129 c 128,-1,15
 457 147 457 147 483 175 c 0,16,17
 512 205 512 205 528.5 240 c 128,-1,18
 545 275 545 275 545 309 c 0,19,20
 545 339 545 339 526.5 349 c 128,-1,21
 508 359 508 359 476 359 c 2,22,-1
 470 359 l 2,23,24
 424 359 424 359 396 366.5 c 128,-1,25
 368 374 368 374 342 387 c 0,26,27
 319 400 319 400 300 417.5 c 128,-1,28
 281 435 281 435 268 457 c 1,29,-1
 278 544 l 1,30,31
 299 508 299 508 322 483.5 c 128,-1,32
 345 459 345 459 379.5 446 c 128,-1,33
 414 433 414 433 468 433 c 2,34,-1
 484 433 l 2,35,36
 522 433 522 433 542.5 428 c 128,-1,37
 563 423 563 423 579 413 c 0,38,39
 602 399 602 399 613 374.5 c 128,-1,40
 624 350 624 350 624 318 c 0,41,42
 624 279 624 279 610 241 c 128,-1,43
 596 203 596 203 573 170.5 c 128,-1,44
 550 138 550 138 521 112 c 0,45,46
 484 79 484 79 441 59 c 128,-1,47
 398 39 398 39 345 39 c 0,48,49
 308 39 308 39 282 50 c 128,-1,50
 256 61 256 61 239 78 c 0,51,52
 222 97 222 97 212 124 c 128,-1,53
 202 151 202 151 202 206 c 2,54,-1
 202 551 l 1,55,-1
 -10 551 l 1,56,-1
 -10 622 l 1,57,-1
 685 622 l 1,0,-1
576 -190 m 1,58,-1
 501 -190 l 1,59,60
 488 -149 488 -149 460 -126.5 c 128,-1,61
 432 -104 432 -104 398 -104 c 0,62,63
 368 -104 368 -104 339 -108 c 128,-1,64
 310 -112 310 -112 281.5 -116.5 c 128,-1,65
 253 -121 253 -121 223 -121 c 0,66,67
 190 -121 190 -121 158 -112.5 c 128,-1,68
 126 -104 126 -104 99.5 -83.5 c 128,-1,69
 73 -63 73 -63 57 -27 c 128,-1,70
 41 9 41 9 41 64 c 0,71,72
 41 93 41 93 45 119 c 128,-1,73
 49 145 49 145 53 158 c 1,74,-1
 130 148 l 1,75,76
 126 129 126 129 122.5 107.5 c 128,-1,77
 119 86 119 86 119 64 c 0,78,79
 119 21 119 21 131.5 -3.5 c 128,-1,80
 144 -28 144 -28 167 -38.5 c 128,-1,81
 190 -49 190 -49 221 -49 c 0,82,83
 247 -49 247 -49 275 -44.5 c 128,-1,84
 303 -40 303 -40 331.5 -36 c 128,-1,85
 360 -32 360 -32 388 -32 c 256,86,87
 416 -32 416 -32 443.5 -43 c 128,-1,88
 471 -54 471 -54 499 -86 c 1,89,-1
 499 35 l 2,90,91
 499 50 499 50 500 76 c 128,-1,92
 501 102 501 102 503 130 c 1,93,-1
 576 184 l 1,94,-1
 576 -190 l 1,58,-1
EndSplineSet
Substitution2: "Single Substitution lookup 20 subtable" carasquishbeng
Ligature2: "'vatu' Vattu Variants in Bengali2 lookup 2 subtable" cabeng vattubeng
Substitution2: "'aalt' Access All Alternates in Bengali2 lookup 0 subtable" carasquishbeng
EndChar

StartChar: charabeng
Encoding: 65615 -1 178
Width: 757
GlyphClass: 2
Flags: W
AnchorPoint: "Anchor-2" 378 622 basechar 0
AnchorPoint: "Anchor-1" 491 0 basechar 0
AnchorPoint: "Anchor-0" 413 622 basechar 0
LayerCount: 2
Fore
SplineSet
685 310 m 0,0,1
 685 255 685 255 664 216.5 c 128,-1,2
 643 178 643 178 608.5 153 c 128,-1,3
 574 128 574 128 532.5 114.5 c 128,-1,4
 491 101 491 101 450 97 c 1,5,-1
 429 120 l 1,6,7
 484 112 484 112 535.5 98.5 c 128,-1,8
 587 85 587 85 641 63.5 c 128,-1,9
 695 42 695 42 754 11 c 1,10,-1
 719 -49 l 1,11,12
 641 -7 641 -7 559.5 21.5 c 128,-1,13
 478 50 478 50 391.5 67.5 c 128,-1,14
 305 85 305 85 213 94 c 1,15,-1
 222 166 l 1,16,17
 251 160 251 160 283.5 156 c 128,-1,18
 316 152 316 152 359 152 c 0,19,20
 448 152 448 152 503 175 c 128,-1,21
 558 198 558 198 583 234.5 c 128,-1,22
 608 271 608 271 608 310 c 0,23,24
 608 363 608 363 574.5 391 c 128,-1,25
 541 419 541 419 482 419 c 0,26,27
 475 419 475 419 467.5 418.5 c 128,-1,28
 460 418 460 418 452 416 c 1,29,-1
 441 481 l 1,30,31
 452 482 452 482 467.5 482.5 c 128,-1,32
 483 483 483 483 493 483 c 0,33,34
 550 483 550 483 587.5 465.5 c 128,-1,35
 625 448 625 448 646.5 421 c 128,-1,36
 668 394 668 394 676.5 364 c 128,-1,37
 685 334 685 334 685 310 c 0,0,1
297 217 m 0,38,39
 263 217 263 217 237 225 c 128,-1,40
 211 233 211 233 195 249 c 0,41,42
 180 264 180 264 170.5 288 c 128,-1,43
 161 312 161 312 161 359 c 2,44,-1
 161 559 l 1,45,-1
 238 559 l 1,46,-1
 238 521 l 1,47,-1
 236 476 l 2,48,49
 237 464 237 464 237.5 450.5 c 128,-1,50
 238 437 238 437 238 420 c 2,51,-1
 238 359 l 2,52,53
 238 333 238 333 242.5 321 c 128,-1,54
 247 309 247 309 254 301 c 0,55,56
 269 286 269 286 303 286 c 0,57,58
 346 286 346 286 377.5 302 c 128,-1,59
 409 318 409 318 426.5 340.5 c 128,-1,60
 444 363 444 363 444 384 c 0,61,62
 444 403 444 403 430 408 c 128,-1,63
 416 413 416 413 392 413 c 2,64,-1
 386 413 l 2,65,66
 334 413 334 413 293 431 c 128,-1,67
 252 449 252 449 225 480 c 1,68,-1
 238 544 l 1,69,70
 255 525 255 525 274 510.5 c 128,-1,71
 293 496 293 496 321 488.5 c 128,-1,72
 349 481 349 481 393 481 c 2,73,-1
 441 481 l 2,74,75
 452 481 452 481 456.5 475 c 128,-1,76
 461 469 461 469 472 463 c 0,77,78
 492 453 492 453 506 435 c 128,-1,79
 520 417 520 417 520 388 c 0,80,81
 520 339 520 339 490.5 300.5 c 128,-1,82
 461 262 461 262 410.5 239.5 c 128,-1,83
 360 217 360 217 297 217 c 0,38,39
-10 551 m 1,84,-1
 -10 622 l 1,85,-1
 767 622 l 1,86,-1
 767 551 l 1,87,-1
 -10 551 l 1,84,-1
568 -161 m 1,88,-1
 493 -161 l 1,89,90
 478 -117 478 -117 452.5 -95.5 c 128,-1,91
 427 -74 427 -74 393 -74 c 0,92,93
 363 -74 363 -74 334.5 -78 c 128,-1,94
 306 -82 306 -82 278 -86.5 c 128,-1,95
 250 -91 250 -91 219 -91 c 0,96,97
 189 -91 189 -91 158.5 -83 c 128,-1,98
 128 -75 128 -75 102.5 -55.5 c 128,-1,99
 77 -36 77 -36 61.5 -2 c 128,-1,100
 46 32 46 32 46 84 c 0,101,102
 46 107 46 107 49 126 c 128,-1,103
 52 145 52 145 55 157 c 1,104,-1
 132 148 l 1,105,106
 128 133 128 133 126 117 c 128,-1,107
 124 101 124 101 124 80 c 0,108,109
 124 42 124 42 136.5 20.5 c 128,-1,110
 149 -1 149 -1 171 -10 c 128,-1,111
 193 -19 193 -19 222 -19 c 0,112,113
 249 -19 249 -19 275.5 -14.5 c 128,-1,114
 302 -10 302 -10 329.5 -6 c 128,-1,115
 357 -2 357 -2 383 -2 c 0,116,117
 411 -2 411 -2 437 -13 c 128,-1,118
 463 -24 463 -24 491 -56 c 1,119,-1
 491 -9 l 2,120,121
 491 14 491 14 491.5 34.5 c 128,-1,122
 492 55 492 55 493 70 c 1,123,-1
 563 43 l 1,124,125
 565 24 565 24 566.5 4.5 c 128,-1,126
 568 -15 568 -15 568 -35 c 2,127,-1
 568 -161 l 1,88,-1
EndSplineSet
Substitution2: "Single Substitution lookup 20 subtable" charasquishbeng
Ligature2: "'vatu' Vattu Variants in Bengali2 lookup 2 subtable" chabeng vattubeng
Substitution2: "'aalt' Access All Alternates in Bengali2 lookup 0 subtable" charasquishbeng
EndChar

StartChar: jarabeng
Encoding: 65616 -1 179
Width: 920
GlyphClass: 2
Flags: W
AnchorPoint: "Anchor-2" 460 622 basechar 0
AnchorPoint: "Anchor-1" 738 0 basechar 0
AnchorPoint: "Anchor-0" 669 622 basechar 0
LayerCount: 2
Fore
SplineSet
430 63 m 0,0,1
 371 63 371 63 317 84 c 128,-1,2
 263 105 263 105 215.5 151.5 c 128,-1,3
 168 198 168 198 128.5 275.5 c 128,-1,4
 89 353 89 353 58 465 c 1,5,-1
 134 485 l 1,6,7
 168 362 168 362 210 285.5 c 128,-1,8
 252 209 252 209 307 174 c 128,-1,9
 362 139 362 139 433 139 c 0,10,11
 507 139 507 139 545 171.5 c 128,-1,12
 583 204 583 204 583 268 c 0,13,14
 583 299 583 299 575 321 c 128,-1,15
 567 343 567 343 559 358 c 1,16,-1
 619 358 l 1,17,18
 591 329 591 329 560.5 306 c 128,-1,19
 530 283 530 283 495.5 270 c 128,-1,20
 461 257 461 257 420 257 c 0,21,22
 381 257 381 257 351 272 c 128,-1,23
 321 287 321 287 304 315.5 c 128,-1,24
 287 344 287 344 287 384 c 0,25,26
 287 428 287 428 318 473.5 c 128,-1,27
 349 519 349 519 423 553 c 1,28,29
 403 552 403 552 377.5 551.5 c 128,-1,30
 352 551 352 551 327 551 c 2,31,-1
 -10 551 l 1,32,-1
 -10 622 l 1,33,-1
 930 622 l 1,34,-1
 930 551 l 1,35,-1
 643 551 l 2,36,37
 619 551 619 551 600 552 c 128,-1,38
 581 553 581 553 564 554 c 1,39,40
 480 516 480 516 437 485 c 128,-1,41
 394 454 394 454 379 428.5 c 128,-1,42
 364 403 364 403 364 380 c 0,43,44
 364 352 364 352 380 340 c 128,-1,45
 396 328 396 328 416 328 c 0,46,47
 454 328 454 328 484 345.5 c 128,-1,48
 514 363 514 363 552 396 c 1,49,-1
 638 365 l 1,50,51
 647 345 647 345 653 315.5 c 128,-1,52
 659 286 659 286 659 254 c 0,53,54
 659 204 659 204 636.5 160.5 c 128,-1,55
 614 117 614 117 563.5 90 c 128,-1,56
 513 63 513 63 430 63 c 0,0,1
798 82 m 0,57,58
 798 52 798 52 800 18 c 128,-1,59
 802 -16 802 -16 806.5 -51.5 c 128,-1,60
 811 -87 811 -87 818 -124 c 1,61,-1
 746 -140 l 1,62,63
 730 -63 730 -63 725 -5 c 128,-1,64
 720 53 720 53 720 93 c 0,65,66
 720 154 720 154 727.5 206 c 128,-1,67
 735 258 735 258 748 303 c 128,-1,68
 761 348 761 348 778 388 c 1,69,70
 702 389 702 389 649.5 407 c 128,-1,71
 597 425 597 425 562 459.5 c 128,-1,72
 527 494 527 494 502 541 c 1,73,-1
 577 559 l 1,74,75
 592 531 592 531 617 508 c 128,-1,76
 642 485 642 485 681 472 c 128,-1,77
 720 459 720 459 777 459 c 0,78,79
 791 459 791 459 801.5 460 c 128,-1,80
 812 461 812 461 827 462 c 1,81,-1
 866 392 l 1,82,83
 837 323 837 323 817.5 249.5 c 128,-1,84
 798 176 798 176 798 82 c 0,57,58
746 -140 m 1,85,86
 725 -114 725 -114 705 -96 c 128,-1,87
 685 -78 685 -78 657 -68 c 128,-1,88
 629 -58 629 -58 583 -58 c 0,89,90
 535 -58 535 -58 482.5 -64.5 c 128,-1,91
 430 -71 430 -71 376 -77.5 c 128,-1,92
 322 -84 322 -84 268 -84 c 0,93,94
 231 -84 231 -84 193 -77 c 128,-1,95
 155 -70 155 -70 122.5 -51 c 128,-1,96
 90 -32 90 -32 70 5 c 128,-1,97
 50 42 50 42 50 102 c 0,98,99
 50 116 50 116 51.5 133 c 128,-1,100
 53 150 53 150 57 166 c 1,101,-1
 134 156 l 1,102,103
 130 141 130 141 129 128.5 c 128,-1,104
 128 116 128 116 128 101 c 0,105,106
 128 59 128 59 144.5 34.5 c 128,-1,107
 161 10 161 10 193 -1 c 128,-1,108
 225 -12 225 -12 269 -12 c 0,109,110
 316 -12 316 -12 368.5 -5.5 c 128,-1,111
 421 1 421 1 475 7.5 c 128,-1,112
 529 14 529 14 579 14 c 0,113,114
 626 14 626 14 657 4 c 128,-1,115
 688 -6 688 -6 713 -25 c 128,-1,116
 738 -44 738 -44 765 -72 c 1,117,-1
 746 -140 l 1,85,86
EndSplineSet
Substitution2: "Single Substitution lookup 20 subtable" jarasquishbeng
Ligature2: "'vatu' Vattu Variants in Bengali2 lookup 2 subtable" jabeng vattubeng
Substitution2: "'aalt' Access All Alternates in Bengali2 lookup 0 subtable" jarasquishbeng
EndChar

